  0
SECTION
  2
BLOCKS
  0
ENDSEC
  0
SECTION
  2
ENTITIES
  0
LINE
  8
0
 10
235
 20
50
 11
-235
 21
50
  0
LINE
  8
0
 10
-235
 20
50
 11
-235
 21
-50
  0
LINE
  8
0
 10
-235
 20
-50
 11
235
 21
-50
  0
LINE
  8
0
 10
235
 20
-50
 11
235
 21
50
  0
LINE
  8
0
 10
-20.1287
 20
17.954
 11
-20.2569
 21
17.9662
  0
LINE
  8
0
 10
-20.2569
 20
17.9662
 11
-20.3841
 21
17.9863
  0
LINE
  8
0
 10
-20.3841
 20
17.9863
 11
-20.5098
 21
18.0144
  0
LINE
  8
0
 10
-20.5098
 20
18.0144
 11
-20.6335
 21
18.0503
  0
LINE
  8
0
 10
-20.6335
 20
18.0503
 11
-20.7547
 21
18.0939
  0
LINE
  8
0
 10
-20.7547
 20
18.0939
 11
-20.8728
 21
18.1451
  0
LINE
  8
0
 10
-20.8728
 20
18.1451
 11
-20.9876
 21
18.2036
  0
LINE
  8
0
 10
-20.9876
 20
18.2036
 11
-21.0984
 21
18.2691
  0
LINE
  8
0
 10
-21.0984
 20
18.2691
 11
-21.205
 21
18.3415
  0
LINE
  8
0
 10
-21.205
 20
18.3415
 11
-21.3067
 21
18.4204
  0
LINE
  8
0
 10
-21.3067
 20
18.4204
 11
-21.4033
 21
18.5056
  0
LINE
  8
0
 10
-21.4033
 20
18.5056
 11
-21.4944
 21
18.5967
  0
LINE
  8
0
 10
-21.4944
 20
18.5967
 11
-21.5795
 21
18.6933
  0
LINE
  8
0
 10
-21.5795
 20
18.6933
 11
-21.6585
 21
18.795
  0
LINE
  8
0
 10
-21.6585
 20
18.795
 11
-21.7309
 21
18.9016
  0
LINE
  8
0
 10
-21.7309
 20
18.9016
 11
-21.7964
 21
19.0124
  0
LINE
  8
0
 10
-21.7964
 20
19.0124
 11
-21.8549
 21
19.1272
  0
LINE
  8
0
 10
-21.8549
 20
19.1272
 11
-21.906
 21
19.2453
  0
LINE
  8
0
 10
-21.906
 20
19.2453
 11
-21.9497
 21
19.3665
  0
LINE
  8
0
 10
-21.9497
 20
19.3665
 11
-21.9856
 21
19.4902
  0
LINE
  8
0
 10
-21.9856
 20
19.4902
 11
-22.0137
 21
19.6159
  0
LINE
  8
0
 10
-22.0137
 20
19.6159
 11
-22.0338
 21
19.7431
  0
LINE
  8
0
 10
-22.0338
 20
19.7431
 11
-22.0459
 21
19.8713
  0
LINE
  8
0
 10
-22.0459
 20
19.8713
 11
-22.05
 21
20
  0
LINE
  8
0
 10
-22.05
 20
20
 11
-22.0459
 21
20.1287
  0
LINE
  8
0
 10
-22.0459
 20
20.1287
 11
-22.0338
 21
20.2569
  0
LINE
  8
0
 10
-22.0338
 20
20.2569
 11
-22.0137
 21
20.3841
  0
LINE
  8
0
 10
-22.0137
 20
20.3841
 11
-21.9856
 21
20.5098
  0
LINE
  8
0
 10
-21.9856
 20
20.5098
 11
-21.9497
 21
20.6335
  0
LINE
  8
0
 10
-21.9497
 20
20.6335
 11
-21.906
 21
20.7547
  0
LINE
  8
0
 10
-21.906
 20
20.7547
 11
-21.8549
 21
20.8728
  0
LINE
  8
0
 10
-21.8549
 20
20.8728
 11
-21.7964
 21
20.9876
  0
LINE
  8
0
 10
-21.7964
 20
20.9876
 11
-21.7309
 21
21.0984
  0
LINE
  8
0
 10
-21.7309
 20
21.0984
 11
-21.6585
 21
21.205
  0
LINE
  8
0
 10
-21.6585
 20
21.205
 11
-21.5795
 21
21.3067
  0
LINE
  8
0
 10
-21.5795
 20
21.3067
 11
-21.4944
 21
21.4033
  0
LINE
  8
0
 10
-21.4944
 20
21.4033
 11
-21.4033
 21
21.4944
  0
LINE
  8
0
 10
-21.4033
 20
21.4944
 11
-21.3067
 21
21.5795
  0
LINE
  8
0
 10
-21.3067
 20
21.5795
 11
-21.205
 21
21.6585
  0
LINE
  8
0
 10
-21.205
 20
21.6585
 11
-21.0984
 21
21.7309
  0
LINE
  8
0
 10
-21.0984
 20
21.7309
 11
-20.9876
 21
21.7964
  0
LINE
  8
0
 10
-20.9876
 20
21.7964
 11
-20.8728
 21
21.8549
  0
LINE
  8
0
 10
-20.8728
 20
21.8549
 11
-20.7547
 21
21.906
  0
LINE
  8
0
 10
-20.7547
 20
21.906
 11
-20.6335
 21
21.9497
  0
LINE
  8
0
 10
-20.6335
 20
21.9497
 11
-20.5098
 21
21.9856
  0
LINE
  8
0
 10
-20.5098
 20
21.9856
 11
-20.3841
 21
22.0137
  0
LINE
  8
0
 10
-20.3841
 20
22.0137
 11
-20.2569
 21
22.0338
  0
LINE
  8
0
 10
-20.2569
 20
22.0338
 11
-20.1287
 21
22.0459
  0
LINE
  8
0
 10
-20.1287
 20
22.0459
 11
-20
 21
22.05
  0
LINE
  8
0
 10
-20
 20
22.05
 11
-19.8713
 21
22.0459
  0
LINE
  8
0
 10
-19.8713
 20
22.0459
 11
-19.7431
 21
22.0338
  0
LINE
  8
0
 10
-19.7431
 20
22.0338
 11
-19.6159
 21
22.0137
  0
LINE
  8
0
 10
-19.6159
 20
22.0137
 11
-19.4902
 21
21.9856
  0
LINE
  8
0
 10
-19.4902
 20
21.9856
 11
-19.3665
 21
21.9497
  0
LINE
  8
0
 10
-19.3665
 20
21.9497
 11
-19.2453
 21
21.906
  0
LINE
  8
0
 10
-19.2453
 20
21.906
 11
-19.1272
 21
21.8549
  0
LINE
  8
0
 10
-19.1272
 20
21.8549
 11
-19.0124
 21
21.7964
  0
LINE
  8
0
 10
-19.0124
 20
21.7964
 11
-18.9016
 21
21.7309
  0
LINE
  8
0
 10
-18.9016
 20
21.7309
 11
-18.795
 21
21.6585
  0
LINE
  8
0
 10
-18.795
 20
21.6585
 11
-18.6933
 21
21.5795
  0
LINE
  8
0
 10
-18.6933
 20
21.5795
 11
-18.5967
 21
21.4944
  0
LINE
  8
0
 10
-18.5967
 20
21.4944
 11
-18.5056
 21
21.4033
  0
LINE
  8
0
 10
-18.5056
 20
21.4033
 11
-18.4204
 21
21.3067
  0
LINE
  8
0
 10
-18.4204
 20
21.3067
 11
-18.3415
 21
21.205
  0
LINE
  8
0
 10
-18.3415
 20
21.205
 11
-18.2691
 21
21.0984
  0
LINE
  8
0
 10
-18.2691
 20
21.0984
 11
-18.2036
 21
20.9876
  0
LINE
  8
0
 10
-18.2036
 20
20.9876
 11
-18.1451
 21
20.8728
  0
LINE
  8
0
 10
-18.1451
 20
20.8728
 11
-18.0939
 21
20.7547
  0
LINE
  8
0
 10
-18.0939
 20
20.7547
 11
-18.0503
 21
20.6335
  0
LINE
  8
0
 10
-18.0503
 20
20.6335
 11
-18.0144
 21
20.5098
  0
LINE
  8
0
 10
-18.0144
 20
20.5098
 11
-17.9863
 21
20.3841
  0
LINE
  8
0
 10
-17.9863
 20
20.3841
 11
-17.9662
 21
20.2569
  0
LINE
  8
0
 10
-17.9662
 20
20.2569
 11
-17.954
 21
20.1287
  0
LINE
  8
0
 10
-17.954
 20
20.1287
 11
-17.95
 21
20
  0
LINE
  8
0
 10
-17.95
 20
20
 11
-17.954
 21
19.8713
  0
LINE
  8
0
 10
-17.954
 20
19.8713
 11
-17.9662
 21
19.7431
  0
LINE
  8
0
 10
-17.9662
 20
19.7431
 11
-17.9863
 21
19.6159
  0
LINE
  8
0
 10
-17.9863
 20
19.6159
 11
-18.0144
 21
19.4902
  0
LINE
  8
0
 10
-18.0144
 20
19.4902
 11
-18.0503
 21
19.3665
  0
LINE
  8
0
 10
-18.0503
 20
19.3665
 11
-18.0939
 21
19.2453
  0
LINE
  8
0
 10
-18.0939
 20
19.2453
 11
-18.1451
 21
19.1272
  0
LINE
  8
0
 10
-18.1451
 20
19.1272
 11
-18.2036
 21
19.0124
  0
LINE
  8
0
 10
-18.2036
 20
19.0124
 11
-18.2691
 21
18.9016
  0
LINE
  8
0
 10
-18.2691
 20
18.9016
 11
-18.3415
 21
18.795
  0
LINE
  8
0
 10
-18.3415
 20
18.795
 11
-18.4204
 21
18.6933
  0
LINE
  8
0
 10
-18.4204
 20
18.6933
 11
-18.5056
 21
18.5967
  0
LINE
  8
0
 10
-18.5056
 20
18.5967
 11
-18.5967
 21
18.5056
  0
LINE
  8
0
 10
-18.5967
 20
18.5056
 11
-18.6933
 21
18.4204
  0
LINE
  8
0
 10
-18.6933
 20
18.4204
 11
-18.795
 21
18.3415
  0
LINE
  8
0
 10
-18.795
 20
18.3415
 11
-18.9016
 21
18.2691
  0
LINE
  8
0
 10
-18.9016
 20
18.2691
 11
-19.0124
 21
18.2036
  0
LINE
  8
0
 10
-19.0124
 20
18.2036
 11
-19.1272
 21
18.1451
  0
LINE
  8
0
 10
-19.1272
 20
18.1451
 11
-19.2453
 21
18.0939
  0
LINE
  8
0
 10
-19.2453
 20
18.0939
 11
-19.3665
 21
18.0503
  0
LINE
  8
0
 10
-19.3665
 20
18.0503
 11
-19.4902
 21
18.0144
  0
LINE
  8
0
 10
-19.4902
 20
18.0144
 11
-19.6159
 21
17.9863
  0
LINE
  8
0
 10
-19.6159
 20
17.9863
 11
-19.7431
 21
17.9662
  0
LINE
  8
0
 10
-19.7431
 20
17.9662
 11
-19.8713
 21
17.954
  0
LINE
  8
0
 10
-19.8713
 20
17.954
 11
-20
 21
17.95
  0
LINE
  8
0
 10
-20
 20
17.95
 11
-20.1287
 21
17.954
  0
LINE
  8
0
 10
20.2569
 20
22.0338
 11
20.3841
 21
22.0137
  0
LINE
  8
0
 10
20.3841
 20
22.0137
 11
20.5098
 21
21.9856
  0
LINE
  8
0
 10
20.5098
 20
21.9856
 11
20.6335
 21
21.9497
  0
LINE
  8
0
 10
20.6335
 20
21.9497
 11
20.7547
 21
21.906
  0
LINE
  8
0
 10
20.7547
 20
21.906
 11
20.8728
 21
21.8549
  0
LINE
  8
0
 10
20.8728
 20
21.8549
 11
20.9876
 21
21.7964
  0
LINE
  8
0
 10
20.9876
 20
21.7964
 11
21.0984
 21
21.7309
  0
LINE
  8
0
 10
21.0984
 20
21.7309
 11
21.205
 21
21.6585
  0
LINE
  8
0
 10
21.205
 20
21.6585
 11
21.3067
 21
21.5795
  0
LINE
  8
0
 10
21.3067
 20
21.5795
 11
21.4033
 21
21.4944
  0
LINE
  8
0
 10
21.4033
 20
21.4944
 11
21.4944
 21
21.4033
  0
LINE
  8
0
 10
21.4944
 20
21.4033
 11
21.5795
 21
21.3067
  0
LINE
  8
0
 10
21.5795
 20
21.3067
 11
21.6585
 21
21.205
  0
LINE
  8
0
 10
21.6585
 20
21.205
 11
21.7309
 21
21.0984
  0
LINE
  8
0
 10
21.7309
 20
21.0984
 11
21.7964
 21
20.9876
  0
LINE
  8
0
 10
21.7964
 20
20.9876
 11
21.8549
 21
20.8728
  0
LINE
  8
0
 10
21.8549
 20
20.8728
 11
21.906
 21
20.7547
  0
LINE
  8
0
 10
21.906
 20
20.7547
 11
21.9497
 21
20.6335
  0
LINE
  8
0
 10
21.9497
 20
20.6335
 11
21.9856
 21
20.5098
  0
LINE
  8
0
 10
21.9856
 20
20.5098
 11
22.0137
 21
20.3841
  0
LINE
  8
0
 10
22.0137
 20
20.3841
 11
22.0338
 21
20.2569
  0
LINE
  8
0
 10
22.0338
 20
20.2569
 11
22.0459
 21
20.1287
  0
LINE
  8
0
 10
22.0459
 20
20.1287
 11
22.05
 21
20
  0
LINE
  8
0
 10
22.05
 20
20
 11
22.0459
 21
19.8713
  0
LINE
  8
0
 10
22.0459
 20
19.8713
 11
22.0338
 21
19.7431
  0
LINE
  8
0
 10
22.0338
 20
19.7431
 11
22.0137
 21
19.6159
  0
LINE
  8
0
 10
22.0137
 20
19.6159
 11
21.9856
 21
19.4902
  0
LINE
  8
0
 10
21.9856
 20
19.4902
 11
21.9497
 21
19.3665
  0
LINE
  8
0
 10
21.9497
 20
19.3665
 11
21.906
 21
19.2453
  0
LINE
  8
0
 10
21.906
 20
19.2453
 11
21.8549
 21
19.1272
  0
LINE
  8
0
 10
21.8549
 20
19.1272
 11
21.7964
 21
19.0124
  0
LINE
  8
0
 10
21.7964
 20
19.0124
 11
21.7309
 21
18.9016
  0
LINE
  8
0
 10
21.7309
 20
18.9016
 11
21.6585
 21
18.795
  0
LINE
  8
0
 10
21.6585
 20
18.795
 11
21.5795
 21
18.6933
  0
LINE
  8
0
 10
21.5795
 20
18.6933
 11
21.4944
 21
18.5967
  0
LINE
  8
0
 10
21.4944
 20
18.5967
 11
21.4033
 21
18.5056
  0
LINE
  8
0
 10
21.4033
 20
18.5056
 11
21.3067
 21
18.4204
  0
LINE
  8
0
 10
21.3067
 20
18.4204
 11
21.205
 21
18.3415
  0
LINE
  8
0
 10
21.205
 20
18.3415
 11
21.0984
 21
18.2691
  0
LINE
  8
0
 10
21.0984
 20
18.2691
 11
20.9876
 21
18.2036
  0
LINE
  8
0
 10
20.9876
 20
18.2036
 11
20.8728
 21
18.1451
  0
LINE
  8
0
 10
20.8728
 20
18.1451
 11
20.7547
 21
18.0939
  0
LINE
  8
0
 10
20.7547
 20
18.0939
 11
20.6335
 21
18.0503
  0
LINE
  8
0
 10
20.6335
 20
18.0503
 11
20.5098
 21
18.0144
  0
LINE
  8
0
 10
20.5098
 20
18.0144
 11
20.3841
 21
17.9863
  0
LINE
  8
0
 10
20.3841
 20
17.9863
 11
20.2569
 21
17.9662
  0
LINE
  8
0
 10
20.2569
 20
17.9662
 11
20.1287
 21
17.954
  0
LINE
  8
0
 10
20.1287
 20
17.954
 11
20
 21
17.95
  0
LINE
  8
0
 10
20
 20
17.95
 11
19.8713
 21
17.954
  0
LINE
  8
0
 10
19.8713
 20
17.954
 11
19.7431
 21
17.9662
  0
LINE
  8
0
 10
19.7431
 20
17.9662
 11
19.6159
 21
17.9863
  0
LINE
  8
0
 10
19.6159
 20
17.9863
 11
19.4902
 21
18.0144
  0
LINE
  8
0
 10
19.4902
 20
18.0144
 11
19.3665
 21
18.0503
  0
LINE
  8
0
 10
19.3665
 20
18.0503
 11
19.2453
 21
18.0939
  0
LINE
  8
0
 10
19.2453
 20
18.0939
 11
19.1272
 21
18.1451
  0
LINE
  8
0
 10
19.1272
 20
18.1451
 11
19.0124
 21
18.2036
  0
LINE
  8
0
 10
19.0124
 20
18.2036
 11
18.9016
 21
18.2691
  0
LINE
  8
0
 10
18.9016
 20
18.2691
 11
18.795
 21
18.3415
  0
LINE
  8
0
 10
18.795
 20
18.3415
 11
18.6933
 21
18.4204
  0
LINE
  8
0
 10
18.6933
 20
18.4204
 11
18.5967
 21
18.5056
  0
LINE
  8
0
 10
18.5967
 20
18.5056
 11
18.5056
 21
18.5967
  0
LINE
  8
0
 10
18.5056
 20
18.5967
 11
18.4204
 21
18.6933
  0
LINE
  8
0
 10
18.4204
 20
18.6933
 11
18.3415
 21
18.795
  0
LINE
  8
0
 10
18.3415
 20
18.795
 11
18.2691
 21
18.9016
  0
LINE
  8
0
 10
18.2691
 20
18.9016
 11
18.2036
 21
19.0124
  0
LINE
  8
0
 10
18.2036
 20
19.0124
 11
18.1451
 21
19.1272
  0
LINE
  8
0
 10
18.1451
 20
19.1272
 11
18.0939
 21
19.2453
  0
LINE
  8
0
 10
18.0939
 20
19.2453
 11
18.0503
 21
19.3665
  0
LINE
  8
0
 10
18.0503
 20
19.3665
 11
18.0144
 21
19.4902
  0
LINE
  8
0
 10
18.0144
 20
19.4902
 11
17.9863
 21
19.6159
  0
LINE
  8
0
 10
17.9863
 20
19.6159
 11
17.9662
 21
19.7431
  0
LINE
  8
0
 10
17.9662
 20
19.7431
 11
17.954
 21
19.8713
  0
LINE
  8
0
 10
17.954
 20
19.8713
 11
17.95
 21
20
  0
LINE
  8
0
 10
17.95
 20
20
 11
17.954
 21
20.1287
  0
LINE
  8
0
 10
17.954
 20
20.1287
 11
17.9662
 21
20.2569
  0
LINE
  8
0
 10
17.9662
 20
20.2569
 11
17.9863
 21
20.3841
  0
LINE
  8
0
 10
17.9863
 20
20.3841
 11
18.0144
 21
20.5098
  0
LINE
  8
0
 10
18.0144
 20
20.5098
 11
18.0503
 21
20.6335
  0
LINE
  8
0
 10
18.0503
 20
20.6335
 11
18.0939
 21
20.7547
  0
LINE
  8
0
 10
18.0939
 20
20.7547
 11
18.1451
 21
20.8728
  0
LINE
  8
0
 10
18.1451
 20
20.8728
 11
18.2036
 21
20.9876
  0
LINE
  8
0
 10
18.2036
 20
20.9876
 11
18.2691
 21
21.0984
  0
LINE
  8
0
 10
18.2691
 20
21.0984
 11
18.3415
 21
21.205
  0
LINE
  8
0
 10
18.3415
 20
21.205
 11
18.4204
 21
21.3067
  0
LINE
  8
0
 10
18.4204
 20
21.3067
 11
18.5056
 21
21.4033
  0
LINE
  8
0
 10
18.5056
 20
21.4033
 11
18.5967
 21
21.4944
  0
LINE
  8
0
 10
18.5967
 20
21.4944
 11
18.6933
 21
21.5795
  0
LINE
  8
0
 10
18.6933
 20
21.5795
 11
18.795
 21
21.6585
  0
LINE
  8
0
 10
18.795
 20
21.6585
 11
18.9016
 21
21.7309
  0
LINE
  8
0
 10
18.9016
 20
21.7309
 11
19.0124
 21
21.7964
  0
LINE
  8
0
 10
19.0124
 20
21.7964
 11
19.1272
 21
21.8549
  0
LINE
  8
0
 10
19.1272
 20
21.8549
 11
19.2453
 21
21.906
  0
LINE
  8
0
 10
19.2453
 20
21.906
 11
19.3665
 21
21.9497
  0
LINE
  8
0
 10
19.3665
 20
21.9497
 11
19.4902
 21
21.9856
  0
LINE
  8
0
 10
19.4902
 20
21.9856
 11
19.6159
 21
22.0137
  0
LINE
  8
0
 10
19.6159
 20
22.0137
 11
19.7431
 21
22.0338
  0
LINE
  8
0
 10
19.7431
 20
22.0338
 11
19.8713
 21
22.0459
  0
LINE
  8
0
 10
19.8713
 20
22.0459
 11
20
 21
22.05
  0
LINE
  8
0
 10
20
 20
22.05
 11
20.1287
 21
22.0459
  0
LINE
  8
0
 10
20.1287
 20
22.0459
 11
20.2569
 21
22.0338
  0
LINE
  8
0
 10
116.809
 20
-10.9783
 11
116.121
 21
-10.9133
  0
LINE
  8
0
 10
116.121
 20
-10.9133
 11
115.439
 21
-10.8051
  0
LINE
  8
0
 10
115.439
 20
-10.8051
 11
114.764
 21
-10.6544
  0
LINE
  8
0
 10
114.764
 20
-10.6544
 11
114.101
 21
-10.4616
  0
LINE
  8
0
 10
114.101
 20
-10.4616
 11
113.451
 21
-10.2275
  0
LINE
  8
0
 10
113.451
 20
-10.2275
 11
112.816
 21
-9.95309
  0
LINE
  8
0
 10
112.816
 20
-9.95309
 11
112.201
 21
-9.63936
  0
LINE
  8
0
 10
112.201
 20
-9.63936
 11
111.606
 21
-9.2876
  0
LINE
  8
0
 10
111.606
 20
-9.2876
 11
111.034
 21
-8.89919
  0
LINE
  8
0
 10
111.034
 20
-8.89919
 11
110.488
 21
-8.47563
  0
LINE
  8
0
 10
110.488
 20
-8.47563
 11
109.97
 21
-8.01865
  0
LINE
  8
0
 10
109.97
 20
-8.01865
 11
109.481
 21
-7.53001
  0
LINE
  8
0
 10
109.481
 20
-7.53001
 11
109.024
 21
-7.01166
  0
LINE
  8
0
 10
109.024
 20
-7.01166
 11
108.601
 21
-6.46564
  0
LINE
  8
0
 10
108.601
 20
-6.46564
 11
108.212
 21
-5.89409
  0
LINE
  8
0
 10
108.212
 20
-5.89409
 11
107.861
 21
-5.29929
  0
LINE
  8
0
 10
107.861
 20
-5.29929
 11
107.547
 21
-4.68356
  0
LINE
  8
0
 10
107.547
 20
-4.68356
 11
107.272
 21
-4.04936
  0
LINE
  8
0
 10
107.272
 20
-4.04936
 11
107.038
 21
-3.39919
  0
LINE
  8
0
 10
107.038
 20
-3.39919
 11
106.846
 21
-2.73558
  0
LINE
  8
0
 10
106.846
 20
-2.73558
 11
106.695
 21
-2.06119
  0
LINE
  8
0
 10
106.695
 20
-2.06119
 11
106.587
 21
-1.37866
  0
LINE
  8
0
 10
106.587
 20
-1.37866
 11
106.522
 21
-0.690689
  0
LINE
  8
0
 10
106.522
 20
-0.690689
 11
106.5
 21
0
  0
LINE
  8
0
 10
106.5
 20
0
 11
106.522
 21
0.690689
  0
LINE
  8
0
 10
106.522
 20
0.690689
 11
106.587
 21
1.37866
  0
LINE
  8
0
 10
106.587
 20
1.37866
 11
106.695
 21
2.06119
  0
LINE
  8
0
 10
106.695
 20
2.06119
 11
106.846
 21
2.73558
  0
LINE
  8
0
 10
106.846
 20
2.73558
 11
107.038
 21
3.39919
  0
LINE
  8
0
 10
107.038
 20
3.39919
 11
107.272
 21
4.04936
  0
LINE
  8
0
 10
107.272
 20
4.04936
 11
107.547
 21
4.68356
  0
LINE
  8
0
 10
107.547
 20
4.68356
 11
107.861
 21
5.29929
  0
LINE
  8
0
 10
107.861
 20
5.29929
 11
108.212
 21
5.89409
  0
LINE
  8
0
 10
108.212
 20
5.89409
 11
108.601
 21
6.46564
  0
LINE
  8
0
 10
108.601
 20
6.46564
 11
109.024
 21
7.01166
  0
LINE
  8
0
 10
109.024
 20
7.01166
 11
109.481
 21
7.53001
  0
LINE
  8
0
 10
109.481
 20
7.53001
 11
109.97
 21
8.01865
  0
LINE
  8
0
 10
109.97
 20
8.01865
 11
110.488
 21
8.47563
  0
LINE
  8
0
 10
110.488
 20
8.47563
 11
111.034
 21
8.89919
  0
LINE
  8
0
 10
111.034
 20
8.89919
 11
111.606
 21
9.2876
  0
LINE
  8
0
 10
111.606
 20
9.2876
 11
112.201
 21
9.63936
  0
LINE
  8
0
 10
112.201
 20
9.63936
 11
112.816
 21
9.95309
  0
LINE
  8
0
 10
112.816
 20
9.95309
 11
113.451
 21
10.2275
  0
LINE
  8
0
 10
113.451
 20
10.2275
 11
114.101
 21
10.4616
  0
LINE
  8
0
 10
114.101
 20
10.4616
 11
114.764
 21
10.6544
  0
LINE
  8
0
 10
114.764
 20
10.6544
 11
115.439
 21
10.8051
  0
LINE
  8
0
 10
115.439
 20
10.8051
 11
116.121
 21
10.9133
  0
LINE
  8
0
 10
116.121
 20
10.9133
 11
116.809
 21
10.9783
  0
LINE
  8
0
 10
116.809
 20
10.9783
 11
117.5
 21
11
  0
LINE
  8
0
 10
117.5
 20
11
 11
118.191
 21
10.9783
  0
LINE
  8
0
 10
118.191
 20
10.9783
 11
118.879
 21
10.9133
  0
LINE
  8
0
 10
118.879
 20
10.9133
 11
119.561
 21
10.8051
  0
LINE
  8
0
 10
119.561
 20
10.8051
 11
120.236
 21
10.6544
  0
LINE
  8
0
 10
120.236
 20
10.6544
 11
120.899
 21
10.4616
  0
LINE
  8
0
 10
120.899
 20
10.4616
 11
121.549
 21
10.2275
  0
LINE
  8
0
 10
121.549
 20
10.2275
 11
122.184
 21
9.95309
  0
LINE
  8
0
 10
122.184
 20
9.95309
 11
122.799
 21
9.63936
  0
LINE
  8
0
 10
122.799
 20
9.63936
 11
123.394
 21
9.2876
  0
LINE
  8
0
 10
123.394
 20
9.2876
 11
123.966
 21
8.89919
  0
LINE
  8
0
 10
123.966
 20
8.89919
 11
124.512
 21
8.47563
  0
LINE
  8
0
 10
124.512
 20
8.47563
 11
125.03
 21
8.01865
  0
LINE
  8
0
 10
125.03
 20
8.01865
 11
125.519
 21
7.53001
  0
LINE
  8
0
 10
125.519
 20
7.53001
 11
125.976
 21
7.01166
  0
LINE
  8
0
 10
125.976
 20
7.01166
 11
126.399
 21
6.46564
  0
LINE
  8
0
 10
126.399
 20
6.46564
 11
126.788
 21
5.89409
  0
LINE
  8
0
 10
126.788
 20
5.89409
 11
127.139
 21
5.29929
  0
LINE
  8
0
 10
127.139
 20
5.29929
 11
127.453
 21
4.68356
  0
LINE
  8
0
 10
127.453
 20
4.68356
 11
127.728
 21
4.04936
  0
LINE
  8
0
 10
127.728
 20
4.04936
 11
127.962
 21
3.39919
  0
LINE
  8
0
 10
127.962
 20
3.39919
 11
128.154
 21
2.73558
  0
LINE
  8
0
 10
128.154
 20
2.73558
 11
128.305
 21
2.06119
  0
LINE
  8
0
 10
128.305
 20
2.06119
 11
128.413
 21
1.37866
  0
LINE
  8
0
 10
128.413
 20
1.37866
 11
128.478
 21
0.690689
  0
LINE
  8
0
 10
128.478
 20
0.690689
 11
128.5
 21
0
  0
LINE
  8
0
 10
128.5
 20
0
 11
128.478
 21
-0.690689
  0
LINE
  8
0
 10
128.478
 20
-0.690689
 11
128.413
 21
-1.37866
  0
LINE
  8
0
 10
128.413
 20
-1.37866
 11
128.305
 21
-2.06119
  0
LINE
  8
0
 10
128.305
 20
-2.06119
 11
128.154
 21
-2.73558
  0
LINE
  8
0
 10
128.154
 20
-2.73558
 11
127.962
 21
-3.39919
  0
LINE
  8
0
 10
127.962
 20
-3.39919
 11
127.728
 21
-4.04936
  0
LINE
  8
0
 10
127.728
 20
-4.04936
 11
127.453
 21
-4.68356
  0
LINE
  8
0
 10
127.453
 20
-4.68356
 11
127.139
 21
-5.29929
  0
LINE
  8
0
 10
127.139
 20
-5.29929
 11
126.788
 21
-5.89409
  0
LINE
  8
0
 10
126.788
 20
-5.89409
 11
126.399
 21
-6.46564
  0
LINE
  8
0
 10
126.399
 20
-6.46564
 11
125.976
 21
-7.01166
  0
LINE
  8
0
 10
125.976
 20
-7.01166
 11
125.519
 21
-7.53001
  0
LINE
  8
0
 10
125.519
 20
-7.53001
 11
125.03
 21
-8.01865
  0
LINE
  8
0
 10
125.03
 20
-8.01865
 11
124.512
 21
-8.47563
  0
LINE
  8
0
 10
124.512
 20
-8.47563
 11
123.966
 21
-8.89919
  0
LINE
  8
0
 10
123.966
 20
-8.89919
 11
123.394
 21
-9.2876
  0
LINE
  8
0
 10
123.394
 20
-9.2876
 11
122.799
 21
-9.63936
  0
LINE
  8
0
 10
122.799
 20
-9.63936
 11
122.184
 21
-9.95309
  0
LINE
  8
0
 10
122.184
 20
-9.95309
 11
121.549
 21
-10.2275
  0
LINE
  8
0
 10
121.549
 20
-10.2275
 11
120.899
 21
-10.4616
  0
LINE
  8
0
 10
120.899
 20
-10.4616
 11
120.236
 21
-10.6544
  0
LINE
  8
0
 10
120.236
 20
-10.6544
 11
119.561
 21
-10.8051
  0
LINE
  8
0
 10
119.561
 20
-10.8051
 11
118.879
 21
-10.9133
  0
LINE
  8
0
 10
118.879
 20
-10.9133
 11
118.191
 21
-10.9783
  0
LINE
  8
0
 10
118.191
 20
-10.9783
 11
117.5
 21
-11
  0
LINE
  8
0
 10
117.5
 20
-11
 11
116.809
 21
-10.9783
  0
LINE
  8
0
 10
-0.565109
 20
-8.98224
 11
-1.12799
 21
-8.92903
  0
LINE
  8
0
 10
-1.12799
 20
-8.92903
 11
-1.68642
 21
-8.84058
  0
LINE
  8
0
 10
-1.68642
 20
-8.84058
 11
-2.2382
 21
-8.71724
  0
LINE
  8
0
 10
-2.2382
 20
-8.71724
 11
-2.78114
 21
-8.55949
  0
LINE
  8
0
 10
-2.78114
 20
-8.55949
 11
-3.31311
 21
-8.36798
  0
LINE
  8
0
 10
-3.31311
 20
-8.36798
 11
-3.832
 21
-8.14343
  0
LINE
  8
0
 10
-3.832
 20
-8.14343
 11
-4.33577
 21
-7.88675
  0
LINE
  8
0
 10
-4.33577
 20
-7.88675
 11
-4.82243
 21
-7.59894
  0
LINE
  8
0
 10
-4.82243
 20
-7.59894
 11
-5.29005
 21
-7.28114
  0
LINE
  8
0
 10
-5.29005
 20
-7.28114
 11
-5.7368
 21
-6.93462
  0
LINE
  8
0
 10
-5.7368
 20
-6.93462
 11
-6.16092
 21
-6.56071
  0
LINE
  8
0
 10
-6.16092
 20
-6.56071
 11
-6.56071
 21
-6.16092
  0
LINE
  8
0
 10
-6.56071
 20
-6.16092
 11
-6.93462
 21
-5.7368
  0
LINE
  8
0
 10
-6.93462
 20
-5.7368
 11
-7.28114
 21
-5.29005
  0
LINE
  8
0
 10
-7.28114
 20
-5.29005
 11
-7.59894
 21
-4.82243
  0
LINE
  8
0
 10
-7.59894
 20
-4.82243
 11
-7.88675
 21
-4.33577
  0
LINE
  8
0
 10
-7.88675
 20
-4.33577
 11
-8.14343
 21
-3.832
  0
LINE
  8
0
 10
-8.14343
 20
-3.832
 11
-8.36798
 21
-3.31311
  0
LINE
  8
0
 10
-8.36798
 20
-3.31311
 11
-8.55949
 21
-2.78114
  0
LINE
  8
0
 10
-8.55949
 20
-2.78114
 11
-8.71724
 21
-2.2382
  0
LINE
  8
0
 10
-8.71724
 20
-2.2382
 11
-8.84058
 21
-1.68642
  0
LINE
  8
0
 10
-8.84058
 20
-1.68642
 11
-8.92903
 21
-1.12799
  0
LINE
  8
0
 10
-8.92903
 20
-1.12799
 11
-8.98224
 21
-0.565109
  0
LINE
  8
0
 10
-8.98224
 20
-0.565109
 11
-9
 21
0
  0
LINE
  8
0
 10
-9
 20
0
 11
-8.98224
 21
0.565109
  0
LINE
  8
0
 10
-8.98224
 20
0.565109
 11
-8.92903
 21
1.12799
  0
LINE
  8
0
 10
-8.92903
 20
1.12799
 11
-8.84058
 21
1.68642
  0
LINE
  8
0
 10
-8.84058
 20
1.68642
 11
-8.71724
 21
2.2382
  0
LINE
  8
0
 10
-8.71724
 20
2.2382
 11
-8.55949
 21
2.78114
  0
LINE
  8
0
 10
-8.55949
 20
2.78114
 11
-8.36798
 21
3.31311
  0
LINE
  8
0
 10
-8.36798
 20
3.31311
 11
-8.14343
 21
3.832
  0
LINE
  8
0
 10
-8.14343
 20
3.832
 11
-7.88675
 21
4.33577
  0
LINE
  8
0
 10
-7.88675
 20
4.33577
 11
-7.59894
 21
4.82243
  0
LINE
  8
0
 10
-7.59894
 20
4.82243
 11
-7.28114
 21
5.29005
  0
LINE
  8
0
 10
-7.28114
 20
5.29005
 11
-6.93462
 21
5.7368
  0
LINE
  8
0
 10
-6.93462
 20
5.7368
 11
-6.56071
 21
6.16092
  0
LINE
  8
0
 10
-6.56071
 20
6.16092
 11
-6.16092
 21
6.56071
  0
LINE
  8
0
 10
-6.16092
 20
6.56071
 11
-5.7368
 21
6.93462
  0
LINE
  8
0
 10
-5.7368
 20
6.93462
 11
-5.29005
 21
7.28114
  0
LINE
  8
0
 10
-5.29005
 20
7.28114
 11
-4.82243
 21
7.59894
  0
LINE
  8
0
 10
-4.82243
 20
7.59894
 11
-4.33577
 21
7.88675
  0
LINE
  8
0
 10
-4.33577
 20
7.88675
 11
-3.832
 21
8.14343
  0
LINE
  8
0
 10
-3.832
 20
8.14343
 11
-3.31311
 21
8.36798
  0
LINE
  8
0
 10
-3.31311
 20
8.36798
 11
-2.78114
 21
8.55949
  0
LINE
  8
0
 10
-2.78114
 20
8.55949
 11
-2.2382
 21
8.71724
  0
LINE
  8
0
 10
-2.2382
 20
8.71724
 11
-1.68642
 21
8.84058
  0
LINE
  8
0
 10
-1.68642
 20
8.84058
 11
-1.12799
 21
8.92903
  0
LINE
  8
0
 10
-1.12799
 20
8.92903
 11
-0.565109
 21
8.98224
  0
LINE
  8
0
 10
-0.565109
 20
8.98224
 11
0
 21
9
  0
LINE
  8
0
 10
0
 20
9
 11
0.565109
 21
8.98224
  0
LINE
  8
0
 10
0.565109
 20
8.98224
 11
1.12799
 21
8.92903
  0
LINE
  8
0
 10
1.12799
 20
8.92903
 11
1.68642
 21
8.84058
  0
LINE
  8
0
 10
1.68642
 20
8.84058
 11
2.2382
 21
8.71724
  0
LINE
  8
0
 10
2.2382
 20
8.71724
 11
2.78114
 21
8.55949
  0
LINE
  8
0
 10
2.78114
 20
8.55949
 11
3.31311
 21
8.36798
  0
LINE
  8
0
 10
3.31311
 20
8.36798
 11
3.832
 21
8.14343
  0
LINE
  8
0
 10
3.832
 20
8.14343
 11
4.33577
 21
7.88675
  0
LINE
  8
0
 10
4.33577
 20
7.88675
 11
4.82243
 21
7.59894
  0
LINE
  8
0
 10
4.82243
 20
7.59894
 11
5.29005
 21
7.28114
  0
LINE
  8
0
 10
5.29005
 20
7.28114
 11
5.7368
 21
6.93462
  0
LINE
  8
0
 10
5.7368
 20
6.93462
 11
6.16092
 21
6.56071
  0
LINE
  8
0
 10
6.16092
 20
6.56071
 11
6.56071
 21
6.16092
  0
LINE
  8
0
 10
6.56071
 20
6.16092
 11
6.93462
 21
5.7368
  0
LINE
  8
0
 10
6.93462
 20
5.7368
 11
7.28114
 21
5.29005
  0
LINE
  8
0
 10
7.28114
 20
5.29005
 11
7.59894
 21
4.82243
  0
LINE
  8
0
 10
7.59894
 20
4.82243
 11
7.88675
 21
4.33577
  0
LINE
  8
0
 10
7.88675
 20
4.33577
 11
8.14343
 21
3.832
  0
LINE
  8
0
 10
8.14343
 20
3.832
 11
8.36798
 21
3.31311
  0
LINE
  8
0
 10
8.36798
 20
3.31311
 11
8.55949
 21
2.78114
  0
LINE
  8
0
 10
8.55949
 20
2.78114
 11
8.71724
 21
2.2382
  0
LINE
  8
0
 10
8.71724
 20
2.2382
 11
8.84058
 21
1.68642
  0
LINE
  8
0
 10
8.84058
 20
1.68642
 11
8.92903
 21
1.12799
  0
LINE
  8
0
 10
8.92903
 20
1.12799
 11
8.98224
 21
0.565109
  0
LINE
  8
0
 10
8.98224
 20
0.565109
 11
9
 21
0
  0
LINE
  8
0
 10
9
 20
0
 11
8.98224
 21
-0.565109
  0
LINE
  8
0
 10
8.98224
 20
-0.565109
 11
8.92903
 21
-1.12799
  0
LINE
  8
0
 10
8.92903
 20
-1.12799
 11
8.84058
 21
-1.68642
  0
LINE
  8
0
 10
8.84058
 20
-1.68642
 11
8.71724
 21
-2.2382
  0
LINE
  8
0
 10
8.71724
 20
-2.2382
 11
8.55949
 21
-2.78114
  0
LINE
  8
0
 10
8.55949
 20
-2.78114
 11
8.36798
 21
-3.31311
  0
LINE
  8
0
 10
8.36798
 20
-3.31311
 11
8.14343
 21
-3.832
  0
LINE
  8
0
 10
8.14343
 20
-3.832
 11
7.88675
 21
-4.33577
  0
LINE
  8
0
 10
7.88675
 20
-4.33577
 11
7.59894
 21
-4.82243
  0
LINE
  8
0
 10
7.59894
 20
-4.82243
 11
7.28114
 21
-5.29005
  0
LINE
  8
0
 10
7.28114
 20
-5.29005
 11
6.93462
 21
-5.7368
  0
LINE
  8
0
 10
6.93462
 20
-5.7368
 11
6.56071
 21
-6.16092
  0
LINE
  8
0
 10
6.56071
 20
-6.16092
 11
6.16092
 21
-6.56071
  0
LINE
  8
0
 10
6.16092
 20
-6.56071
 11
5.7368
 21
-6.93462
  0
LINE
  8
0
 10
5.7368
 20
-6.93462
 11
5.29005
 21
-7.28114
  0
LINE
  8
0
 10
5.29005
 20
-7.28114
 11
4.82243
 21
-7.59894
  0
LINE
  8
0
 10
4.82243
 20
-7.59894
 11
4.33577
 21
-7.88675
  0
LINE
  8
0
 10
4.33577
 20
-7.88675
 11
3.832
 21
-8.14343
  0
LINE
  8
0
 10
3.832
 20
-8.14343
 11
3.31311
 21
-8.36798
  0
LINE
  8
0
 10
3.31311
 20
-8.36798
 11
2.78114
 21
-8.55949
  0
LINE
  8
0
 10
2.78114
 20
-8.55949
 11
2.2382
 21
-8.71724
  0
LINE
  8
0
 10
2.2382
 20
-8.71724
 11
1.68642
 21
-8.84058
  0
LINE
  8
0
 10
1.68642
 20
-8.84058
 11
1.12799
 21
-8.92903
  0
LINE
  8
0
 10
1.12799
 20
-8.92903
 11
0.565109
 21
-8.98224
  0
LINE
  8
0
 10
0.565109
 20
-8.98224
 11
0
 21
-9
  0
LINE
  8
0
 10
0
 20
-9
 11
-0.565109
 21
-8.98224
  0
LINE
  8
0
 10
-195.129
 20
-2.04594
 11
-195.257
 21
-2.03383
  0
LINE
  8
0
 10
-195.257
 20
-2.03383
 11
-195.384
 21
-2.01369
  0
LINE
  8
0
 10
-195.384
 20
-2.01369
 11
-195.51
 21
-1.98558
  0
LINE
  8
0
 10
-195.51
 20
-1.98558
 11
-195.633
 21
-1.94966
  0
LINE
  8
0
 10
-195.633
 20
-1.94966
 11
-195.755
 21
-1.90604
  0
LINE
  8
0
 10
-195.755
 20
-1.90604
 11
-195.873
 21
-1.85489
  0
LINE
  8
0
 10
-195.873
 20
-1.85489
 11
-195.988
 21
-1.79642
  0
LINE
  8
0
 10
-195.988
 20
-1.79642
 11
-196.098
 21
-1.73087
  0
LINE
  8
0
 10
-196.098
 20
-1.73087
 11
-196.205
 21
-1.65848
  0
LINE
  8
0
 10
-196.205
 20
-1.65848
 11
-196.307
 21
-1.57954
  0
LINE
  8
0
 10
-196.307
 20
-1.57954
 11
-196.403
 21
-1.49438
  0
LINE
  8
0
 10
-196.403
 20
-1.49438
 11
-196.494
 21
-1.40332
  0
LINE
  8
0
 10
-196.494
 20
-1.40332
 11
-196.58
 21
-1.30672
  0
LINE
  8
0
 10
-196.58
 20
-1.30672
 11
-196.658
 21
-1.20496
  0
LINE
  8
0
 10
-196.658
 20
-1.20496
 11
-196.731
 21
-1.09843
  0
LINE
  8
0
 10
-196.731
 20
-1.09843
 11
-196.796
 21
-0.987595
  0
LINE
  8
0
 10
-196.796
 20
-0.987595
 11
-196.855
 21
-0.872833
  0
LINE
  8
0
 10
-196.855
 20
-0.872833
 11
-196.906
 21
-0.754654
  0
LINE
  8
0
 10
-196.906
 20
-0.754654
 11
-196.95
 21
-0.633484
  0
LINE
  8
0
 10
-196.95
 20
-0.633484
 11
-196.986
 21
-0.509811
  0
LINE
  8
0
 10
-196.986
 20
-0.509811
 11
-197.014
 21
-0.384125
  0
LINE
  8
0
 10
-197.014
 20
-0.384125
 11
-197.034
 21
-0.256927
  0
LINE
  8
0
 10
-197.034
 20
-0.256927
 11
-197.046
 21
-0.128708
  0
LINE
  8
0
 10
-197.046
 20
-0.128708
 11
-197.05
 21
0
  0
LINE
  8
0
 10
-197.05
 20
0
 11
-197.046
 21
0.128708
  0
LINE
  8
0
 10
-197.046
 20
0.128708
 11
-197.034
 21
0.256927
  0
LINE
  8
0
 10
-197.034
 20
0.256927
 11
-197.014
 21
0.384125
  0
LINE
  8
0
 10
-197.014
 20
0.384125
 11
-196.986
 21
0.509811
  0
LINE
  8
0
 10
-196.986
 20
0.509811
 11
-196.95
 21
0.633484
  0
LINE
  8
0
 10
-196.95
 20
0.633484
 11
-196.906
 21
0.754654
  0
LINE
  8
0
 10
-196.906
 20
0.754654
 11
-196.855
 21
0.872833
  0
LINE
  8
0
 10
-196.855
 20
0.872833
 11
-196.796
 21
0.987595
  0
LINE
  8
0
 10
-196.796
 20
0.987595
 11
-196.731
 21
1.09843
  0
LINE
  8
0
 10
-196.731
 20
1.09843
 11
-196.658
 21
1.20496
  0
LINE
  8
0
 10
-196.658
 20
1.20496
 11
-196.58
 21
1.30672
  0
LINE
  8
0
 10
-196.58
 20
1.30672
 11
-196.494
 21
1.40332
  0
LINE
  8
0
 10
-196.494
 20
1.40332
 11
-196.403
 21
1.49438
  0
LINE
  8
0
 10
-196.403
 20
1.49438
 11
-196.307
 21
1.57954
  0
LINE
  8
0
 10
-196.307
 20
1.57954
 11
-196.205
 21
1.65848
  0
LINE
  8
0
 10
-196.205
 20
1.65848
 11
-196.098
 21
1.73087
  0
LINE
  8
0
 10
-196.098
 20
1.73087
 11
-195.988
 21
1.79642
  0
LINE
  8
0
 10
-195.988
 20
1.79642
 11
-195.873
 21
1.85489
  0
LINE
  8
0
 10
-195.873
 20
1.85489
 11
-195.755
 21
1.90604
  0
LINE
  8
0
 10
-195.755
 20
1.90604
 11
-195.633
 21
1.94966
  0
LINE
  8
0
 10
-195.633
 20
1.94966
 11
-195.51
 21
1.98558
  0
LINE
  8
0
 10
-195.51
 20
1.98558
 11
-195.384
 21
2.01369
  0
LINE
  8
0
 10
-195.384
 20
2.01369
 11
-195.257
 21
2.03383
  0
LINE
  8
0
 10
-195.257
 20
2.03383
 11
-195.129
 21
2.04594
  0
LINE
  8
0
 10
-195.129
 20
2.04594
 11
-195
 21
2.04999
  0
LINE
  8
0
 10
-195
 20
2.04999
 11
-194.871
 21
2.04594
  0
LINE
  8
0
 10
-194.871
 20
2.04594
 11
-194.743
 21
2.03383
  0
LINE
  8
0
 10
-194.743
 20
2.03383
 11
-194.616
 21
2.01369
  0
LINE
  8
0
 10
-194.616
 20
2.01369
 11
-194.49
 21
1.98558
  0
LINE
  8
0
 10
-194.49
 20
1.98558
 11
-194.367
 21
1.94966
  0
LINE
  8
0
 10
-194.367
 20
1.94966
 11
-194.245
 21
1.90604
  0
LINE
  8
0
 10
-194.245
 20
1.90604
 11
-194.127
 21
1.85489
  0
LINE
  8
0
 10
-194.127
 20
1.85489
 11
-194.012
 21
1.79642
  0
LINE
  8
0
 10
-194.012
 20
1.79642
 11
-193.902
 21
1.73087
  0
LINE
  8
0
 10
-193.902
 20
1.73087
 11
-193.795
 21
1.65848
  0
LINE
  8
0
 10
-193.795
 20
1.65848
 11
-193.693
 21
1.57954
  0
LINE
  8
0
 10
-193.693
 20
1.57954
 11
-193.597
 21
1.49438
  0
LINE
  8
0
 10
-193.597
 20
1.49438
 11
-193.506
 21
1.40332
  0
LINE
  8
0
 10
-193.506
 20
1.40332
 11
-193.42
 21
1.30672
  0
LINE
  8
0
 10
-193.42
 20
1.30672
 11
-193.342
 21
1.20496
  0
LINE
  8
0
 10
-193.342
 20
1.20496
 11
-193.269
 21
1.09843
  0
LINE
  8
0
 10
-193.269
 20
1.09843
 11
-193.204
 21
0.987595
  0
LINE
  8
0
 10
-193.204
 20
0.987595
 11
-193.145
 21
0.872833
  0
LINE
  8
0
 10
-193.145
 20
0.872833
 11
-193.094
 21
0.754654
  0
LINE
  8
0
 10
-193.094
 20
0.754654
 11
-193.05
 21
0.633484
  0
LINE
  8
0
 10
-193.05
 20
0.633484
 11
-193.014
 21
0.509811
  0
LINE
  8
0
 10
-193.014
 20
0.509811
 11
-192.986
 21
0.384125
  0
LINE
  8
0
 10
-192.986
 20
0.384125
 11
-192.966
 21
0.256927
  0
LINE
  8
0
 10
-192.966
 20
0.256927
 11
-192.954
 21
0.128708
  0
LINE
  8
0
 10
-192.954
 20
0.128708
 11
-192.95
 21
0
  0
LINE
  8
0
 10
-192.95
 20
0
 11
-192.954
 21
-0.128708
  0
LINE
  8
0
 10
-192.954
 20
-0.128708
 11
-192.966
 21
-0.256927
  0
LINE
  8
0
 10
-192.966
 20
-0.256927
 11
-192.986
 21
-0.384125
  0
LINE
  8
0
 10
-192.986
 20
-0.384125
 11
-193.014
 21
-0.509811
  0
LINE
  8
0
 10
-193.014
 20
-0.509811
 11
-193.05
 21
-0.633484
  0
LINE
  8
0
 10
-193.05
 20
-0.633484
 11
-193.094
 21
-0.754654
  0
LINE
  8
0
 10
-193.094
 20
-0.754654
 11
-193.145
 21
-0.872833
  0
LINE
  8
0
 10
-193.145
 20
-0.872833
 11
-193.204
 21
-0.987595
  0
LINE
  8
0
 10
-193.204
 20
-0.987595
 11
-193.269
 21
-1.09843
  0
LINE
  8
0
 10
-193.269
 20
-1.09843
 11
-193.342
 21
-1.20496
  0
LINE
  8
0
 10
-193.342
 20
-1.20496
 11
-193.42
 21
-1.30672
  0
LINE
  8
0
 10
-193.42
 20
-1.30672
 11
-193.506
 21
-1.40332
  0
LINE
  8
0
 10
-193.506
 20
-1.40332
 11
-193.597
 21
-1.49438
  0
LINE
  8
0
 10
-193.597
 20
-1.49438
 11
-193.693
 21
-1.57954
  0
LINE
  8
0
 10
-193.693
 20
-1.57954
 11
-193.795
 21
-1.65848
  0
LINE
  8
0
 10
-193.795
 20
-1.65848
 11
-193.902
 21
-1.73087
  0
LINE
  8
0
 10
-193.902
 20
-1.73087
 11
-194.012
 21
-1.79642
  0
LINE
  8
0
 10
-194.012
 20
-1.79642
 11
-194.127
 21
-1.85489
  0
LINE
  8
0
 10
-194.127
 20
-1.85489
 11
-194.245
 21
-1.90604
  0
LINE
  8
0
 10
-194.245
 20
-1.90604
 11
-194.367
 21
-1.94966
  0
LINE
  8
0
 10
-194.367
 20
-1.94966
 11
-194.49
 21
-1.98558
  0
LINE
  8
0
 10
-194.49
 20
-1.98558
 11
-194.616
 21
-2.01369
  0
LINE
  8
0
 10
-194.616
 20
-2.01369
 11
-194.743
 21
-2.03383
  0
LINE
  8
0
 10
-194.743
 20
-2.03383
 11
-194.871
 21
-2.04594
  0
LINE
  8
0
 10
-194.871
 20
-2.04594
 11
-195
 21
-2.04999
  0
LINE
  8
0
 10
-195
 20
-2.04999
 11
-195.129
 21
-2.04594
  0
LINE
  8
0
 10
194.871
 20
-2.04594
 11
194.743
 21
-2.03383
  0
LINE
  8
0
 10
194.743
 20
-2.03383
 11
194.616
 21
-2.01369
  0
LINE
  8
0
 10
194.616
 20
-2.01369
 11
194.49
 21
-1.98558
  0
LINE
  8
0
 10
194.49
 20
-1.98558
 11
194.367
 21
-1.94966
  0
LINE
  8
0
 10
194.367
 20
-1.94966
 11
194.245
 21
-1.90604
  0
LINE
  8
0
 10
194.245
 20
-1.90604
 11
194.127
 21
-1.85489
  0
LINE
  8
0
 10
194.127
 20
-1.85489
 11
194.012
 21
-1.79642
  0
LINE
  8
0
 10
194.012
 20
-1.79642
 11
193.902
 21
-1.73087
  0
LINE
  8
0
 10
193.902
 20
-1.73087
 11
193.795
 21
-1.65848
  0
LINE
  8
0
 10
193.795
 20
-1.65848
 11
193.693
 21
-1.57954
  0
LINE
  8
0
 10
193.693
 20
-1.57954
 11
193.597
 21
-1.49438
  0
LINE
  8
0
 10
193.597
 20
-1.49438
 11
193.506
 21
-1.40332
  0
LINE
  8
0
 10
193.506
 20
-1.40332
 11
193.42
 21
-1.30672
  0
LINE
  8
0
 10
193.42
 20
-1.30672
 11
193.342
 21
-1.20496
  0
LINE
  8
0
 10
193.342
 20
-1.20496
 11
193.269
 21
-1.09843
  0
LINE
  8
0
 10
193.269
 20
-1.09843
 11
193.204
 21
-0.987595
  0
LINE
  8
0
 10
193.204
 20
-0.987595
 11
193.145
 21
-0.872833
  0
LINE
  8
0
 10
193.145
 20
-0.872833
 11
193.094
 21
-0.754654
  0
LINE
  8
0
 10
193.094
 20
-0.754654
 11
193.05
 21
-0.633484
  0
LINE
  8
0
 10
193.05
 20
-0.633484
 11
193.014
 21
-0.509811
  0
LINE
  8
0
 10
193.014
 20
-0.509811
 11
192.986
 21
-0.384125
  0
LINE
  8
0
 10
192.986
 20
-0.384125
 11
192.966
 21
-0.256927
  0
LINE
  8
0
 10
192.966
 20
-0.256927
 11
192.954
 21
-0.128708
  0
LINE
  8
0
 10
192.954
 20
-0.128708
 11
192.95
 21
0
  0
LINE
  8
0
 10
192.95
 20
0
 11
192.954
 21
0.128708
  0
LINE
  8
0
 10
192.954
 20
0.128708
 11
192.966
 21
0.256927
  0
LINE
  8
0
 10
192.966
 20
0.256927
 11
192.986
 21
0.384125
  0
LINE
  8
0
 10
192.986
 20
0.384125
 11
193.014
 21
0.509811
  0
LINE
  8
0
 10
193.014
 20
0.509811
 11
193.05
 21
0.633484
  0
LINE
  8
0
 10
193.05
 20
0.633484
 11
193.094
 21
0.754654
  0
LINE
  8
0
 10
193.094
 20
0.754654
 11
193.145
 21
0.872833
  0
LINE
  8
0
 10
193.145
 20
0.872833
 11
193.204
 21
0.987595
  0
LINE
  8
0
 10
193.204
 20
0.987595
 11
193.269
 21
1.09843
  0
LINE
  8
0
 10
193.269
 20
1.09843
 11
193.342
 21
1.20496
  0
LINE
  8
0
 10
193.342
 20
1.20496
 11
193.42
 21
1.30672
  0
LINE
  8
0
 10
193.42
 20
1.30672
 11
193.506
 21
1.40332
  0
LINE
  8
0
 10
193.506
 20
1.40332
 11
193.597
 21
1.49438
  0
LINE
  8
0
 10
193.597
 20
1.49438
 11
193.693
 21
1.57954
  0
LINE
  8
0
 10
193.693
 20
1.57954
 11
193.795
 21
1.65848
  0
LINE
  8
0
 10
193.795
 20
1.65848
 11
193.902
 21
1.73087
  0
LINE
  8
0
 10
193.902
 20
1.73087
 11
194.012
 21
1.79642
  0
LINE
  8
0
 10
194.012
 20
1.79642
 11
194.127
 21
1.85489
  0
LINE
  8
0
 10
194.127
 20
1.85489
 11
194.245
 21
1.90604
  0
LINE
  8
0
 10
194.245
 20
1.90604
 11
194.367
 21
1.94966
  0
LINE
  8
0
 10
194.367
 20
1.94966
 11
194.49
 21
1.98558
  0
LINE
  8
0
 10
194.49
 20
1.98558
 11
194.616
 21
2.01369
  0
LINE
  8
0
 10
194.616
 20
2.01369
 11
194.743
 21
2.03383
  0
LINE
  8
0
 10
194.743
 20
2.03383
 11
194.871
 21
2.04594
  0
LINE
  8
0
 10
194.871
 20
2.04594
 11
195
 21
2.04999
  0
LINE
  8
0
 10
195
 20
2.04999
 11
195.129
 21
2.04594
  0
LINE
  8
0
 10
195.129
 20
2.04594
 11
195.257
 21
2.03383
  0
LINE
  8
0
 10
195.257
 20
2.03383
 11
195.384
 21
2.01369
  0
LINE
  8
0
 10
195.384
 20
2.01369
 11
195.51
 21
1.98558
  0
LINE
  8
0
 10
195.51
 20
1.98558
 11
195.633
 21
1.94966
  0
LINE
  8
0
 10
195.633
 20
1.94966
 11
195.755
 21
1.90604
  0
LINE
  8
0
 10
195.755
 20
1.90604
 11
195.873
 21
1.85489
  0
LINE
  8
0
 10
195.873
 20
1.85489
 11
195.988
 21
1.79642
  0
LINE
  8
0
 10
195.988
 20
1.79642
 11
196.098
 21
1.73087
  0
LINE
  8
0
 10
196.098
 20
1.73087
 11
196.205
 21
1.65848
  0
LINE
  8
0
 10
196.205
 20
1.65848
 11
196.307
 21
1.57954
  0
LINE
  8
0
 10
196.307
 20
1.57954
 11
196.403
 21
1.49438
  0
LINE
  8
0
 10
196.403
 20
1.49438
 11
196.494
 21
1.40332
  0
LINE
  8
0
 10
196.494
 20
1.40332
 11
196.58
 21
1.30672
  0
LINE
  8
0
 10
196.58
 20
1.30672
 11
196.658
 21
1.20496
  0
LINE
  8
0
 10
196.658
 20
1.20496
 11
196.731
 21
1.09843
  0
LINE
  8
0
 10
196.731
 20
1.09843
 11
196.796
 21
0.987595
  0
LINE
  8
0
 10
196.796
 20
0.987595
 11
196.855
 21
0.872833
  0
LINE
  8
0
 10
196.855
 20
0.872833
 11
196.906
 21
0.754654
  0
LINE
  8
0
 10
196.906
 20
0.754654
 11
196.95
 21
0.633484
  0
LINE
  8
0
 10
196.95
 20
0.633484
 11
196.986
 21
0.509811
  0
LINE
  8
0
 10
196.986
 20
0.509811
 11
197.014
 21
0.384125
  0
LINE
  8
0
 10
197.014
 20
0.384125
 11
197.034
 21
0.256927
  0
LINE
  8
0
 10
197.034
 20
0.256927
 11
197.046
 21
0.128708
  0
LINE
  8
0
 10
197.046
 20
0.128708
 11
197.05
 21
0
  0
LINE
  8
0
 10
197.05
 20
0
 11
197.046
 21
-0.128708
  0
LINE
  8
0
 10
197.046
 20
-0.128708
 11
197.034
 21
-0.256927
  0
LINE
  8
0
 10
197.034
 20
-0.256927
 11
197.014
 21
-0.384125
  0
LINE
  8
0
 10
197.014
 20
-0.384125
 11
196.986
 21
-0.509811
  0
LINE
  8
0
 10
196.986
 20
-0.509811
 11
196.95
 21
-0.633484
  0
LINE
  8
0
 10
196.95
 20
-0.633484
 11
196.906
 21
-0.754654
  0
LINE
  8
0
 10
196.906
 20
-0.754654
 11
196.855
 21
-0.872833
  0
LINE
  8
0
 10
196.855
 20
-0.872833
 11
196.796
 21
-0.987595
  0
LINE
  8
0
 10
196.796
 20
-0.987595
 11
196.731
 21
-1.09843
  0
LINE
  8
0
 10
196.731
 20
-1.09843
 11
196.658
 21
-1.20496
  0
LINE
  8
0
 10
196.658
 20
-1.20496
 11
196.58
 21
-1.30672
  0
LINE
  8
0
 10
196.58
 20
-1.30672
 11
196.494
 21
-1.40332
  0
LINE
  8
0
 10
196.494
 20
-1.40332
 11
196.403
 21
-1.49438
  0
LINE
  8
0
 10
196.403
 20
-1.49438
 11
196.307
 21
-1.57954
  0
LINE
  8
0
 10
196.307
 20
-1.57954
 11
196.205
 21
-1.65848
  0
LINE
  8
0
 10
196.205
 20
-1.65848
 11
196.098
 21
-1.73087
  0
LINE
  8
0
 10
196.098
 20
-1.73087
 11
195.988
 21
-1.79642
  0
LINE
  8
0
 10
195.988
 20
-1.79642
 11
195.873
 21
-1.85489
  0
LINE
  8
0
 10
195.873
 20
-1.85489
 11
195.755
 21
-1.90604
  0
LINE
  8
0
 10
195.755
 20
-1.90604
 11
195.633
 21
-1.94966
  0
LINE
  8
0
 10
195.633
 20
-1.94966
 11
195.51
 21
-1.98558
  0
LINE
  8
0
 10
195.51
 20
-1.98558
 11
195.384
 21
-2.01369
  0
LINE
  8
0
 10
195.384
 20
-2.01369
 11
195.257
 21
-2.03383
  0
LINE
  8
0
 10
195.257
 20
-2.03383
 11
195.129
 21
-2.04594
  0
LINE
  8
0
 10
195.129
 20
-2.04594
 11
195
 21
-2.04999
  0
LINE
  8
0
 10
195
 20
-2.04999
 11
194.871
 21
-2.04594
  0
LINE
  8
0
 10
19.8713
 20
-22.0459
 11
19.7431
 21
-22.0338
  0
LINE
  8
0
 10
19.7431
 20
-22.0338
 11
19.6159
 21
-22.0137
  0
LINE
  8
0
 10
19.6159
 20
-22.0137
 11
19.4902
 21
-21.9856
  0
LINE
  8
0
 10
19.4902
 20
-21.9856
 11
19.3665
 21
-21.9497
  0
LINE
  8
0
 10
19.3665
 20
-21.9497
 11
19.2453
 21
-21.906
  0
LINE
  8
0
 10
19.2453
 20
-21.906
 11
19.1272
 21
-21.8549
  0
LINE
  8
0
 10
19.1272
 20
-21.8549
 11
19.0124
 21
-21.7964
  0
LINE
  8
0
 10
19.0124
 20
-21.7964
 11
18.9016
 21
-21.7309
  0
LINE
  8
0
 10
18.9016
 20
-21.7309
 11
18.795
 21
-21.6585
  0
LINE
  8
0
 10
18.795
 20
-21.6585
 11
18.6933
 21
-21.5795
  0
LINE
  8
0
 10
18.6933
 20
-21.5795
 11
18.5967
 21
-21.4944
  0
LINE
  8
0
 10
18.5967
 20
-21.4944
 11
18.5056
 21
-21.4033
  0
LINE
  8
0
 10
18.5056
 20
-21.4033
 11
18.4204
 21
-21.3067
  0
LINE
  8
0
 10
18.4204
 20
-21.3067
 11
18.3415
 21
-21.205
  0
LINE
  8
0
 10
18.3415
 20
-21.205
 11
18.2691
 21
-21.0984
  0
LINE
  8
0
 10
18.2691
 20
-21.0984
 11
18.2036
 21
-20.9876
  0
LINE
  8
0
 10
18.2036
 20
-20.9876
 11
18.1451
 21
-20.8728
  0
LINE
  8
0
 10
18.1451
 20
-20.8728
 11
18.0939
 21
-20.7547
  0
LINE
  8
0
 10
18.0939
 20
-20.7547
 11
18.0503
 21
-20.6335
  0
LINE
  8
0
 10
18.0503
 20
-20.6335
 11
18.0144
 21
-20.5098
  0
LINE
  8
0
 10
18.0144
 20
-20.5098
 11
17.9863
 21
-20.3841
  0
LINE
  8
0
 10
17.9863
 20
-20.3841
 11
17.9662
 21
-20.2569
  0
LINE
  8
0
 10
17.9662
 20
-20.2569
 11
17.954
 21
-20.1287
  0
LINE
  8
0
 10
17.954
 20
-20.1287
 11
17.95
 21
-20
  0
LINE
  8
0
 10
17.95
 20
-20
 11
17.954
 21
-19.8713
  0
LINE
  8
0
 10
17.954
 20
-19.8713
 11
17.9662
 21
-19.7431
  0
LINE
  8
0
 10
17.9662
 20
-19.7431
 11
17.9863
 21
-19.6159
  0
LINE
  8
0
 10
17.9863
 20
-19.6159
 11
18.0144
 21
-19.4902
  0
LINE
  8
0
 10
18.0144
 20
-19.4902
 11
18.0503
 21
-19.3665
  0
LINE
  8
0
 10
18.0503
 20
-19.3665
 11
18.0939
 21
-19.2453
  0
LINE
  8
0
 10
18.0939
 20
-19.2453
 11
18.1451
 21
-19.1272
  0
LINE
  8
0
 10
18.1451
 20
-19.1272
 11
18.2036
 21
-19.0124
  0
LINE
  8
0
 10
18.2036
 20
-19.0124
 11
18.2691
 21
-18.9016
  0
LINE
  8
0
 10
18.2691
 20
-18.9016
 11
18.3415
 21
-18.795
  0
LINE
  8
0
 10
18.3415
 20
-18.795
 11
18.4204
 21
-18.6933
  0
LINE
  8
0
 10
18.4204
 20
-18.6933
 11
18.5056
 21
-18.5967
  0
LINE
  8
0
 10
18.5056
 20
-18.5967
 11
18.5967
 21
-18.5056
  0
LINE
  8
0
 10
18.5967
 20
-18.5056
 11
18.6933
 21
-18.4204
  0
LINE
  8
0
 10
18.6933
 20
-18.4204
 11
18.795
 21
-18.3415
  0
LINE
  8
0
 10
18.795
 20
-18.3415
 11
18.9016
 21
-18.2691
  0
LINE
  8
0
 10
18.9016
 20
-18.2691
 11
19.0124
 21
-18.2036
  0
LINE
  8
0
 10
19.0124
 20
-18.2036
 11
19.1272
 21
-18.1451
  0
LINE
  8
0
 10
19.1272
 20
-18.1451
 11
19.2453
 21
-18.0939
  0
LINE
  8
0
 10
19.2453
 20
-18.0939
 11
19.3665
 21
-18.0503
  0
LINE
  8
0
 10
19.3665
 20
-18.0503
 11
19.4902
 21
-18.0144
  0
LINE
  8
0
 10
19.4902
 20
-18.0144
 11
19.6159
 21
-17.9863
  0
LINE
  8
0
 10
19.6159
 20
-17.9863
 11
19.7431
 21
-17.9662
  0
LINE
  8
0
 10
19.7431
 20
-17.9662
 11
19.8713
 21
-17.954
  0
LINE
  8
0
 10
19.8713
 20
-17.954
 11
20
 21
-17.95
  0
LINE
  8
0
 10
20
 20
-17.95
 11
20.1287
 21
-17.954
  0
LINE
  8
0
 10
20.1287
 20
-17.954
 11
20.2569
 21
-17.9662
  0
LINE
  8
0
 10
20.2569
 20
-17.9662
 11
20.3841
 21
-17.9863
  0
LINE
  8
0
 10
20.3841
 20
-17.9863
 11
20.5098
 21
-18.0144
  0
LINE
  8
0
 10
20.5098
 20
-18.0144
 11
20.6335
 21
-18.0503
  0
LINE
  8
0
 10
20.6335
 20
-18.0503
 11
20.7547
 21
-18.0939
  0
LINE
  8
0
 10
20.7547
 20
-18.0939
 11
20.8728
 21
-18.1451
  0
LINE
  8
0
 10
20.8728
 20
-18.1451
 11
20.9876
 21
-18.2036
  0
LINE
  8
0
 10
20.9876
 20
-18.2036
 11
21.0984
 21
-18.2691
  0
LINE
  8
0
 10
21.0984
 20
-18.2691
 11
21.205
 21
-18.3415
  0
LINE
  8
0
 10
21.205
 20
-18.3415
 11
21.3067
 21
-18.4204
  0
LINE
  8
0
 10
21.3067
 20
-18.4204
 11
21.4033
 21
-18.5056
  0
LINE
  8
0
 10
21.4033
 20
-18.5056
 11
21.4944
 21
-18.5967
  0
LINE
  8
0
 10
21.4944
 20
-18.5967
 11
21.5795
 21
-18.6933
  0
LINE
  8
0
 10
21.5795
 20
-18.6933
 11
21.6585
 21
-18.795
  0
LINE
  8
0
 10
21.6585
 20
-18.795
 11
21.7309
 21
-18.9016
  0
LINE
  8
0
 10
21.7309
 20
-18.9016
 11
21.7964
 21
-19.0124
  0
LINE
  8
0
 10
21.7964
 20
-19.0124
 11
21.8549
 21
-19.1272
  0
LINE
  8
0
 10
21.8549
 20
-19.1272
 11
21.906
 21
-19.2453
  0
LINE
  8
0
 10
21.906
 20
-19.2453
 11
21.9497
 21
-19.3665
  0
LINE
  8
0
 10
21.9497
 20
-19.3665
 11
21.9856
 21
-19.4902
  0
LINE
  8
0
 10
21.9856
 20
-19.4902
 11
22.0137
 21
-19.6159
  0
LINE
  8
0
 10
22.0137
 20
-19.6159
 11
22.0338
 21
-19.7431
  0
LINE
  8
0
 10
22.0338
 20
-19.7431
 11
22.0459
 21
-19.8713
  0
LINE
  8
0
 10
22.0459
 20
-19.8713
 11
22.05
 21
-20
  0
LINE
  8
0
 10
22.05
 20
-20
 11
22.0459
 21
-20.1287
  0
LINE
  8
0
 10
22.0459
 20
-20.1287
 11
22.0338
 21
-20.2569
  0
LINE
  8
0
 10
22.0338
 20
-20.2569
 11
22.0137
 21
-20.3841
  0
LINE
  8
0
 10
22.0137
 20
-20.3841
 11
21.9856
 21
-20.5098
  0
LINE
  8
0
 10
21.9856
 20
-20.5098
 11
21.9497
 21
-20.6335
  0
LINE
  8
0
 10
21.9497
 20
-20.6335
 11
21.906
 21
-20.7547
  0
LINE
  8
0
 10
21.906
 20
-20.7547
 11
21.8549
 21
-20.8728
  0
LINE
  8
0
 10
21.8549
 20
-20.8728
 11
21.7964
 21
-20.9876
  0
LINE
  8
0
 10
21.7964
 20
-20.9876
 11
21.7309
 21
-21.0984
  0
LINE
  8
0
 10
21.7309
 20
-21.0984
 11
21.6585
 21
-21.205
  0
LINE
  8
0
 10
21.6585
 20
-21.205
 11
21.5795
 21
-21.3067
  0
LINE
  8
0
 10
21.5795
 20
-21.3067
 11
21.4944
 21
-21.4033
  0
LINE
  8
0
 10
21.4944
 20
-21.4033
 11
21.4033
 21
-21.4944
  0
LINE
  8
0
 10
21.4033
 20
-21.4944
 11
21.3067
 21
-21.5795
  0
LINE
  8
0
 10
21.3067
 20
-21.5795
 11
21.205
 21
-21.6585
  0
LINE
  8
0
 10
21.205
 20
-21.6585
 11
21.0984
 21
-21.7309
  0
LINE
  8
0
 10
21.0984
 20
-21.7309
 11
20.9876
 21
-21.7964
  0
LINE
  8
0
 10
20.9876
 20
-21.7964
 11
20.8728
 21
-21.8549
  0
LINE
  8
0
 10
20.8728
 20
-21.8549
 11
20.7547
 21
-21.906
  0
LINE
  8
0
 10
20.7547
 20
-21.906
 11
20.6335
 21
-21.9497
  0
LINE
  8
0
 10
20.6335
 20
-21.9497
 11
20.5098
 21
-21.9856
  0
LINE
  8
0
 10
20.5098
 20
-21.9856
 11
20.3841
 21
-22.0137
  0
LINE
  8
0
 10
20.3841
 20
-22.0137
 11
20.2569
 21
-22.0338
  0
LINE
  8
0
 10
20.2569
 20
-22.0338
 11
20.1287
 21
-22.0459
  0
LINE
  8
0
 10
20.1287
 20
-22.0459
 11
20
 21
-22.05
  0
LINE
  8
0
 10
20
 20
-22.05
 11
19.8713
 21
-22.0459
  0
LINE
  8
0
 10
-20.1287
 20
-22.0459
 11
-20.2569
 21
-22.0338
  0
LINE
  8
0
 10
-20.2569
 20
-22.0338
 11
-20.3841
 21
-22.0137
  0
LINE
  8
0
 10
-20.3841
 20
-22.0137
 11
-20.5098
 21
-21.9856
  0
LINE
  8
0
 10
-20.5098
 20
-21.9856
 11
-20.6335
 21
-21.9497
  0
LINE
  8
0
 10
-20.6335
 20
-21.9497
 11
-20.7547
 21
-21.906
  0
LINE
  8
0
 10
-20.7547
 20
-21.906
 11
-20.8728
 21
-21.8549
  0
LINE
  8
0
 10
-20.8728
 20
-21.8549
 11
-20.9876
 21
-21.7964
  0
LINE
  8
0
 10
-20.9876
 20
-21.7964
 11
-21.0984
 21
-21.7309
  0
LINE
  8
0
 10
-21.0984
 20
-21.7309
 11
-21.205
 21
-21.6585
  0
LINE
  8
0
 10
-21.205
 20
-21.6585
 11
-21.3067
 21
-21.5795
  0
LINE
  8
0
 10
-21.3067
 20
-21.5795
 11
-21.4033
 21
-21.4944
  0
LINE
  8
0
 10
-21.4033
 20
-21.4944
 11
-21.4944
 21
-21.4033
  0
LINE
  8
0
 10
-21.4944
 20
-21.4033
 11
-21.5795
 21
-21.3067
  0
LINE
  8
0
 10
-21.5795
 20
-21.3067
 11
-21.6585
 21
-21.205
  0
LINE
  8
0
 10
-21.6585
 20
-21.205
 11
-21.7309
 21
-21.0984
  0
LINE
  8
0
 10
-21.7309
 20
-21.0984
 11
-21.7964
 21
-20.9876
  0
LINE
  8
0
 10
-21.7964
 20
-20.9876
 11
-21.8549
 21
-20.8728
  0
LINE
  8
0
 10
-21.8549
 20
-20.8728
 11
-21.906
 21
-20.7547
  0
LINE
  8
0
 10
-21.906
 20
-20.7547
 11
-21.9497
 21
-20.6335
  0
LINE
  8
0
 10
-21.9497
 20
-20.6335
 11
-21.9856
 21
-20.5098
  0
LINE
  8
0
 10
-21.9856
 20
-20.5098
 11
-22.0137
 21
-20.3841
  0
LINE
  8
0
 10
-22.0137
 20
-20.3841
 11
-22.0338
 21
-20.2569
  0
LINE
  8
0
 10
-22.0338
 20
-20.2569
 11
-22.0459
 21
-20.1287
  0
LINE
  8
0
 10
-22.0459
 20
-20.1287
 11
-22.05
 21
-20
  0
LINE
  8
0
 10
-22.05
 20
-20
 11
-22.0459
 21
-19.8713
  0
LINE
  8
0
 10
-22.0459
 20
-19.8713
 11
-22.0338
 21
-19.7431
  0
LINE
  8
0
 10
-22.0338
 20
-19.7431
 11
-22.0137
 21
-19.6159
  0
LINE
  8
0
 10
-22.0137
 20
-19.6159
 11
-21.9856
 21
-19.4902
  0
LINE
  8
0
 10
-21.9856
 20
-19.4902
 11
-21.9497
 21
-19.3665
  0
LINE
  8
0
 10
-21.9497
 20
-19.3665
 11
-21.906
 21
-19.2453
  0
LINE
  8
0
 10
-21.906
 20
-19.2453
 11
-21.8549
 21
-19.1272
  0
LINE
  8
0
 10
-21.8549
 20
-19.1272
 11
-21.7964
 21
-19.0124
  0
LINE
  8
0
 10
-21.7964
 20
-19.0124
 11
-21.7309
 21
-18.9016
  0
LINE
  8
0
 10
-21.7309
 20
-18.9016
 11
-21.6585
 21
-18.795
  0
LINE
  8
0
 10
-21.6585
 20
-18.795
 11
-21.5795
 21
-18.6933
  0
LINE
  8
0
 10
-21.5795
 20
-18.6933
 11
-21.4944
 21
-18.5967
  0
LINE
  8
0
 10
-21.4944
 20
-18.5967
 11
-21.4033
 21
-18.5056
  0
LINE
  8
0
 10
-21.4033
 20
-18.5056
 11
-21.3067
 21
-18.4204
  0
LINE
  8
0
 10
-21.3067
 20
-18.4204
 11
-21.205
 21
-18.3415
  0
LINE
  8
0
 10
-21.205
 20
-18.3415
 11
-21.0984
 21
-18.2691
  0
LINE
  8
0
 10
-21.0984
 20
-18.2691
 11
-20.9876
 21
-18.2036
  0
LINE
  8
0
 10
-20.9876
 20
-18.2036
 11
-20.8728
 21
-18.1451
  0
LINE
  8
0
 10
-20.8728
 20
-18.1451
 11
-20.7547
 21
-18.0939
  0
LINE
  8
0
 10
-20.7547
 20
-18.0939
 11
-20.6335
 21
-18.0503
  0
LINE
  8
0
 10
-20.6335
 20
-18.0503
 11
-20.5098
 21
-18.0144
  0
LINE
  8
0
 10
-20.5098
 20
-18.0144
 11
-20.3841
 21
-17.9863
  0
LINE
  8
0
 10
-20.3841
 20
-17.9863
 11
-20.2569
 21
-17.9662
  0
LINE
  8
0
 10
-20.2569
 20
-17.9662
 11
-20.1287
 21
-17.954
  0
LINE
  8
0
 10
-20.1287
 20
-17.954
 11
-20
 21
-17.95
  0
LINE
  8
0
 10
-20
 20
-17.95
 11
-19.8713
 21
-17.954
  0
LINE
  8
0
 10
-19.8713
 20
-17.954
 11
-19.7431
 21
-17.9662
  0
LINE
  8
0
 10
-19.7431
 20
-17.9662
 11
-19.6159
 21
-17.9863
  0
LINE
  8
0
 10
-19.6159
 20
-17.9863
 11
-19.4902
 21
-18.0144
  0
LINE
  8
0
 10
-19.4902
 20
-18.0144
 11
-19.3665
 21
-18.0503
  0
LINE
  8
0
 10
-19.3665
 20
-18.0503
 11
-19.2453
 21
-18.0939
  0
LINE
  8
0
 10
-19.2453
 20
-18.0939
 11
-19.1272
 21
-18.1451
  0
LINE
  8
0
 10
-19.1272
 20
-18.1451
 11
-19.0124
 21
-18.2036
  0
LINE
  8
0
 10
-19.0124
 20
-18.2036
 11
-18.9016
 21
-18.2691
  0
LINE
  8
0
 10
-18.9016
 20
-18.2691
 11
-18.795
 21
-18.3415
  0
LINE
  8
0
 10
-18.795
 20
-18.3415
 11
-18.6933
 21
-18.4204
  0
LINE
  8
0
 10
-18.6933
 20
-18.4204
 11
-18.5967
 21
-18.5056
  0
LINE
  8
0
 10
-18.5967
 20
-18.5056
 11
-18.5056
 21
-18.5967
  0
LINE
  8
0
 10
-18.5056
 20
-18.5967
 11
-18.4204
 21
-18.6933
  0
LINE
  8
0
 10
-18.4204
 20
-18.6933
 11
-18.3415
 21
-18.795
  0
LINE
  8
0
 10
-18.3415
 20
-18.795
 11
-18.2691
 21
-18.9016
  0
LINE
  8
0
 10
-18.2691
 20
-18.9016
 11
-18.2036
 21
-19.0124
  0
LINE
  8
0
 10
-18.2036
 20
-19.0124
 11
-18.1451
 21
-19.1272
  0
LINE
  8
0
 10
-18.1451
 20
-19.1272
 11
-18.0939
 21
-19.2453
  0
LINE
  8
0
 10
-18.0939
 20
-19.2453
 11
-18.0503
 21
-19.3665
  0
LINE
  8
0
 10
-18.0503
 20
-19.3665
 11
-18.0144
 21
-19.4902
  0
LINE
  8
0
 10
-18.0144
 20
-19.4902
 11
-17.9863
 21
-19.6159
  0
LINE
  8
0
 10
-17.9863
 20
-19.6159
 11
-17.9662
 21
-19.7431
  0
LINE
  8
0
 10
-17.9662
 20
-19.7431
 11
-17.954
 21
-19.8713
  0
LINE
  8
0
 10
-17.954
 20
-19.8713
 11
-17.95
 21
-20
  0
LINE
  8
0
 10
-17.95
 20
-20
 11
-17.954
 21
-20.1287
  0
LINE
  8
0
 10
-17.954
 20
-20.1287
 11
-17.9662
 21
-20.2569
  0
LINE
  8
0
 10
-17.9662
 20
-20.2569
 11
-17.9863
 21
-20.3841
  0
LINE
  8
0
 10
-17.9863
 20
-20.3841
 11
-18.0144
 21
-20.5098
  0
LINE
  8
0
 10
-18.0144
 20
-20.5098
 11
-18.0503
 21
-20.6335
  0
LINE
  8
0
 10
-18.0503
 20
-20.6335
 11
-18.0939
 21
-20.7547
  0
LINE
  8
0
 10
-18.0939
 20
-20.7547
 11
-18.1451
 21
-20.8728
  0
LINE
  8
0
 10
-18.1451
 20
-20.8728
 11
-18.2036
 21
-20.9876
  0
LINE
  8
0
 10
-18.2036
 20
-20.9876
 11
-18.2691
 21
-21.0984
  0
LINE
  8
0
 10
-18.2691
 20
-21.0984
 11
-18.3415
 21
-21.205
  0
LINE
  8
0
 10
-18.3415
 20
-21.205
 11
-18.4204
 21
-21.3067
  0
LINE
  8
0
 10
-18.4204
 20
-21.3067
 11
-18.5056
 21
-21.4033
  0
LINE
  8
0
 10
-18.5056
 20
-21.4033
 11
-18.5967
 21
-21.4944
  0
LINE
  8
0
 10
-18.5967
 20
-21.4944
 11
-18.6933
 21
-21.5795
  0
LINE
  8
0
 10
-18.6933
 20
-21.5795
 11
-18.795
 21
-21.6585
  0
LINE
  8
0
 10
-18.795
 20
-21.6585
 11
-18.9016
 21
-21.7309
  0
LINE
  8
0
 10
-18.9016
 20
-21.7309
 11
-19.0124
 21
-21.7964
  0
LINE
  8
0
 10
-19.0124
 20
-21.7964
 11
-19.1272
 21
-21.8549
  0
LINE
  8
0
 10
-19.1272
 20
-21.8549
 11
-19.2453
 21
-21.906
  0
LINE
  8
0
 10
-19.2453
 20
-21.906
 11
-19.3665
 21
-21.9497
  0
LINE
  8
0
 10
-19.3665
 20
-21.9497
 11
-19.4902
 21
-21.9856
  0
LINE
  8
0
 10
-19.4902
 20
-21.9856
 11
-19.6159
 21
-22.0137
  0
LINE
  8
0
 10
-19.6159
 20
-22.0137
 11
-19.7431
 21
-22.0338
  0
LINE
  8
0
 10
-19.7431
 20
-22.0338
 11
-19.8713
 21
-22.0459
  0
LINE
  8
0
 10
-19.8713
 20
-22.0459
 11
-20
 21
-22.05
  0
LINE
  8
0
 10
-20
 20
-22.05
 11
-20.1287
 21
-22.0459
  0
ENDSEC
  0
SECTION
  2
OBJECTS
  0
DICTIONARY
  0
ENDSEC
  0
EOF
