  0
SECTION
  2
BLOCKS
  0
ENDSEC
  0
SECTION
  2
ENTITIES
  0
LINE
  8
0
 10
235
 20
50
 11
-235
 21
50
  0
LINE
  8
0
 10
-235
 20
50
 11
-235
 21
-50
  0
LINE
  8
0
 10
-235
 20
-50
 11
235
 21
-50
  0
LINE
  8
0
 10
235
 20
-50
 11
235
 21
50
  0
LINE
  8
0
 10
-20.1067
 20
18.3033
 11
-20.2131
 21
18.3134
  0
LINE
  8
0
 10
-20.2131
 20
18.3134
 11
-20.3185
 21
18.3301
  0
LINE
  8
0
 10
-20.3185
 20
18.3301
 11
-20.4228
 21
18.3534
  0
LINE
  8
0
 10
-20.4228
 20
18.3534
 11
-20.5253
 21
18.3832
  0
LINE
  8
0
 10
-20.5253
 20
18.3832
 11
-20.6258
 21
18.4194
  0
LINE
  8
0
 10
-20.6258
 20
18.4194
 11
-20.7238
 21
18.4618
  0
LINE
  8
0
 10
-20.7238
 20
18.4618
 11
-20.819
 21
18.5103
  0
LINE
  8
0
 10
-20.819
 20
18.5103
 11
-20.9109
 21
18.5646
  0
LINE
  8
0
 10
-20.9109
 20
18.5646
 11
-20.9992
 21
18.6247
  0
LINE
  8
0
 10
-20.9992
 20
18.6247
 11
-21.0836
 21
18.6901
  0
LINE
  8
0
 10
-21.0836
 20
18.6901
 11
-21.1637
 21
18.7607
  0
LINE
  8
0
 10
-21.1637
 20
18.7607
 11
-21.2392
 21
18.8363
  0
LINE
  8
0
 10
-21.2392
 20
18.8363
 11
-21.3099
 21
18.9164
  0
LINE
  8
0
 10
-21.3099
 20
18.9164
 11
-21.3753
 21
19.0008
  0
LINE
  8
0
 10
-21.3753
 20
19.0008
 11
-21.4353
 21
19.0891
  0
LINE
  8
0
 10
-21.4353
 20
19.0891
 11
-21.4897
 21
19.181
  0
LINE
  8
0
 10
-21.4897
 20
19.181
 11
-21.5382
 21
19.2762
  0
LINE
  8
0
 10
-21.5382
 20
19.2762
 11
-21.5806
 21
19.3742
  0
LINE
  8
0
 10
-21.5806
 20
19.3742
 11
-21.6168
 21
19.4747
  0
LINE
  8
0
 10
-21.6168
 20
19.4747
 11
-21.6466
 21
19.5772
  0
LINE
  8
0
 10
-21.6466
 20
19.5772
 11
-21.6699
 21
19.6814
  0
LINE
  8
0
 10
-21.6699
 20
19.6814
 11
-21.6866
 21
19.7869
  0
LINE
  8
0
 10
-21.6866
 20
19.7869
 11
-21.6966
 21
19.8932
  0
LINE
  8
0
 10
-21.6966
 20
19.8932
 11
-21.7
 21
20
  0
LINE
  8
0
 10
-21.7
 20
20
 11
-21.6966
 21
20.1067
  0
LINE
  8
0
 10
-21.6966
 20
20.1067
 11
-21.6866
 21
20.2131
  0
LINE
  8
0
 10
-21.6866
 20
20.2131
 11
-21.6699
 21
20.3185
  0
LINE
  8
0
 10
-21.6699
 20
20.3185
 11
-21.6466
 21
20.4228
  0
LINE
  8
0
 10
-21.6466
 20
20.4228
 11
-21.6168
 21
20.5253
  0
LINE
  8
0
 10
-21.6168
 20
20.5253
 11
-21.5806
 21
20.6258
  0
LINE
  8
0
 10
-21.5806
 20
20.6258
 11
-21.5382
 21
20.7238
  0
LINE
  8
0
 10
-21.5382
 20
20.7238
 11
-21.4897
 21
20.819
  0
LINE
  8
0
 10
-21.4897
 20
20.819
 11
-21.4353
 21
20.9109
  0
LINE
  8
0
 10
-21.4353
 20
20.9109
 11
-21.3753
 21
20.9992
  0
LINE
  8
0
 10
-21.3753
 20
20.9992
 11
-21.3099
 21
21.0836
  0
LINE
  8
0
 10
-21.3099
 20
21.0836
 11
-21.2392
 21
21.1637
  0
LINE
  8
0
 10
-21.2392
 20
21.1637
 11
-21.1637
 21
21.2392
  0
LINE
  8
0
 10
-21.1637
 20
21.2392
 11
-21.0836
 21
21.3099
  0
LINE
  8
0
 10
-21.0836
 20
21.3099
 11
-20.9992
 21
21.3753
  0
LINE
  8
0
 10
-20.9992
 20
21.3753
 11
-20.9109
 21
21.4353
  0
LINE
  8
0
 10
-20.9109
 20
21.4353
 11
-20.819
 21
21.4897
  0
LINE
  8
0
 10
-20.819
 20
21.4897
 11
-20.7238
 21
21.5382
  0
LINE
  8
0
 10
-20.7238
 20
21.5382
 11
-20.6258
 21
21.5806
  0
LINE
  8
0
 10
-20.6258
 20
21.5806
 11
-20.5253
 21
21.6168
  0
LINE
  8
0
 10
-20.5253
 20
21.6168
 11
-20.4228
 21
21.6466
  0
LINE
  8
0
 10
-20.4228
 20
21.6466
 11
-20.3185
 21
21.6699
  0
LINE
  8
0
 10
-20.3185
 20
21.6699
 11
-20.2131
 21
21.6866
  0
LINE
  8
0
 10
-20.2131
 20
21.6866
 11
-20.1067
 21
21.6966
  0
LINE
  8
0
 10
-20.1067
 20
21.6966
 11
-20
 21
21.7
  0
LINE
  8
0
 10
-20
 20
21.7
 11
-19.8932
 21
21.6966
  0
LINE
  8
0
 10
-19.8932
 20
21.6966
 11
-19.7869
 21
21.6866
  0
LINE
  8
0
 10
-19.7869
 20
21.6866
 11
-19.6814
 21
21.6699
  0
LINE
  8
0
 10
-19.6814
 20
21.6699
 11
-19.5772
 21
21.6466
  0
LINE
  8
0
 10
-19.5772
 20
21.6466
 11
-19.4747
 21
21.6168
  0
LINE
  8
0
 10
-19.4747
 20
21.6168
 11
-19.3742
 21
21.5806
  0
LINE
  8
0
 10
-19.3742
 20
21.5806
 11
-19.2762
 21
21.5382
  0
LINE
  8
0
 10
-19.2762
 20
21.5382
 11
-19.181
 21
21.4897
  0
LINE
  8
0
 10
-19.181
 20
21.4897
 11
-19.0891
 21
21.4353
  0
LINE
  8
0
 10
-19.0891
 20
21.4353
 11
-19.0008
 21
21.3753
  0
LINE
  8
0
 10
-19.0008
 20
21.3753
 11
-18.9164
 21
21.3099
  0
LINE
  8
0
 10
-18.9164
 20
21.3099
 11
-18.8363
 21
21.2392
  0
LINE
  8
0
 10
-18.8363
 20
21.2392
 11
-18.7607
 21
21.1637
  0
LINE
  8
0
 10
-18.7607
 20
21.1637
 11
-18.6901
 21
21.0836
  0
LINE
  8
0
 10
-18.6901
 20
21.0836
 11
-18.6247
 21
20.9992
  0
LINE
  8
0
 10
-18.6247
 20
20.9992
 11
-18.5646
 21
20.9109
  0
LINE
  8
0
 10
-18.5646
 20
20.9109
 11
-18.5103
 21
20.819
  0
LINE
  8
0
 10
-18.5103
 20
20.819
 11
-18.4618
 21
20.7238
  0
LINE
  8
0
 10
-18.4618
 20
20.7238
 11
-18.4194
 21
20.6258
  0
LINE
  8
0
 10
-18.4194
 20
20.6258
 11
-18.3832
 21
20.5253
  0
LINE
  8
0
 10
-18.3832
 20
20.5253
 11
-18.3534
 21
20.4228
  0
LINE
  8
0
 10
-18.3534
 20
20.4228
 11
-18.3301
 21
20.3185
  0
LINE
  8
0
 10
-18.3301
 20
20.3185
 11
-18.3134
 21
20.2131
  0
LINE
  8
0
 10
-18.3134
 20
20.2131
 11
-18.3033
 21
20.1067
  0
LINE
  8
0
 10
-18.3033
 20
20.1067
 11
-18.3
 21
20
  0
LINE
  8
0
 10
-18.3
 20
20
 11
-18.3033
 21
19.8932
  0
LINE
  8
0
 10
-18.3033
 20
19.8932
 11
-18.3134
 21
19.7869
  0
LINE
  8
0
 10
-18.3134
 20
19.7869
 11
-18.3301
 21
19.6814
  0
LINE
  8
0
 10
-18.3301
 20
19.6814
 11
-18.3534
 21
19.5772
  0
LINE
  8
0
 10
-18.3534
 20
19.5772
 11
-18.3832
 21
19.4747
  0
LINE
  8
0
 10
-18.3832
 20
19.4747
 11
-18.4194
 21
19.3742
  0
LINE
  8
0
 10
-18.4194
 20
19.3742
 11
-18.4618
 21
19.2762
  0
LINE
  8
0
 10
-18.4618
 20
19.2762
 11
-18.5103
 21
19.181
  0
LINE
  8
0
 10
-18.5103
 20
19.181
 11
-18.5646
 21
19.0891
  0
LINE
  8
0
 10
-18.5646
 20
19.0891
 11
-18.6247
 21
19.0008
  0
LINE
  8
0
 10
-18.6247
 20
19.0008
 11
-18.6901
 21
18.9164
  0
LINE
  8
0
 10
-18.6901
 20
18.9164
 11
-18.7607
 21
18.8363
  0
LINE
  8
0
 10
-18.7607
 20
18.8363
 11
-18.8363
 21
18.7607
  0
LINE
  8
0
 10
-18.8363
 20
18.7607
 11
-18.9164
 21
18.6901
  0
LINE
  8
0
 10
-18.9164
 20
18.6901
 11
-19.0008
 21
18.6247
  0
LINE
  8
0
 10
-19.0008
 20
18.6247
 11
-19.0891
 21
18.5646
  0
LINE
  8
0
 10
-19.0891
 20
18.5646
 11
-19.181
 21
18.5103
  0
LINE
  8
0
 10
-19.181
 20
18.5103
 11
-19.2762
 21
18.4618
  0
LINE
  8
0
 10
-19.2762
 20
18.4618
 11
-19.3742
 21
18.4194
  0
LINE
  8
0
 10
-19.3742
 20
18.4194
 11
-19.4747
 21
18.3832
  0
LINE
  8
0
 10
-19.4747
 20
18.3832
 11
-19.5772
 21
18.3534
  0
LINE
  8
0
 10
-19.5772
 20
18.3534
 11
-19.6814
 21
18.3301
  0
LINE
  8
0
 10
-19.6814
 20
18.3301
 11
-19.7869
 21
18.3134
  0
LINE
  8
0
 10
-19.7869
 20
18.3134
 11
-19.8932
 21
18.3033
  0
LINE
  8
0
 10
-19.8932
 20
18.3033
 11
-20
 21
18.3
  0
LINE
  8
0
 10
-20
 20
18.3
 11
-20.1067
 21
18.3033
  0
LINE
  8
0
 10
19.8932
 20
18.3033
 11
19.7869
 21
18.3134
  0
LINE
  8
0
 10
19.7869
 20
18.3134
 11
19.6814
 21
18.3301
  0
LINE
  8
0
 10
19.6814
 20
18.3301
 11
19.5772
 21
18.3534
  0
LINE
  8
0
 10
19.5772
 20
18.3534
 11
19.4747
 21
18.3832
  0
LINE
  8
0
 10
19.4747
 20
18.3832
 11
19.3742
 21
18.4194
  0
LINE
  8
0
 10
19.3742
 20
18.4194
 11
19.2762
 21
18.4618
  0
LINE
  8
0
 10
19.2762
 20
18.4618
 11
19.181
 21
18.5103
  0
LINE
  8
0
 10
19.181
 20
18.5103
 11
19.0891
 21
18.5646
  0
LINE
  8
0
 10
19.0891
 20
18.5646
 11
19.0008
 21
18.6247
  0
LINE
  8
0
 10
19.0008
 20
18.6247
 11
18.9164
 21
18.6901
  0
LINE
  8
0
 10
18.9164
 20
18.6901
 11
18.8363
 21
18.7607
  0
LINE
  8
0
 10
18.8363
 20
18.7607
 11
18.7607
 21
18.8363
  0
LINE
  8
0
 10
18.7607
 20
18.8363
 11
18.6901
 21
18.9164
  0
LINE
  8
0
 10
18.6901
 20
18.9164
 11
18.6247
 21
19.0008
  0
LINE
  8
0
 10
18.6247
 20
19.0008
 11
18.5646
 21
19.0891
  0
LINE
  8
0
 10
18.5646
 20
19.0891
 11
18.5103
 21
19.181
  0
LINE
  8
0
 10
18.5103
 20
19.181
 11
18.4618
 21
19.2762
  0
LINE
  8
0
 10
18.4618
 20
19.2762
 11
18.4194
 21
19.3742
  0
LINE
  8
0
 10
18.4194
 20
19.3742
 11
18.3832
 21
19.4747
  0
LINE
  8
0
 10
18.3832
 20
19.4747
 11
18.3534
 21
19.5772
  0
LINE
  8
0
 10
18.3534
 20
19.5772
 11
18.3301
 21
19.6814
  0
LINE
  8
0
 10
18.3301
 20
19.6814
 11
18.3134
 21
19.7869
  0
LINE
  8
0
 10
18.3134
 20
19.7869
 11
18.3033
 21
19.8932
  0
LINE
  8
0
 10
18.3033
 20
19.8932
 11
18.3
 21
20
  0
LINE
  8
0
 10
18.3
 20
20
 11
18.3033
 21
20.1067
  0
LINE
  8
0
 10
18.3033
 20
20.1067
 11
18.3134
 21
20.2131
  0
LINE
  8
0
 10
18.3134
 20
20.2131
 11
18.3301
 21
20.3185
  0
LINE
  8
0
 10
18.3301
 20
20.3185
 11
18.3534
 21
20.4228
  0
LINE
  8
0
 10
18.3534
 20
20.4228
 11
18.3832
 21
20.5253
  0
LINE
  8
0
 10
18.3832
 20
20.5253
 11
18.4194
 21
20.6258
  0
LINE
  8
0
 10
18.4194
 20
20.6258
 11
18.4618
 21
20.7238
  0
LINE
  8
0
 10
18.4618
 20
20.7238
 11
18.5103
 21
20.819
  0
LINE
  8
0
 10
18.5103
 20
20.819
 11
18.5646
 21
20.9109
  0
LINE
  8
0
 10
18.5646
 20
20.9109
 11
18.6247
 21
20.9992
  0
LINE
  8
0
 10
18.6247
 20
20.9992
 11
18.6901
 21
21.0836
  0
LINE
  8
0
 10
18.6901
 20
21.0836
 11
18.7607
 21
21.1637
  0
LINE
  8
0
 10
18.7607
 20
21.1637
 11
18.8363
 21
21.2392
  0
LINE
  8
0
 10
18.8363
 20
21.2392
 11
18.9164
 21
21.3099
  0
LINE
  8
0
 10
18.9164
 20
21.3099
 11
19.0008
 21
21.3753
  0
LINE
  8
0
 10
19.0008
 20
21.3753
 11
19.0891
 21
21.4353
  0
LINE
  8
0
 10
19.0891
 20
21.4353
 11
19.181
 21
21.4897
  0
LINE
  8
0
 10
19.181
 20
21.4897
 11
19.2762
 21
21.5382
  0
LINE
  8
0
 10
19.2762
 20
21.5382
 11
19.3742
 21
21.5806
  0
LINE
  8
0
 10
19.3742
 20
21.5806
 11
19.4747
 21
21.6168
  0
LINE
  8
0
 10
19.4747
 20
21.6168
 11
19.5772
 21
21.6466
  0
LINE
  8
0
 10
19.5772
 20
21.6466
 11
19.6814
 21
21.6699
  0
LINE
  8
0
 10
19.6814
 20
21.6699
 11
19.7869
 21
21.6866
  0
LINE
  8
0
 10
19.7869
 20
21.6866
 11
19.8932
 21
21.6966
  0
LINE
  8
0
 10
19.8932
 20
21.6966
 11
20
 21
21.7
  0
LINE
  8
0
 10
20
 20
21.7
 11
20.1067
 21
21.6966
  0
LINE
  8
0
 10
20.1067
 20
21.6966
 11
20.2131
 21
21.6866
  0
LINE
  8
0
 10
20.2131
 20
21.6866
 11
20.3185
 21
21.6699
  0
LINE
  8
0
 10
20.3185
 20
21.6699
 11
20.4228
 21
21.6466
  0
LINE
  8
0
 10
20.4228
 20
21.6466
 11
20.5253
 21
21.6168
  0
LINE
  8
0
 10
20.5253
 20
21.6168
 11
20.6258
 21
21.5806
  0
LINE
  8
0
 10
20.6258
 20
21.5806
 11
20.7238
 21
21.5382
  0
LINE
  8
0
 10
20.7238
 20
21.5382
 11
20.819
 21
21.4897
  0
LINE
  8
0
 10
20.819
 20
21.4897
 11
20.9109
 21
21.4353
  0
LINE
  8
0
 10
20.9109
 20
21.4353
 11
20.9992
 21
21.3753
  0
LINE
  8
0
 10
20.9992
 20
21.3753
 11
21.0836
 21
21.3099
  0
LINE
  8
0
 10
21.0836
 20
21.3099
 11
21.1637
 21
21.2392
  0
LINE
  8
0
 10
21.1637
 20
21.2392
 11
21.2392
 21
21.1637
  0
LINE
  8
0
 10
21.2392
 20
21.1637
 11
21.3099
 21
21.0836
  0
LINE
  8
0
 10
21.3099
 20
21.0836
 11
21.3753
 21
20.9992
  0
LINE
  8
0
 10
21.3753
 20
20.9992
 11
21.4353
 21
20.9109
  0
LINE
  8
0
 10
21.4353
 20
20.9109
 11
21.4897
 21
20.819
  0
LINE
  8
0
 10
21.4897
 20
20.819
 11
21.5382
 21
20.7238
  0
LINE
  8
0
 10
21.5382
 20
20.7238
 11
21.5806
 21
20.6258
  0
LINE
  8
0
 10
21.5806
 20
20.6258
 11
21.6168
 21
20.5253
  0
LINE
  8
0
 10
21.6168
 20
20.5253
 11
21.6466
 21
20.4228
  0
LINE
  8
0
 10
21.6466
 20
20.4228
 11
21.6699
 21
20.3185
  0
LINE
  8
0
 10
21.6699
 20
20.3185
 11
21.6866
 21
20.2131
  0
LINE
  8
0
 10
21.6866
 20
20.2131
 11
21.6966
 21
20.1067
  0
LINE
  8
0
 10
21.6966
 20
20.1067
 11
21.7
 21
20
  0
LINE
  8
0
 10
21.7
 20
20
 11
21.6966
 21
19.8932
  0
LINE
  8
0
 10
21.6966
 20
19.8932
 11
21.6866
 21
19.7869
  0
LINE
  8
0
 10
21.6866
 20
19.7869
 11
21.6699
 21
19.6814
  0
LINE
  8
0
 10
21.6699
 20
19.6814
 11
21.6466
 21
19.5772
  0
LINE
  8
0
 10
21.6466
 20
19.5772
 11
21.6168
 21
19.4747
  0
LINE
  8
0
 10
21.6168
 20
19.4747
 11
21.5806
 21
19.3742
  0
LINE
  8
0
 10
21.5806
 20
19.3742
 11
21.5382
 21
19.2762
  0
LINE
  8
0
 10
21.5382
 20
19.2762
 11
21.4897
 21
19.181
  0
LINE
  8
0
 10
21.4897
 20
19.181
 11
21.4353
 21
19.0891
  0
LINE
  8
0
 10
21.4353
 20
19.0891
 11
21.3753
 21
19.0008
  0
LINE
  8
0
 10
21.3753
 20
19.0008
 11
21.3099
 21
18.9164
  0
LINE
  8
0
 10
21.3099
 20
18.9164
 11
21.2392
 21
18.8363
  0
LINE
  8
0
 10
21.2392
 20
18.8363
 11
21.1637
 21
18.7607
  0
LINE
  8
0
 10
21.1637
 20
18.7607
 11
21.0836
 21
18.6901
  0
LINE
  8
0
 10
21.0836
 20
18.6901
 11
20.9992
 21
18.6247
  0
LINE
  8
0
 10
20.9992
 20
18.6247
 11
20.9109
 21
18.5646
  0
LINE
  8
0
 10
20.9109
 20
18.5646
 11
20.819
 21
18.5103
  0
LINE
  8
0
 10
20.819
 20
18.5103
 11
20.7238
 21
18.4618
  0
LINE
  8
0
 10
20.7238
 20
18.4618
 11
20.6258
 21
18.4194
  0
LINE
  8
0
 10
20.6258
 20
18.4194
 11
20.5253
 21
18.3832
  0
LINE
  8
0
 10
20.5253
 20
18.3832
 11
20.4228
 21
18.3534
  0
LINE
  8
0
 10
20.4228
 20
18.3534
 11
20.3185
 21
18.3301
  0
LINE
  8
0
 10
20.3185
 20
18.3301
 11
20.2131
 21
18.3134
  0
LINE
  8
0
 10
20.2131
 20
18.3134
 11
20.1067
 21
18.3033
  0
LINE
  8
0
 10
20.1067
 20
18.3033
 11
20
 21
18.3
  0
LINE
  8
0
 10
20
 20
18.3
 11
19.8932
 21
18.3033
  0
LINE
  8
0
 10
-0.941849
 20
-14.9704
 11
-1.87999
 21
-14.8817
  0
LINE
  8
0
 10
-1.87999
 20
-14.8817
 11
-2.81071
 21
-14.7343
  0
LINE
  8
0
 10
-2.81071
 20
-14.7343
 11
-3.73035
 21
-14.5287
  0
LINE
  8
0
 10
-3.73035
 20
-14.5287
 11
-4.63525
 21
-14.2658
  0
LINE
  8
0
 10
-4.63525
 20
-14.2658
 11
-5.52187
 21
-13.9466
  0
LINE
  8
0
 10
-5.52187
 20
-13.9466
 11
-6.38669
 21
-13.5724
  0
LINE
  8
0
 10
-6.38669
 20
-13.5724
 11
-7.2263
 21
-13.1446
  0
LINE
  8
0
 10
-7.2263
 20
-13.1446
 11
-8.0374
 21
-12.6649
  0
LINE
  8
0
 10
-8.0374
 20
-12.6649
 11
-8.81677
 21
-12.1353
  0
LINE
  8
0
 10
-8.81677
 20
-12.1353
 11
-9.56136
 21
-11.5577
  0
LINE
  8
0
 10
-9.56136
 20
-11.5577
 11
-10.2682
 21
-10.9345
  0
LINE
  8
0
 10
-10.2682
 20
-10.9345
 11
-10.9345
 21
-10.2682
  0
LINE
  8
0
 10
-10.9345
 20
-10.2682
 11
-11.5577
 21
-9.56136
  0
LINE
  8
0
 10
-11.5577
 20
-9.56136
 11
-12.1353
 21
-8.81677
  0
LINE
  8
0
 10
-12.1353
 20
-8.81677
 11
-12.6649
 21
-8.0374
  0
LINE
  8
0
 10
-12.6649
 20
-8.0374
 11
-13.1446
 21
-7.2263
  0
LINE
  8
0
 10
-13.1446
 20
-7.2263
 11
-13.5724
 21
-6.38669
  0
LINE
  8
0
 10
-13.5724
 20
-6.38669
 11
-13.9466
 21
-5.52187
  0
LINE
  8
0
 10
-13.9466
 20
-5.52187
 11
-14.2658
 21
-4.63525
  0
LINE
  8
0
 10
-14.2658
 20
-4.63525
 11
-14.5287
 21
-3.73035
  0
LINE
  8
0
 10
-14.5287
 20
-3.73035
 11
-14.7343
 21
-2.81071
  0
LINE
  8
0
 10
-14.7343
 20
-2.81071
 11
-14.8817
 21
-1.87999
  0
LINE
  8
0
 10
-14.8817
 20
-1.87999
 11
-14.9704
 21
-0.941849
  0
LINE
  8
0
 10
-14.9704
 20
-0.941849
 11
-15
 21
0
  0
LINE
  8
0
 10
-15
 20
0
 11
-14.9704
 21
0.941849
  0
LINE
  8
0
 10
-14.9704
 20
0.941849
 11
-14.8817
 21
1.87999
  0
LINE
  8
0
 10
-14.8817
 20
1.87999
 11
-14.7343
 21
2.81071
  0
LINE
  8
0
 10
-14.7343
 20
2.81071
 11
-14.5287
 21
3.73035
  0
LINE
  8
0
 10
-14.5287
 20
3.73035
 11
-14.2658
 21
4.63525
  0
LINE
  8
0
 10
-14.2658
 20
4.63525
 11
-13.9466
 21
5.52187
  0
LINE
  8
0
 10
-13.9466
 20
5.52187
 11
-13.5724
 21
6.38669
  0
LINE
  8
0
 10
-13.5724
 20
6.38669
 11
-13.1446
 21
7.2263
  0
LINE
  8
0
 10
-13.1446
 20
7.2263
 11
-12.6649
 21
8.0374
  0
LINE
  8
0
 10
-12.6649
 20
8.0374
 11
-12.1353
 21
8.81677
  0
LINE
  8
0
 10
-12.1353
 20
8.81677
 11
-11.5577
 21
9.56136
  0
LINE
  8
0
 10
-11.5577
 20
9.56136
 11
-10.9345
 21
10.2682
  0
LINE
  8
0
 10
-10.9345
 20
10.2682
 11
-10.2682
 21
10.9345
  0
LINE
  8
0
 10
-10.2682
 20
10.9345
 11
-9.56136
 21
11.5577
  0
LINE
  8
0
 10
-9.56136
 20
11.5577
 11
-8.81677
 21
12.1353
  0
LINE
  8
0
 10
-8.81677
 20
12.1353
 11
-8.0374
 21
12.6649
  0
LINE
  8
0
 10
-8.0374
 20
12.6649
 11
-7.2263
 21
13.1446
  0
LINE
  8
0
 10
-7.2263
 20
13.1446
 11
-6.38669
 21
13.5724
  0
LINE
  8
0
 10
-6.38669
 20
13.5724
 11
-5.52187
 21
13.9466
  0
LINE
  8
0
 10
-5.52187
 20
13.9466
 11
-4.63525
 21
14.2658
  0
LINE
  8
0
 10
-4.63525
 20
14.2658
 11
-3.73035
 21
14.5287
  0
LINE
  8
0
 10
-3.73035
 20
14.5287
 11
-2.81071
 21
14.7343
  0
LINE
  8
0
 10
-2.81071
 20
14.7343
 11
-1.87999
 21
14.8817
  0
LINE
  8
0
 10
-1.87999
 20
14.8817
 11
-0.941849
 21
14.9704
  0
LINE
  8
0
 10
-0.941849
 20
14.9704
 11
0
 21
15
  0
LINE
  8
0
 10
0
 20
15
 11
0.941849
 21
14.9704
  0
LINE
  8
0
 10
0.941849
 20
14.9704
 11
1.87999
 21
14.8817
  0
LINE
  8
0
 10
1.87999
 20
14.8817
 11
2.81071
 21
14.7343
  0
LINE
  8
0
 10
2.81071
 20
14.7343
 11
3.73035
 21
14.5287
  0
LINE
  8
0
 10
3.73035
 20
14.5287
 11
4.63525
 21
14.2658
  0
LINE
  8
0
 10
4.63525
 20
14.2658
 11
5.52187
 21
13.9466
  0
LINE
  8
0
 10
5.52187
 20
13.9466
 11
6.38669
 21
13.5724
  0
LINE
  8
0
 10
6.38669
 20
13.5724
 11
7.2263
 21
13.1446
  0
LINE
  8
0
 10
7.2263
 20
13.1446
 11
8.0374
 21
12.6649
  0
LINE
  8
0
 10
8.0374
 20
12.6649
 11
8.81677
 21
12.1353
  0
LINE
  8
0
 10
8.81677
 20
12.1353
 11
9.56136
 21
11.5577
  0
LINE
  8
0
 10
9.56136
 20
11.5577
 11
10.2682
 21
10.9345
  0
LINE
  8
0
 10
10.2682
 20
10.9345
 11
10.9345
 21
10.2682
  0
LINE
  8
0
 10
10.9345
 20
10.2682
 11
11.5577
 21
9.56136
  0
LINE
  8
0
 10
11.5577
 20
9.56136
 11
12.1353
 21
8.81677
  0
LINE
  8
0
 10
12.1353
 20
8.81677
 11
12.6649
 21
8.0374
  0
LINE
  8
0
 10
12.6649
 20
8.0374
 11
13.1446
 21
7.2263
  0
LINE
  8
0
 10
13.1446
 20
7.2263
 11
13.5724
 21
6.38669
  0
LINE
  8
0
 10
13.5724
 20
6.38669
 11
13.9466
 21
5.52187
  0
LINE
  8
0
 10
13.9466
 20
5.52187
 11
14.2658
 21
4.63525
  0
LINE
  8
0
 10
14.2658
 20
4.63525
 11
14.5287
 21
3.73035
  0
LINE
  8
0
 10
14.5287
 20
3.73035
 11
14.7343
 21
2.81071
  0
LINE
  8
0
 10
14.7343
 20
2.81071
 11
14.8817
 21
1.87999
  0
LINE
  8
0
 10
14.8817
 20
1.87999
 11
14.9704
 21
0.941849
  0
LINE
  8
0
 10
14.9704
 20
0.941849
 11
15
 21
0
  0
LINE
  8
0
 10
15
 20
0
 11
14.9704
 21
-0.941849
  0
LINE
  8
0
 10
14.9704
 20
-0.941849
 11
14.8817
 21
-1.87999
  0
LINE
  8
0
 10
14.8817
 20
-1.87999
 11
14.7343
 21
-2.81071
  0
LINE
  8
0
 10
14.7343
 20
-2.81071
 11
14.5287
 21
-3.73035
  0
LINE
  8
0
 10
14.5287
 20
-3.73035
 11
14.2658
 21
-4.63525
  0
LINE
  8
0
 10
14.2658
 20
-4.63525
 11
13.9466
 21
-5.52187
  0
LINE
  8
0
 10
13.9466
 20
-5.52187
 11
13.5724
 21
-6.38669
  0
LINE
  8
0
 10
13.5724
 20
-6.38669
 11
13.1446
 21
-7.2263
  0
LINE
  8
0
 10
13.1446
 20
-7.2263
 11
12.6649
 21
-8.0374
  0
LINE
  8
0
 10
12.6649
 20
-8.0374
 11
12.1353
 21
-8.81677
  0
LINE
  8
0
 10
12.1353
 20
-8.81677
 11
11.5577
 21
-9.56136
  0
LINE
  8
0
 10
11.5577
 20
-9.56136
 11
10.9345
 21
-10.2682
  0
LINE
  8
0
 10
10.9345
 20
-10.2682
 11
10.2682
 21
-10.9345
  0
LINE
  8
0
 10
10.2682
 20
-10.9345
 11
9.56136
 21
-11.5577
  0
LINE
  8
0
 10
9.56136
 20
-11.5577
 11
8.81677
 21
-12.1353
  0
LINE
  8
0
 10
8.81677
 20
-12.1353
 11
8.0374
 21
-12.6649
  0
LINE
  8
0
 10
8.0374
 20
-12.6649
 11
7.2263
 21
-13.1446
  0
LINE
  8
0
 10
7.2263
 20
-13.1446
 11
6.38669
 21
-13.5724
  0
LINE
  8
0
 10
6.38669
 20
-13.5724
 11
5.52187
 21
-13.9466
  0
LINE
  8
0
 10
5.52187
 20
-13.9466
 11
4.63525
 21
-14.2658
  0
LINE
  8
0
 10
4.63525
 20
-14.2658
 11
3.73035
 21
-14.5287
  0
LINE
  8
0
 10
3.73035
 20
-14.5287
 11
2.81071
 21
-14.7343
  0
LINE
  8
0
 10
2.81071
 20
-14.7343
 11
1.87999
 21
-14.8817
  0
LINE
  8
0
 10
1.87999
 20
-14.8817
 11
0.941849
 21
-14.9704
  0
LINE
  8
0
 10
0.941849
 20
-14.9704
 11
0
 21
-15
  0
LINE
  8
0
 10
0
 20
-15
 11
-0.941849
 21
-14.9704
  0
LINE
  8
0
 10
116.809
 20
-10.9783
 11
116.121
 21
-10.9133
  0
LINE
  8
0
 10
116.121
 20
-10.9133
 11
115.439
 21
-10.8051
  0
LINE
  8
0
 10
115.439
 20
-10.8051
 11
114.764
 21
-10.6544
  0
LINE
  8
0
 10
114.764
 20
-10.6544
 11
114.101
 21
-10.4616
  0
LINE
  8
0
 10
114.101
 20
-10.4616
 11
113.451
 21
-10.2275
  0
LINE
  8
0
 10
113.451
 20
-10.2275
 11
112.816
 21
-9.95309
  0
LINE
  8
0
 10
112.816
 20
-9.95309
 11
112.201
 21
-9.63936
  0
LINE
  8
0
 10
112.201
 20
-9.63936
 11
111.606
 21
-9.2876
  0
LINE
  8
0
 10
111.606
 20
-9.2876
 11
111.034
 21
-8.89919
  0
LINE
  8
0
 10
111.034
 20
-8.89919
 11
110.488
 21
-8.47563
  0
LINE
  8
0
 10
110.488
 20
-8.47563
 11
109.97
 21
-8.01865
  0
LINE
  8
0
 10
109.97
 20
-8.01865
 11
109.481
 21
-7.53001
  0
LINE
  8
0
 10
109.481
 20
-7.53001
 11
109.024
 21
-7.01166
  0
LINE
  8
0
 10
109.024
 20
-7.01166
 11
108.601
 21
-6.46564
  0
LINE
  8
0
 10
108.601
 20
-6.46564
 11
108.212
 21
-5.89409
  0
LINE
  8
0
 10
108.212
 20
-5.89409
 11
107.861
 21
-5.29929
  0
LINE
  8
0
 10
107.861
 20
-5.29929
 11
107.547
 21
-4.68356
  0
LINE
  8
0
 10
107.547
 20
-4.68356
 11
107.272
 21
-4.04936
  0
LINE
  8
0
 10
107.272
 20
-4.04936
 11
107.038
 21
-3.39919
  0
LINE
  8
0
 10
107.038
 20
-3.39919
 11
106.846
 21
-2.73558
  0
LINE
  8
0
 10
106.846
 20
-2.73558
 11
106.695
 21
-2.06119
  0
LINE
  8
0
 10
106.695
 20
-2.06119
 11
106.587
 21
-1.37866
  0
LINE
  8
0
 10
106.587
 20
-1.37866
 11
106.522
 21
-0.690689
  0
LINE
  8
0
 10
106.522
 20
-0.690689
 11
106.5
 21
0
  0
LINE
  8
0
 10
106.5
 20
0
 11
106.522
 21
0.690689
  0
LINE
  8
0
 10
106.522
 20
0.690689
 11
106.587
 21
1.37866
  0
LINE
  8
0
 10
106.587
 20
1.37866
 11
106.695
 21
2.06119
  0
LINE
  8
0
 10
106.695
 20
2.06119
 11
106.846
 21
2.73558
  0
LINE
  8
0
 10
106.846
 20
2.73558
 11
107.038
 21
3.39919
  0
LINE
  8
0
 10
107.038
 20
3.39919
 11
107.272
 21
4.04936
  0
LINE
  8
0
 10
107.272
 20
4.04936
 11
107.547
 21
4.68356
  0
LINE
  8
0
 10
107.547
 20
4.68356
 11
107.861
 21
5.29929
  0
LINE
  8
0
 10
107.861
 20
5.29929
 11
108.212
 21
5.89409
  0
LINE
  8
0
 10
108.212
 20
5.89409
 11
108.601
 21
6.46564
  0
LINE
  8
0
 10
108.601
 20
6.46564
 11
109.024
 21
7.01166
  0
LINE
  8
0
 10
109.024
 20
7.01166
 11
109.481
 21
7.53001
  0
LINE
  8
0
 10
109.481
 20
7.53001
 11
109.97
 21
8.01865
  0
LINE
  8
0
 10
109.97
 20
8.01865
 11
110.488
 21
8.47563
  0
LINE
  8
0
 10
110.488
 20
8.47563
 11
111.034
 21
8.89919
  0
LINE
  8
0
 10
111.034
 20
8.89919
 11
111.606
 21
9.2876
  0
LINE
  8
0
 10
111.606
 20
9.2876
 11
112.201
 21
9.63936
  0
LINE
  8
0
 10
112.201
 20
9.63936
 11
112.816
 21
9.95309
  0
LINE
  8
0
 10
112.816
 20
9.95309
 11
113.451
 21
10.2275
  0
LINE
  8
0
 10
113.451
 20
10.2275
 11
114.101
 21
10.4616
  0
LINE
  8
0
 10
114.101
 20
10.4616
 11
114.764
 21
10.6544
  0
LINE
  8
0
 10
114.764
 20
10.6544
 11
115.439
 21
10.8051
  0
LINE
  8
0
 10
115.439
 20
10.8051
 11
116.121
 21
10.9133
  0
LINE
  8
0
 10
116.121
 20
10.9133
 11
116.809
 21
10.9783
  0
LINE
  8
0
 10
116.809
 20
10.9783
 11
117.5
 21
11
  0
LINE
  8
0
 10
117.5
 20
11
 11
118.191
 21
10.9783
  0
LINE
  8
0
 10
118.191
 20
10.9783
 11
118.879
 21
10.9133
  0
LINE
  8
0
 10
118.879
 20
10.9133
 11
119.561
 21
10.8051
  0
LINE
  8
0
 10
119.561
 20
10.8051
 11
120.236
 21
10.6544
  0
LINE
  8
0
 10
120.236
 20
10.6544
 11
120.899
 21
10.4616
  0
LINE
  8
0
 10
120.899
 20
10.4616
 11
121.549
 21
10.2275
  0
LINE
  8
0
 10
121.549
 20
10.2275
 11
122.184
 21
9.95309
  0
LINE
  8
0
 10
122.184
 20
9.95309
 11
122.799
 21
9.63936
  0
LINE
  8
0
 10
122.799
 20
9.63936
 11
123.394
 21
9.2876
  0
LINE
  8
0
 10
123.394
 20
9.2876
 11
123.966
 21
8.89919
  0
LINE
  8
0
 10
123.966
 20
8.89919
 11
124.512
 21
8.47563
  0
LINE
  8
0
 10
124.512
 20
8.47563
 11
125.03
 21
8.01865
  0
LINE
  8
0
 10
125.03
 20
8.01865
 11
125.519
 21
7.53001
  0
LINE
  8
0
 10
125.519
 20
7.53001
 11
125.976
 21
7.01166
  0
LINE
  8
0
 10
125.976
 20
7.01166
 11
126.399
 21
6.46564
  0
LINE
  8
0
 10
126.399
 20
6.46564
 11
126.788
 21
5.89409
  0
LINE
  8
0
 10
126.788
 20
5.89409
 11
127.139
 21
5.29929
  0
LINE
  8
0
 10
127.139
 20
5.29929
 11
127.453
 21
4.68356
  0
LINE
  8
0
 10
127.453
 20
4.68356
 11
127.728
 21
4.04936
  0
LINE
  8
0
 10
127.728
 20
4.04936
 11
127.962
 21
3.39919
  0
LINE
  8
0
 10
127.962
 20
3.39919
 11
128.154
 21
2.73558
  0
LINE
  8
0
 10
128.154
 20
2.73558
 11
128.305
 21
2.06119
  0
LINE
  8
0
 10
128.305
 20
2.06119
 11
128.413
 21
1.37866
  0
LINE
  8
0
 10
128.413
 20
1.37866
 11
128.478
 21
0.690689
  0
LINE
  8
0
 10
128.478
 20
0.690689
 11
128.5
 21
0
  0
LINE
  8
0
 10
128.5
 20
0
 11
128.478
 21
-0.690689
  0
LINE
  8
0
 10
128.478
 20
-0.690689
 11
128.413
 21
-1.37866
  0
LINE
  8
0
 10
128.413
 20
-1.37866
 11
128.305
 21
-2.06119
  0
LINE
  8
0
 10
128.305
 20
-2.06119
 11
128.154
 21
-2.73558
  0
LINE
  8
0
 10
128.154
 20
-2.73558
 11
127.962
 21
-3.39919
  0
LINE
  8
0
 10
127.962
 20
-3.39919
 11
127.728
 21
-4.04936
  0
LINE
  8
0
 10
127.728
 20
-4.04936
 11
127.453
 21
-4.68356
  0
LINE
  8
0
 10
127.453
 20
-4.68356
 11
127.139
 21
-5.29929
  0
LINE
  8
0
 10
127.139
 20
-5.29929
 11
126.788
 21
-5.89409
  0
LINE
  8
0
 10
126.788
 20
-5.89409
 11
126.399
 21
-6.46564
  0
LINE
  8
0
 10
126.399
 20
-6.46564
 11
125.976
 21
-7.01166
  0
LINE
  8
0
 10
125.976
 20
-7.01166
 11
125.519
 21
-7.53001
  0
LINE
  8
0
 10
125.519
 20
-7.53001
 11
125.03
 21
-8.01865
  0
LINE
  8
0
 10
125.03
 20
-8.01865
 11
124.512
 21
-8.47563
  0
LINE
  8
0
 10
124.512
 20
-8.47563
 11
123.966
 21
-8.89919
  0
LINE
  8
0
 10
123.966
 20
-8.89919
 11
123.394
 21
-9.2876
  0
LINE
  8
0
 10
123.394
 20
-9.2876
 11
122.799
 21
-9.63936
  0
LINE
  8
0
 10
122.799
 20
-9.63936
 11
122.184
 21
-9.95309
  0
LINE
  8
0
 10
122.184
 20
-9.95309
 11
121.549
 21
-10.2275
  0
LINE
  8
0
 10
121.549
 20
-10.2275
 11
120.899
 21
-10.4616
  0
LINE
  8
0
 10
120.899
 20
-10.4616
 11
120.236
 21
-10.6544
  0
LINE
  8
0
 10
120.236
 20
-10.6544
 11
119.561
 21
-10.8051
  0
LINE
  8
0
 10
119.561
 20
-10.8051
 11
118.879
 21
-10.9133
  0
LINE
  8
0
 10
118.879
 20
-10.9133
 11
118.191
 21
-10.9783
  0
LINE
  8
0
 10
118.191
 20
-10.9783
 11
117.5
 21
-11
  0
LINE
  8
0
 10
117.5
 20
-11
 11
116.809
 21
-10.9783
  0
LINE
  8
0
 10
-195.107
 20
-1.69664
 11
-195.213
 21
-1.68658
  0
LINE
  8
0
 10
-195.213
 20
-1.68658
 11
-195.319
 21
-1.66988
  0
LINE
  8
0
 10
-195.319
 20
-1.66988
 11
-195.423
 21
-1.64659
  0
LINE
  8
0
 10
-195.423
 20
-1.64659
 11
-195.525
 21
-1.61679
  0
LINE
  8
0
 10
-195.525
 20
-1.61679
 11
-195.626
 21
-1.58061
  0
LINE
  8
0
 10
-195.626
 20
-1.58061
 11
-195.724
 21
-1.53819
  0
LINE
  8
0
 10
-195.724
 20
-1.53819
 11
-195.819
 21
-1.48972
  0
LINE
  8
0
 10
-195.819
 20
-1.48972
 11
-195.911
 21
-1.43535
  0
LINE
  8
0
 10
-195.911
 20
-1.43535
 11
-195.999
 21
-1.37532
  0
LINE
  8
0
 10
-195.999
 20
-1.37532
 11
-196.084
 21
-1.30986
  0
LINE
  8
0
 10
-196.084
 20
-1.30986
 11
-196.164
 21
-1.23924
  0
LINE
  8
0
 10
-196.164
 20
-1.23924
 11
-196.239
 21
-1.16373
  0
LINE
  8
0
 10
-196.239
 20
-1.16373
 11
-196.31
 21
-1.08362
  0
LINE
  8
0
 10
-196.31
 20
-1.08362
 11
-196.375
 21
-0.999222
  0
LINE
  8
0
 10
-196.375
 20
-0.999222
 11
-196.435
 21
-0.910904
  0
LINE
  8
0
 10
-196.435
 20
-0.910904
 11
-196.49
 21
-0.81897
  0
LINE
  8
0
 10
-196.49
 20
-0.81897
 11
-196.538
 21
-0.723816
  0
LINE
  8
0
 10
-196.538
 20
-0.723816
 11
-196.581
 21
-0.625809
  0
LINE
  8
0
 10
-196.581
 20
-0.625809
 11
-196.617
 21
-0.525314
  0
LINE
  8
0
 10
-196.617
 20
-0.525314
 11
-196.647
 21
-0.42276
  0
LINE
  8
0
 10
-196.647
 20
-0.42276
 11
-196.67
 21
-0.318542
  0
LINE
  8
0
 10
-196.67
 20
-0.318542
 11
-196.687
 21
-0.213058
  0
LINE
  8
0
 10
-196.687
 20
-0.213058
 11
-196.697
 21
-0.106735
  0
LINE
  8
0
 10
-196.697
 20
-0.106735
 11
-196.7
 21
0
  0
LINE
  8
0
 10
-196.7
 20
0
 11
-196.697
 21
0.106735
  0
LINE
  8
0
 10
-196.697
 20
0.106735
 11
-196.687
 21
0.213058
  0
LINE
  8
0
 10
-196.687
 20
0.213058
 11
-196.67
 21
0.318542
  0
LINE
  8
0
 10
-196.67
 20
0.318542
 11
-196.647
 21
0.42276
  0
LINE
  8
0
 10
-196.647
 20
0.42276
 11
-196.617
 21
0.525314
  0
LINE
  8
0
 10
-196.617
 20
0.525314
 11
-196.581
 21
0.625809
  0
LINE
  8
0
 10
-196.581
 20
0.625809
 11
-196.538
 21
0.723816
  0
LINE
  8
0
 10
-196.538
 20
0.723816
 11
-196.49
 21
0.81897
  0
LINE
  8
0
 10
-196.49
 20
0.81897
 11
-196.435
 21
0.910904
  0
LINE
  8
0
 10
-196.435
 20
0.910904
 11
-196.375
 21
0.999222
  0
LINE
  8
0
 10
-196.375
 20
0.999222
 11
-196.31
 21
1.08362
  0
LINE
  8
0
 10
-196.31
 20
1.08362
 11
-196.239
 21
1.16373
  0
LINE
  8
0
 10
-196.239
 20
1.16373
 11
-196.164
 21
1.23924
  0
LINE
  8
0
 10
-196.164
 20
1.23924
 11
-196.084
 21
1.30986
  0
LINE
  8
0
 10
-196.084
 20
1.30986
 11
-195.999
 21
1.37532
  0
LINE
  8
0
 10
-195.999
 20
1.37532
 11
-195.911
 21
1.43535
  0
LINE
  8
0
 10
-195.911
 20
1.43535
 11
-195.819
 21
1.48972
  0
LINE
  8
0
 10
-195.819
 20
1.48972
 11
-195.724
 21
1.53819
  0
LINE
  8
0
 10
-195.724
 20
1.53819
 11
-195.626
 21
1.58061
  0
LINE
  8
0
 10
-195.626
 20
1.58061
 11
-195.525
 21
1.61679
  0
LINE
  8
0
 10
-195.525
 20
1.61679
 11
-195.423
 21
1.64659
  0
LINE
  8
0
 10
-195.423
 20
1.64659
 11
-195.319
 21
1.66988
  0
LINE
  8
0
 10
-195.319
 20
1.66988
 11
-195.213
 21
1.68658
  0
LINE
  8
0
 10
-195.213
 20
1.68658
 11
-195.107
 21
1.69664
  0
LINE
  8
0
 10
-195.107
 20
1.69664
 11
-195
 21
1.7
  0
LINE
  8
0
 10
-195
 20
1.7
 11
-194.893
 21
1.69664
  0
LINE
  8
0
 10
-194.893
 20
1.69664
 11
-194.787
 21
1.68658
  0
LINE
  8
0
 10
-194.787
 20
1.68658
 11
-194.681
 21
1.66988
  0
LINE
  8
0
 10
-194.681
 20
1.66988
 11
-194.577
 21
1.64659
  0
LINE
  8
0
 10
-194.577
 20
1.64659
 11
-194.475
 21
1.61679
  0
LINE
  8
0
 10
-194.475
 20
1.61679
 11
-194.374
 21
1.58061
  0
LINE
  8
0
 10
-194.374
 20
1.58061
 11
-194.276
 21
1.53819
  0
LINE
  8
0
 10
-194.276
 20
1.53819
 11
-194.181
 21
1.48972
  0
LINE
  8
0
 10
-194.181
 20
1.48972
 11
-194.089
 21
1.43535
  0
LINE
  8
0
 10
-194.089
 20
1.43535
 11
-194.001
 21
1.37532
  0
LINE
  8
0
 10
-194.001
 20
1.37532
 11
-193.916
 21
1.30986
  0
LINE
  8
0
 10
-193.916
 20
1.30986
 11
-193.836
 21
1.23924
  0
LINE
  8
0
 10
-193.836
 20
1.23924
 11
-193.761
 21
1.16373
  0
LINE
  8
0
 10
-193.761
 20
1.16373
 11
-193.69
 21
1.08362
  0
LINE
  8
0
 10
-193.69
 20
1.08362
 11
-193.625
 21
0.999222
  0
LINE
  8
0
 10
-193.625
 20
0.999222
 11
-193.565
 21
0.910904
  0
LINE
  8
0
 10
-193.565
 20
0.910904
 11
-193.51
 21
0.81897
  0
LINE
  8
0
 10
-193.51
 20
0.81897
 11
-193.462
 21
0.723816
  0
LINE
  8
0
 10
-193.462
 20
0.723816
 11
-193.419
 21
0.625809
  0
LINE
  8
0
 10
-193.419
 20
0.625809
 11
-193.383
 21
0.525314
  0
LINE
  8
0
 10
-193.383
 20
0.525314
 11
-193.353
 21
0.42276
  0
LINE
  8
0
 10
-193.353
 20
0.42276
 11
-193.33
 21
0.318542
  0
LINE
  8
0
 10
-193.33
 20
0.318542
 11
-193.313
 21
0.213058
  0
LINE
  8
0
 10
-193.313
 20
0.213058
 11
-193.303
 21
0.106735
  0
LINE
  8
0
 10
-193.303
 20
0.106735
 11
-193.3
 21
0
  0
LINE
  8
0
 10
-193.3
 20
0
 11
-193.303
 21
-0.106735
  0
LINE
  8
0
 10
-193.303
 20
-0.106735
 11
-193.313
 21
-0.213058
  0
LINE
  8
0
 10
-193.313
 20
-0.213058
 11
-193.33
 21
-0.318542
  0
LINE
  8
0
 10
-193.33
 20
-0.318542
 11
-193.353
 21
-0.42276
  0
LINE
  8
0
 10
-193.353
 20
-0.42276
 11
-193.383
 21
-0.525314
  0
LINE
  8
0
 10
-193.383
 20
-0.525314
 11
-193.419
 21
-0.625809
  0
LINE
  8
0
 10
-193.419
 20
-0.625809
 11
-193.462
 21
-0.723816
  0
LINE
  8
0
 10
-193.462
 20
-0.723816
 11
-193.51
 21
-0.81897
  0
LINE
  8
0
 10
-193.51
 20
-0.81897
 11
-193.565
 21
-0.910904
  0
LINE
  8
0
 10
-193.565
 20
-0.910904
 11
-193.625
 21
-0.999222
  0
LINE
  8
0
 10
-193.625
 20
-0.999222
 11
-193.69
 21
-1.08362
  0
LINE
  8
0
 10
-193.69
 20
-1.08362
 11
-193.761
 21
-1.16373
  0
LINE
  8
0
 10
-193.761
 20
-1.16373
 11
-193.836
 21
-1.23924
  0
LINE
  8
0
 10
-193.836
 20
-1.23924
 11
-193.916
 21
-1.30986
  0
LINE
  8
0
 10
-193.916
 20
-1.30986
 11
-194.001
 21
-1.37532
  0
LINE
  8
0
 10
-194.001
 20
-1.37532
 11
-194.089
 21
-1.43535
  0
LINE
  8
0
 10
-194.089
 20
-1.43535
 11
-194.181
 21
-1.48972
  0
LINE
  8
0
 10
-194.181
 20
-1.48972
 11
-194.276
 21
-1.53819
  0
LINE
  8
0
 10
-194.276
 20
-1.53819
 11
-194.374
 21
-1.58061
  0
LINE
  8
0
 10
-194.374
 20
-1.58061
 11
-194.475
 21
-1.61679
  0
LINE
  8
0
 10
-194.475
 20
-1.61679
 11
-194.577
 21
-1.64659
  0
LINE
  8
0
 10
-194.577
 20
-1.64659
 11
-194.681
 21
-1.66988
  0
LINE
  8
0
 10
-194.681
 20
-1.66988
 11
-194.787
 21
-1.68658
  0
LINE
  8
0
 10
-194.787
 20
-1.68658
 11
-194.893
 21
-1.69664
  0
LINE
  8
0
 10
-194.893
 20
-1.69664
 11
-195
 21
-1.7
  0
LINE
  8
0
 10
-195
 20
-1.7
 11
-195.107
 21
-1.69664
  0
LINE
  8
0
 10
194.893
 20
-1.69664
 11
194.787
 21
-1.68658
  0
LINE
  8
0
 10
194.787
 20
-1.68658
 11
194.681
 21
-1.66988
  0
LINE
  8
0
 10
194.681
 20
-1.66988
 11
194.577
 21
-1.64659
  0
LINE
  8
0
 10
194.577
 20
-1.64659
 11
194.475
 21
-1.61679
  0
LINE
  8
0
 10
194.475
 20
-1.61679
 11
194.374
 21
-1.58061
  0
LINE
  8
0
 10
194.374
 20
-1.58061
 11
194.276
 21
-1.53819
  0
LINE
  8
0
 10
194.276
 20
-1.53819
 11
194.181
 21
-1.48972
  0
LINE
  8
0
 10
194.181
 20
-1.48972
 11
194.089
 21
-1.43535
  0
LINE
  8
0
 10
194.089
 20
-1.43535
 11
194.001
 21
-1.37532
  0
LINE
  8
0
 10
194.001
 20
-1.37532
 11
193.916
 21
-1.30986
  0
LINE
  8
0
 10
193.916
 20
-1.30986
 11
193.836
 21
-1.23924
  0
LINE
  8
0
 10
193.836
 20
-1.23924
 11
193.761
 21
-1.16373
  0
LINE
  8
0
 10
193.761
 20
-1.16373
 11
193.69
 21
-1.08362
  0
LINE
  8
0
 10
193.69
 20
-1.08362
 11
193.625
 21
-0.999222
  0
LINE
  8
0
 10
193.625
 20
-0.999222
 11
193.565
 21
-0.910904
  0
LINE
  8
0
 10
193.565
 20
-0.910904
 11
193.51
 21
-0.81897
  0
LINE
  8
0
 10
193.51
 20
-0.81897
 11
193.462
 21
-0.723816
  0
LINE
  8
0
 10
193.462
 20
-0.723816
 11
193.419
 21
-0.625809
  0
LINE
  8
0
 10
193.419
 20
-0.625809
 11
193.383
 21
-0.525314
  0
LINE
  8
0
 10
193.383
 20
-0.525314
 11
193.353
 21
-0.42276
  0
LINE
  8
0
 10
193.353
 20
-0.42276
 11
193.33
 21
-0.318542
  0
LINE
  8
0
 10
193.33
 20
-0.318542
 11
193.313
 21
-0.213058
  0
LINE
  8
0
 10
193.313
 20
-0.213058
 11
193.303
 21
-0.106735
  0
LINE
  8
0
 10
193.303
 20
-0.106735
 11
193.3
 21
0
  0
LINE
  8
0
 10
193.3
 20
0
 11
193.303
 21
0.106735
  0
LINE
  8
0
 10
193.303
 20
0.106735
 11
193.313
 21
0.213058
  0
LINE
  8
0
 10
193.313
 20
0.213058
 11
193.33
 21
0.318542
  0
LINE
  8
0
 10
193.33
 20
0.318542
 11
193.353
 21
0.42276
  0
LINE
  8
0
 10
193.353
 20
0.42276
 11
193.383
 21
0.525314
  0
LINE
  8
0
 10
193.383
 20
0.525314
 11
193.419
 21
0.625809
  0
LINE
  8
0
 10
193.419
 20
0.625809
 11
193.462
 21
0.723816
  0
LINE
  8
0
 10
193.462
 20
0.723816
 11
193.51
 21
0.81897
  0
LINE
  8
0
 10
193.51
 20
0.81897
 11
193.565
 21
0.910904
  0
LINE
  8
0
 10
193.565
 20
0.910904
 11
193.625
 21
0.999222
  0
LINE
  8
0
 10
193.625
 20
0.999222
 11
193.69
 21
1.08362
  0
LINE
  8
0
 10
193.69
 20
1.08362
 11
193.761
 21
1.16373
  0
LINE
  8
0
 10
193.761
 20
1.16373
 11
193.836
 21
1.23924
  0
LINE
  8
0
 10
193.836
 20
1.23924
 11
193.916
 21
1.30986
  0
LINE
  8
0
 10
193.916
 20
1.30986
 11
194.001
 21
1.37532
  0
LINE
  8
0
 10
194.001
 20
1.37532
 11
194.089
 21
1.43535
  0
LINE
  8
0
 10
194.089
 20
1.43535
 11
194.181
 21
1.48972
  0
LINE
  8
0
 10
194.181
 20
1.48972
 11
194.276
 21
1.53819
  0
LINE
  8
0
 10
194.276
 20
1.53819
 11
194.374
 21
1.58061
  0
LINE
  8
0
 10
194.374
 20
1.58061
 11
194.475
 21
1.61679
  0
LINE
  8
0
 10
194.475
 20
1.61679
 11
194.577
 21
1.64659
  0
LINE
  8
0
 10
194.577
 20
1.64659
 11
194.681
 21
1.66988
  0
LINE
  8
0
 10
194.681
 20
1.66988
 11
194.787
 21
1.68658
  0
LINE
  8
0
 10
194.787
 20
1.68658
 11
194.893
 21
1.69664
  0
LINE
  8
0
 10
194.893
 20
1.69664
 11
195
 21
1.7
  0
LINE
  8
0
 10
195
 20
1.7
 11
195.107
 21
1.69664
  0
LINE
  8
0
 10
195.107
 20
1.69664
 11
195.213
 21
1.68658
  0
LINE
  8
0
 10
195.213
 20
1.68658
 11
195.319
 21
1.66988
  0
LINE
  8
0
 10
195.319
 20
1.66988
 11
195.423
 21
1.64659
  0
LINE
  8
0
 10
195.423
 20
1.64659
 11
195.525
 21
1.61679
  0
LINE
  8
0
 10
195.525
 20
1.61679
 11
195.626
 21
1.58061
  0
LINE
  8
0
 10
195.626
 20
1.58061
 11
195.724
 21
1.53819
  0
LINE
  8
0
 10
195.724
 20
1.53819
 11
195.819
 21
1.48972
  0
LINE
  8
0
 10
195.819
 20
1.48972
 11
195.911
 21
1.43535
  0
LINE
  8
0
 10
195.911
 20
1.43535
 11
195.999
 21
1.37532
  0
LINE
  8
0
 10
195.999
 20
1.37532
 11
196.084
 21
1.30986
  0
LINE
  8
0
 10
196.084
 20
1.30986
 11
196.164
 21
1.23924
  0
LINE
  8
0
 10
196.164
 20
1.23924
 11
196.239
 21
1.16373
  0
LINE
  8
0
 10
196.239
 20
1.16373
 11
196.31
 21
1.08362
  0
LINE
  8
0
 10
196.31
 20
1.08362
 11
196.375
 21
0.999222
  0
LINE
  8
0
 10
196.375
 20
0.999222
 11
196.435
 21
0.910904
  0
LINE
  8
0
 10
196.435
 20
0.910904
 11
196.49
 21
0.81897
  0
LINE
  8
0
 10
196.49
 20
0.81897
 11
196.538
 21
0.723816
  0
LINE
  8
0
 10
196.538
 20
0.723816
 11
196.581
 21
0.625809
  0
LINE
  8
0
 10
196.581
 20
0.625809
 11
196.617
 21
0.525314
  0
LINE
  8
0
 10
196.617
 20
0.525314
 11
196.647
 21
0.42276
  0
LINE
  8
0
 10
196.647
 20
0.42276
 11
196.67
 21
0.318542
  0
LINE
  8
0
 10
196.67
 20
0.318542
 11
196.687
 21
0.213058
  0
LINE
  8
0
 10
196.687
 20
0.213058
 11
196.697
 21
0.106735
  0
LINE
  8
0
 10
196.697
 20
0.106735
 11
196.7
 21
0
  0
LINE
  8
0
 10
196.7
 20
0
 11
196.697
 21
-0.106735
  0
LINE
  8
0
 10
196.697
 20
-0.106735
 11
196.687
 21
-0.213058
  0
LINE
  8
0
 10
196.687
 20
-0.213058
 11
196.67
 21
-0.318542
  0
LINE
  8
0
 10
196.67
 20
-0.318542
 11
196.647
 21
-0.42276
  0
LINE
  8
0
 10
196.647
 20
-0.42276
 11
196.617
 21
-0.525314
  0
LINE
  8
0
 10
196.617
 20
-0.525314
 11
196.581
 21
-0.625809
  0
LINE
  8
0
 10
196.581
 20
-0.625809
 11
196.538
 21
-0.723816
  0
LINE
  8
0
 10
196.538
 20
-0.723816
 11
196.49
 21
-0.81897
  0
LINE
  8
0
 10
196.49
 20
-0.81897
 11
196.435
 21
-0.910904
  0
LINE
  8
0
 10
196.435
 20
-0.910904
 11
196.375
 21
-0.999222
  0
LINE
  8
0
 10
196.375
 20
-0.999222
 11
196.31
 21
-1.08362
  0
LINE
  8
0
 10
196.31
 20
-1.08362
 11
196.239
 21
-1.16373
  0
LINE
  8
0
 10
196.239
 20
-1.16373
 11
196.164
 21
-1.23924
  0
LINE
  8
0
 10
196.164
 20
-1.23924
 11
196.084
 21
-1.30986
  0
LINE
  8
0
 10
196.084
 20
-1.30986
 11
195.999
 21
-1.37532
  0
LINE
  8
0
 10
195.999
 20
-1.37532
 11
195.911
 21
-1.43535
  0
LINE
  8
0
 10
195.911
 20
-1.43535
 11
195.819
 21
-1.48972
  0
LINE
  8
0
 10
195.819
 20
-1.48972
 11
195.724
 21
-1.53819
  0
LINE
  8
0
 10
195.724
 20
-1.53819
 11
195.626
 21
-1.58061
  0
LINE
  8
0
 10
195.626
 20
-1.58061
 11
195.525
 21
-1.61679
  0
LINE
  8
0
 10
195.525
 20
-1.61679
 11
195.423
 21
-1.64659
  0
LINE
  8
0
 10
195.423
 20
-1.64659
 11
195.319
 21
-1.66988
  0
LINE
  8
0
 10
195.319
 20
-1.66988
 11
195.213
 21
-1.68658
  0
LINE
  8
0
 10
195.213
 20
-1.68658
 11
195.107
 21
-1.69664
  0
LINE
  8
0
 10
195.107
 20
-1.69664
 11
195
 21
-1.7
  0
LINE
  8
0
 10
195
 20
-1.7
 11
194.893
 21
-1.69664
  0
LINE
  8
0
 10
19.8932
 20
-21.6966
 11
19.7869
 21
-21.6866
  0
LINE
  8
0
 10
19.7869
 20
-21.6866
 11
19.6814
 21
-21.6699
  0
LINE
  8
0
 10
19.6814
 20
-21.6699
 11
19.5772
 21
-21.6466
  0
LINE
  8
0
 10
19.5772
 20
-21.6466
 11
19.4747
 21
-21.6168
  0
LINE
  8
0
 10
19.4747
 20
-21.6168
 11
19.3742
 21
-21.5806
  0
LINE
  8
0
 10
19.3742
 20
-21.5806
 11
19.2762
 21
-21.5382
  0
LINE
  8
0
 10
19.2762
 20
-21.5382
 11
19.181
 21
-21.4897
  0
LINE
  8
0
 10
19.181
 20
-21.4897
 11
19.0891
 21
-21.4353
  0
LINE
  8
0
 10
19.0891
 20
-21.4353
 11
19.0008
 21
-21.3753
  0
LINE
  8
0
 10
19.0008
 20
-21.3753
 11
18.9164
 21
-21.3099
  0
LINE
  8
0
 10
18.9164
 20
-21.3099
 11
18.8363
 21
-21.2392
  0
LINE
  8
0
 10
18.8363
 20
-21.2392
 11
18.7607
 21
-21.1637
  0
LINE
  8
0
 10
18.7607
 20
-21.1637
 11
18.6901
 21
-21.0836
  0
LINE
  8
0
 10
18.6901
 20
-21.0836
 11
18.6247
 21
-20.9992
  0
LINE
  8
0
 10
18.6247
 20
-20.9992
 11
18.5646
 21
-20.9109
  0
LINE
  8
0
 10
18.5646
 20
-20.9109
 11
18.5103
 21
-20.819
  0
LINE
  8
0
 10
18.5103
 20
-20.819
 11
18.4618
 21
-20.7238
  0
LINE
  8
0
 10
18.4618
 20
-20.7238
 11
18.4194
 21
-20.6258
  0
LINE
  8
0
 10
18.4194
 20
-20.6258
 11
18.3832
 21
-20.5253
  0
LINE
  8
0
 10
18.3832
 20
-20.5253
 11
18.3534
 21
-20.4228
  0
LINE
  8
0
 10
18.3534
 20
-20.4228
 11
18.3301
 21
-20.3185
  0
LINE
  8
0
 10
18.3301
 20
-20.3185
 11
18.3134
 21
-20.2131
  0
LINE
  8
0
 10
18.3134
 20
-20.2131
 11
18.3033
 21
-20.1067
  0
LINE
  8
0
 10
18.3033
 20
-20.1067
 11
18.3
 21
-20
  0
LINE
  8
0
 10
18.3
 20
-20
 11
18.3033
 21
-19.8932
  0
LINE
  8
0
 10
18.3033
 20
-19.8932
 11
18.3134
 21
-19.7869
  0
LINE
  8
0
 10
18.3134
 20
-19.7869
 11
18.3301
 21
-19.6814
  0
LINE
  8
0
 10
18.3301
 20
-19.6814
 11
18.3534
 21
-19.5772
  0
LINE
  8
0
 10
18.3534
 20
-19.5772
 11
18.3832
 21
-19.4747
  0
LINE
  8
0
 10
18.3832
 20
-19.4747
 11
18.4194
 21
-19.3742
  0
LINE
  8
0
 10
18.4194
 20
-19.3742
 11
18.4618
 21
-19.2762
  0
LINE
  8
0
 10
18.4618
 20
-19.2762
 11
18.5103
 21
-19.181
  0
LINE
  8
0
 10
18.5103
 20
-19.181
 11
18.5646
 21
-19.0891
  0
LINE
  8
0
 10
18.5646
 20
-19.0891
 11
18.6247
 21
-19.0008
  0
LINE
  8
0
 10
18.6247
 20
-19.0008
 11
18.6901
 21
-18.9164
  0
LINE
  8
0
 10
18.6901
 20
-18.9164
 11
18.7607
 21
-18.8363
  0
LINE
  8
0
 10
18.7607
 20
-18.8363
 11
18.8363
 21
-18.7607
  0
LINE
  8
0
 10
18.8363
 20
-18.7607
 11
18.9164
 21
-18.6901
  0
LINE
  8
0
 10
18.9164
 20
-18.6901
 11
19.0008
 21
-18.6247
  0
LINE
  8
0
 10
19.0008
 20
-18.6247
 11
19.0891
 21
-18.5646
  0
LINE
  8
0
 10
19.0891
 20
-18.5646
 11
19.181
 21
-18.5103
  0
LINE
  8
0
 10
19.181
 20
-18.5103
 11
19.2762
 21
-18.4618
  0
LINE
  8
0
 10
19.2762
 20
-18.4618
 11
19.3742
 21
-18.4194
  0
LINE
  8
0
 10
19.3742
 20
-18.4194
 11
19.4747
 21
-18.3832
  0
LINE
  8
0
 10
19.4747
 20
-18.3832
 11
19.5772
 21
-18.3534
  0
LINE
  8
0
 10
19.5772
 20
-18.3534
 11
19.6814
 21
-18.3301
  0
LINE
  8
0
 10
19.6814
 20
-18.3301
 11
19.7869
 21
-18.3134
  0
LINE
  8
0
 10
19.7869
 20
-18.3134
 11
19.8932
 21
-18.3033
  0
LINE
  8
0
 10
19.8932
 20
-18.3033
 11
20
 21
-18.3
  0
LINE
  8
0
 10
20
 20
-18.3
 11
20.1067
 21
-18.3033
  0
LINE
  8
0
 10
20.1067
 20
-18.3033
 11
20.2131
 21
-18.3134
  0
LINE
  8
0
 10
20.2131
 20
-18.3134
 11
20.3185
 21
-18.3301
  0
LINE
  8
0
 10
20.3185
 20
-18.3301
 11
20.4228
 21
-18.3534
  0
LINE
  8
0
 10
20.4228
 20
-18.3534
 11
20.5253
 21
-18.3832
  0
LINE
  8
0
 10
20.5253
 20
-18.3832
 11
20.6258
 21
-18.4194
  0
LINE
  8
0
 10
20.6258
 20
-18.4194
 11
20.7238
 21
-18.4618
  0
LINE
  8
0
 10
20.7238
 20
-18.4618
 11
20.819
 21
-18.5103
  0
LINE
  8
0
 10
20.819
 20
-18.5103
 11
20.9109
 21
-18.5646
  0
LINE
  8
0
 10
20.9109
 20
-18.5646
 11
20.9992
 21
-18.6247
  0
LINE
  8
0
 10
20.9992
 20
-18.6247
 11
21.0836
 21
-18.6901
  0
LINE
  8
0
 10
21.0836
 20
-18.6901
 11
21.1637
 21
-18.7607
  0
LINE
  8
0
 10
21.1637
 20
-18.7607
 11
21.2392
 21
-18.8363
  0
LINE
  8
0
 10
21.2392
 20
-18.8363
 11
21.3099
 21
-18.9164
  0
LINE
  8
0
 10
21.3099
 20
-18.9164
 11
21.3753
 21
-19.0008
  0
LINE
  8
0
 10
21.3753
 20
-19.0008
 11
21.4353
 21
-19.0891
  0
LINE
  8
0
 10
21.4353
 20
-19.0891
 11
21.4897
 21
-19.181
  0
LINE
  8
0
 10
21.4897
 20
-19.181
 11
21.5382
 21
-19.2762
  0
LINE
  8
0
 10
21.5382
 20
-19.2762
 11
21.5806
 21
-19.3742
  0
LINE
  8
0
 10
21.5806
 20
-19.3742
 11
21.6168
 21
-19.4747
  0
LINE
  8
0
 10
21.6168
 20
-19.4747
 11
21.6466
 21
-19.5772
  0
LINE
  8
0
 10
21.6466
 20
-19.5772
 11
21.6699
 21
-19.6814
  0
LINE
  8
0
 10
21.6699
 20
-19.6814
 11
21.6866
 21
-19.7869
  0
LINE
  8
0
 10
21.6866
 20
-19.7869
 11
21.6966
 21
-19.8932
  0
LINE
  8
0
 10
21.6966
 20
-19.8932
 11
21.7
 21
-20
  0
LINE
  8
0
 10
21.7
 20
-20
 11
21.6966
 21
-20.1067
  0
LINE
  8
0
 10
21.6966
 20
-20.1067
 11
21.6866
 21
-20.2131
  0
LINE
  8
0
 10
21.6866
 20
-20.2131
 11
21.6699
 21
-20.3185
  0
LINE
  8
0
 10
21.6699
 20
-20.3185
 11
21.6466
 21
-20.4228
  0
LINE
  8
0
 10
21.6466
 20
-20.4228
 11
21.6168
 21
-20.5253
  0
LINE
  8
0
 10
21.6168
 20
-20.5253
 11
21.5806
 21
-20.6258
  0
LINE
  8
0
 10
21.5806
 20
-20.6258
 11
21.5382
 21
-20.7238
  0
LINE
  8
0
 10
21.5382
 20
-20.7238
 11
21.4897
 21
-20.819
  0
LINE
  8
0
 10
21.4897
 20
-20.819
 11
21.4353
 21
-20.9109
  0
LINE
  8
0
 10
21.4353
 20
-20.9109
 11
21.3753
 21
-20.9992
  0
LINE
  8
0
 10
21.3753
 20
-20.9992
 11
21.3099
 21
-21.0836
  0
LINE
  8
0
 10
21.3099
 20
-21.0836
 11
21.2392
 21
-21.1637
  0
LINE
  8
0
 10
21.2392
 20
-21.1637
 11
21.1637
 21
-21.2392
  0
LINE
  8
0
 10
21.1637
 20
-21.2392
 11
21.0836
 21
-21.3099
  0
LINE
  8
0
 10
21.0836
 20
-21.3099
 11
20.9992
 21
-21.3753
  0
LINE
  8
0
 10
20.9992
 20
-21.3753
 11
20.9109
 21
-21.4353
  0
LINE
  8
0
 10
20.9109
 20
-21.4353
 11
20.819
 21
-21.4897
  0
LINE
  8
0
 10
20.819
 20
-21.4897
 11
20.7238
 21
-21.5382
  0
LINE
  8
0
 10
20.7238
 20
-21.5382
 11
20.6258
 21
-21.5806
  0
LINE
  8
0
 10
20.6258
 20
-21.5806
 11
20.5253
 21
-21.6168
  0
LINE
  8
0
 10
20.5253
 20
-21.6168
 11
20.4228
 21
-21.6466
  0
LINE
  8
0
 10
20.4228
 20
-21.6466
 11
20.3185
 21
-21.6699
  0
LINE
  8
0
 10
20.3185
 20
-21.6699
 11
20.2131
 21
-21.6866
  0
LINE
  8
0
 10
20.2131
 20
-21.6866
 11
20.1067
 21
-21.6966
  0
LINE
  8
0
 10
20.1067
 20
-21.6966
 11
20
 21
-21.7
  0
LINE
  8
0
 10
20
 20
-21.7
 11
19.8932
 21
-21.6966
  0
LINE
  8
0
 10
-20.1067
 20
-21.6966
 11
-20.2131
 21
-21.6866
  0
LINE
  8
0
 10
-20.2131
 20
-21.6866
 11
-20.3185
 21
-21.6699
  0
LINE
  8
0
 10
-20.3185
 20
-21.6699
 11
-20.4228
 21
-21.6466
  0
LINE
  8
0
 10
-20.4228
 20
-21.6466
 11
-20.5253
 21
-21.6168
  0
LINE
  8
0
 10
-20.5253
 20
-21.6168
 11
-20.6258
 21
-21.5806
  0
LINE
  8
0
 10
-20.6258
 20
-21.5806
 11
-20.7238
 21
-21.5382
  0
LINE
  8
0
 10
-20.7238
 20
-21.5382
 11
-20.819
 21
-21.4897
  0
LINE
  8
0
 10
-20.819
 20
-21.4897
 11
-20.9109
 21
-21.4353
  0
LINE
  8
0
 10
-20.9109
 20
-21.4353
 11
-20.9992
 21
-21.3753
  0
LINE
  8
0
 10
-20.9992
 20
-21.3753
 11
-21.0836
 21
-21.3099
  0
LINE
  8
0
 10
-21.0836
 20
-21.3099
 11
-21.1637
 21
-21.2392
  0
LINE
  8
0
 10
-21.1637
 20
-21.2392
 11
-21.2392
 21
-21.1637
  0
LINE
  8
0
 10
-21.2392
 20
-21.1637
 11
-21.3099
 21
-21.0836
  0
LINE
  8
0
 10
-21.3099
 20
-21.0836
 11
-21.3753
 21
-20.9992
  0
LINE
  8
0
 10
-21.3753
 20
-20.9992
 11
-21.4353
 21
-20.9109
  0
LINE
  8
0
 10
-21.4353
 20
-20.9109
 11
-21.4897
 21
-20.819
  0
LINE
  8
0
 10
-21.4897
 20
-20.819
 11
-21.5382
 21
-20.7238
  0
LINE
  8
0
 10
-21.5382
 20
-20.7238
 11
-21.5806
 21
-20.6258
  0
LINE
  8
0
 10
-21.5806
 20
-20.6258
 11
-21.6168
 21
-20.5253
  0
LINE
  8
0
 10
-21.6168
 20
-20.5253
 11
-21.6466
 21
-20.4228
  0
LINE
  8
0
 10
-21.6466
 20
-20.4228
 11
-21.6699
 21
-20.3185
  0
LINE
  8
0
 10
-21.6699
 20
-20.3185
 11
-21.6866
 21
-20.2131
  0
LINE
  8
0
 10
-21.6866
 20
-20.2131
 11
-21.6966
 21
-20.1067
  0
LINE
  8
0
 10
-21.6966
 20
-20.1067
 11
-21.7
 21
-20
  0
LINE
  8
0
 10
-21.7
 20
-20
 11
-21.6966
 21
-19.8932
  0
LINE
  8
0
 10
-21.6966
 20
-19.8932
 11
-21.6866
 21
-19.7869
  0
LINE
  8
0
 10
-21.6866
 20
-19.7869
 11
-21.6699
 21
-19.6814
  0
LINE
  8
0
 10
-21.6699
 20
-19.6814
 11
-21.6466
 21
-19.5772
  0
LINE
  8
0
 10
-21.6466
 20
-19.5772
 11
-21.6168
 21
-19.4747
  0
LINE
  8
0
 10
-21.6168
 20
-19.4747
 11
-21.5806
 21
-19.3742
  0
LINE
  8
0
 10
-21.5806
 20
-19.3742
 11
-21.5382
 21
-19.2762
  0
LINE
  8
0
 10
-21.5382
 20
-19.2762
 11
-21.4897
 21
-19.181
  0
LINE
  8
0
 10
-21.4897
 20
-19.181
 11
-21.4353
 21
-19.0891
  0
LINE
  8
0
 10
-21.4353
 20
-19.0891
 11
-21.3753
 21
-19.0008
  0
LINE
  8
0
 10
-21.3753
 20
-19.0008
 11
-21.3099
 21
-18.9164
  0
LINE
  8
0
 10
-21.3099
 20
-18.9164
 11
-21.2392
 21
-18.8363
  0
LINE
  8
0
 10
-21.2392
 20
-18.8363
 11
-21.1637
 21
-18.7607
  0
LINE
  8
0
 10
-21.1637
 20
-18.7607
 11
-21.0836
 21
-18.6901
  0
LINE
  8
0
 10
-21.0836
 20
-18.6901
 11
-20.9992
 21
-18.6247
  0
LINE
  8
0
 10
-20.9992
 20
-18.6247
 11
-20.9109
 21
-18.5646
  0
LINE
  8
0
 10
-20.9109
 20
-18.5646
 11
-20.819
 21
-18.5103
  0
LINE
  8
0
 10
-20.819
 20
-18.5103
 11
-20.7238
 21
-18.4618
  0
LINE
  8
0
 10
-20.7238
 20
-18.4618
 11
-20.6258
 21
-18.4194
  0
LINE
  8
0
 10
-20.6258
 20
-18.4194
 11
-20.5253
 21
-18.3832
  0
LINE
  8
0
 10
-20.5253
 20
-18.3832
 11
-20.4228
 21
-18.3534
  0
LINE
  8
0
 10
-20.4228
 20
-18.3534
 11
-20.3185
 21
-18.3301
  0
LINE
  8
0
 10
-20.3185
 20
-18.3301
 11
-20.2131
 21
-18.3134
  0
LINE
  8
0
 10
-20.2131
 20
-18.3134
 11
-20.1067
 21
-18.3033
  0
LINE
  8
0
 10
-20.1067
 20
-18.3033
 11
-20
 21
-18.3
  0
LINE
  8
0
 10
-20
 20
-18.3
 11
-19.8932
 21
-18.3033
  0
LINE
  8
0
 10
-19.8932
 20
-18.3033
 11
-19.7869
 21
-18.3134
  0
LINE
  8
0
 10
-19.7869
 20
-18.3134
 11
-19.6814
 21
-18.3301
  0
LINE
  8
0
 10
-19.6814
 20
-18.3301
 11
-19.5772
 21
-18.3534
  0
LINE
  8
0
 10
-19.5772
 20
-18.3534
 11
-19.4747
 21
-18.3832
  0
LINE
  8
0
 10
-19.4747
 20
-18.3832
 11
-19.3742
 21
-18.4194
  0
LINE
  8
0
 10
-19.3742
 20
-18.4194
 11
-19.2762
 21
-18.4618
  0
LINE
  8
0
 10
-19.2762
 20
-18.4618
 11
-19.181
 21
-18.5103
  0
LINE
  8
0
 10
-19.181
 20
-18.5103
 11
-19.0891
 21
-18.5646
  0
LINE
  8
0
 10
-19.0891
 20
-18.5646
 11
-19.0008
 21
-18.6247
  0
LINE
  8
0
 10
-19.0008
 20
-18.6247
 11
-18.9164
 21
-18.6901
  0
LINE
  8
0
 10
-18.9164
 20
-18.6901
 11
-18.8363
 21
-18.7607
  0
LINE
  8
0
 10
-18.8363
 20
-18.7607
 11
-18.7607
 21
-18.8363
  0
LINE
  8
0
 10
-18.7607
 20
-18.8363
 11
-18.6901
 21
-18.9164
  0
LINE
  8
0
 10
-18.6901
 20
-18.9164
 11
-18.6247
 21
-19.0008
  0
LINE
  8
0
 10
-18.6247
 20
-19.0008
 11
-18.5646
 21
-19.0891
  0
LINE
  8
0
 10
-18.5646
 20
-19.0891
 11
-18.5103
 21
-19.181
  0
LINE
  8
0
 10
-18.5103
 20
-19.181
 11
-18.4618
 21
-19.2762
  0
LINE
  8
0
 10
-18.4618
 20
-19.2762
 11
-18.4194
 21
-19.3742
  0
LINE
  8
0
 10
-18.4194
 20
-19.3742
 11
-18.3832
 21
-19.4747
  0
LINE
  8
0
 10
-18.3832
 20
-19.4747
 11
-18.3534
 21
-19.5772
  0
LINE
  8
0
 10
-18.3534
 20
-19.5772
 11
-18.3301
 21
-19.6814
  0
LINE
  8
0
 10
-18.3301
 20
-19.6814
 11
-18.3134
 21
-19.7869
  0
LINE
  8
0
 10
-18.3134
 20
-19.7869
 11
-18.3033
 21
-19.8932
  0
LINE
  8
0
 10
-18.3033
 20
-19.8932
 11
-18.3
 21
-20
  0
LINE
  8
0
 10
-18.3
 20
-20
 11
-18.3033
 21
-20.1067
  0
LINE
  8
0
 10
-18.3033
 20
-20.1067
 11
-18.3134
 21
-20.2131
  0
LINE
  8
0
 10
-18.3134
 20
-20.2131
 11
-18.3301
 21
-20.3185
  0
LINE
  8
0
 10
-18.3301
 20
-20.3185
 11
-18.3534
 21
-20.4228
  0
LINE
  8
0
 10
-18.3534
 20
-20.4228
 11
-18.3832
 21
-20.5253
  0
LINE
  8
0
 10
-18.3832
 20
-20.5253
 11
-18.4194
 21
-20.6258
  0
LINE
  8
0
 10
-18.4194
 20
-20.6258
 11
-18.4618
 21
-20.7238
  0
LINE
  8
0
 10
-18.4618
 20
-20.7238
 11
-18.5103
 21
-20.819
  0
LINE
  8
0
 10
-18.5103
 20
-20.819
 11
-18.5646
 21
-20.9109
  0
LINE
  8
0
 10
-18.5646
 20
-20.9109
 11
-18.6247
 21
-20.9992
  0
LINE
  8
0
 10
-18.6247
 20
-20.9992
 11
-18.6901
 21
-21.0836
  0
LINE
  8
0
 10
-18.6901
 20
-21.0836
 11
-18.7607
 21
-21.1637
  0
LINE
  8
0
 10
-18.7607
 20
-21.1637
 11
-18.8363
 21
-21.2392
  0
LINE
  8
0
 10
-18.8363
 20
-21.2392
 11
-18.9164
 21
-21.3099
  0
LINE
  8
0
 10
-18.9164
 20
-21.3099
 11
-19.0008
 21
-21.3753
  0
LINE
  8
0
 10
-19.0008
 20
-21.3753
 11
-19.0891
 21
-21.4353
  0
LINE
  8
0
 10
-19.0891
 20
-21.4353
 11
-19.181
 21
-21.4897
  0
LINE
  8
0
 10
-19.181
 20
-21.4897
 11
-19.2762
 21
-21.5382
  0
LINE
  8
0
 10
-19.2762
 20
-21.5382
 11
-19.3742
 21
-21.5806
  0
LINE
  8
0
 10
-19.3742
 20
-21.5806
 11
-19.4747
 21
-21.6168
  0
LINE
  8
0
 10
-19.4747
 20
-21.6168
 11
-19.5772
 21
-21.6466
  0
LINE
  8
0
 10
-19.5772
 20
-21.6466
 11
-19.6814
 21
-21.6699
  0
LINE
  8
0
 10
-19.6814
 20
-21.6699
 11
-19.7869
 21
-21.6866
  0
LINE
  8
0
 10
-19.7869
 20
-21.6866
 11
-19.8932
 21
-21.6966
  0
LINE
  8
0
 10
-19.8932
 20
-21.6966
 11
-20
 21
-21.7
  0
LINE
  8
0
 10
-20
 20
-21.7
 11
-20.1067
 21
-21.6966
  0
ENDSEC
  0
SECTION
  2
OBJECTS
  0
DICTIONARY
  0
ENDSEC
  0
EOF
