  0
SECTION
  2
BLOCKS
  0
ENDSEC
  0
SECTION
  2
ENTITIES
  0
LINE
  8
0
 10
120
 20
-20
 11
150
 21
-20
  0
LINE
  8
0
 10
150
 20
-20
 11
150
 21
50
  0
LINE
  8
0
 10
150
 20
50
 11
-150
 21
50
  0
LINE
  8
0
 10
-150
 20
50
 11
-150
 21
-20
  0
LINE
  8
0
 10
-150
 20
-20
 11
-120
 21
-20
  0
LINE
  8
0
 10
-120
 20
-20
 11
-120
 21
-50
  0
LINE
  8
0
 10
-120
 20
-50
 11
120
 21
-50
  0
LINE
  8
0
 10
120
 20
-50
 11
120
 21
-20
  0
LINE
  8
0
 10
-0.106735
 20
38.3033
 11
-0.213058
 21
38.3134
  0
LINE
  8
0
 10
-0.213058
 20
38.3134
 11
-0.318542
 21
38.3301
  0
LINE
  8
0
 10
-0.318542
 20
38.3301
 11
-0.42276
 21
38.3534
  0
LINE
  8
0
 10
-0.42276
 20
38.3534
 11
-0.525314
 21
38.3832
  0
LINE
  8
0
 10
-0.525314
 20
38.3832
 11
-0.625809
 21
38.4194
  0
LINE
  8
0
 10
-0.625809
 20
38.4194
 11
-0.723816
 21
38.4618
  0
LINE
  8
0
 10
-0.723816
 20
38.4618
 11
-0.81897
 21
38.5103
  0
LINE
  8
0
 10
-0.81897
 20
38.5103
 11
-0.910904
 21
38.5646
  0
LINE
  8
0
 10
-0.910904
 20
38.5646
 11
-0.999222
 21
38.6247
  0
LINE
  8
0
 10
-0.999222
 20
38.6247
 11
-1.08362
 21
38.6901
  0
LINE
  8
0
 10
-1.08362
 20
38.6901
 11
-1.16373
 21
38.7607
  0
LINE
  8
0
 10
-1.16373
 20
38.7607
 11
-1.23924
 21
38.8363
  0
LINE
  8
0
 10
-1.23924
 20
38.8363
 11
-1.30986
 21
38.9164
  0
LINE
  8
0
 10
-1.30986
 20
38.9164
 11
-1.37532
 21
39.0008
  0
LINE
  8
0
 10
-1.37532
 20
39.0008
 11
-1.43535
 21
39.0891
  0
LINE
  8
0
 10
-1.43535
 20
39.0891
 11
-1.48972
 21
39.181
  0
LINE
  8
0
 10
-1.48972
 20
39.181
 11
-1.53819
 21
39.2762
  0
LINE
  8
0
 10
-1.53819
 20
39.2762
 11
-1.58061
 21
39.3742
  0
LINE
  8
0
 10
-1.58061
 20
39.3742
 11
-1.61679
 21
39.4747
  0
LINE
  8
0
 10
-1.61679
 20
39.4747
 11
-1.64659
 21
39.5772
  0
LINE
  8
0
 10
-1.64659
 20
39.5772
 11
-1.66988
 21
39.6814
  0
LINE
  8
0
 10
-1.66988
 20
39.6814
 11
-1.68658
 21
39.7869
  0
LINE
  8
0
 10
-1.68658
 20
39.7869
 11
-1.69664
 21
39.8932
  0
LINE
  8
0
 10
-1.69664
 20
39.8932
 11
-1.7
 21
40
  0
LINE
  8
0
 10
-1.7
 20
40
 11
-1.69664
 21
40.1067
  0
LINE
  8
0
 10
-1.69664
 20
40.1067
 11
-1.68658
 21
40.2131
  0
LINE
  8
0
 10
-1.68658
 20
40.2131
 11
-1.66988
 21
40.3185
  0
LINE
  8
0
 10
-1.66988
 20
40.3185
 11
-1.64659
 21
40.4228
  0
LINE
  8
0
 10
-1.64659
 20
40.4228
 11
-1.61679
 21
40.5253
  0
LINE
  8
0
 10
-1.61679
 20
40.5253
 11
-1.58061
 21
40.6258
  0
LINE
  8
0
 10
-1.58061
 20
40.6258
 11
-1.53819
 21
40.7238
  0
LINE
  8
0
 10
-1.53819
 20
40.7238
 11
-1.48972
 21
40.819
  0
LINE
  8
0
 10
-1.48972
 20
40.819
 11
-1.43535
 21
40.9109
  0
LINE
  8
0
 10
-1.43535
 20
40.9109
 11
-1.37532
 21
40.9992
  0
LINE
  8
0
 10
-1.37532
 20
40.9992
 11
-1.30986
 21
41.0836
  0
LINE
  8
0
 10
-1.30986
 20
41.0836
 11
-1.23924
 21
41.1637
  0
LINE
  8
0
 10
-1.23924
 20
41.1637
 11
-1.16373
 21
41.2392
  0
LINE
  8
0
 10
-1.16373
 20
41.2392
 11
-1.08362
 21
41.3099
  0
LINE
  8
0
 10
-1.08362
 20
41.3099
 11
-0.999222
 21
41.3753
  0
LINE
  8
0
 10
-0.999222
 20
41.3753
 11
-0.910904
 21
41.4353
  0
LINE
  8
0
 10
-0.910904
 20
41.4353
 11
-0.81897
 21
41.4897
  0
LINE
  8
0
 10
-0.81897
 20
41.4897
 11
-0.723816
 21
41.5382
  0
LINE
  8
0
 10
-0.723816
 20
41.5382
 11
-0.625809
 21
41.5806
  0
LINE
  8
0
 10
-0.625809
 20
41.5806
 11
-0.525314
 21
41.6168
  0
LINE
  8
0
 10
-0.525314
 20
41.6168
 11
-0.42276
 21
41.6466
  0
LINE
  8
0
 10
-0.42276
 20
41.6466
 11
-0.318542
 21
41.6699
  0
LINE
  8
0
 10
-0.318542
 20
41.6699
 11
-0.213058
 21
41.6866
  0
LINE
  8
0
 10
-0.213058
 20
41.6866
 11
-0.106735
 21
41.6966
  0
LINE
  8
0
 10
-0.106735
 20
41.6966
 11
0
 21
41.7
  0
LINE
  8
0
 10
0
 20
41.7
 11
0.106735
 21
41.6966
  0
LINE
  8
0
 10
0.106735
 20
41.6966
 11
0.213058
 21
41.6866
  0
LINE
  8
0
 10
0.213058
 20
41.6866
 11
0.318542
 21
41.6699
  0
LINE
  8
0
 10
0.318542
 20
41.6699
 11
0.42276
 21
41.6466
  0
LINE
  8
0
 10
0.42276
 20
41.6466
 11
0.525314
 21
41.6168
  0
LINE
  8
0
 10
0.525314
 20
41.6168
 11
0.625809
 21
41.5806
  0
LINE
  8
0
 10
0.625809
 20
41.5806
 11
0.723816
 21
41.5382
  0
LINE
  8
0
 10
0.723816
 20
41.5382
 11
0.81897
 21
41.4897
  0
LINE
  8
0
 10
0.81897
 20
41.4897
 11
0.910904
 21
41.4353
  0
LINE
  8
0
 10
0.910904
 20
41.4353
 11
0.999222
 21
41.3753
  0
LINE
  8
0
 10
0.999222
 20
41.3753
 11
1.08362
 21
41.3099
  0
LINE
  8
0
 10
1.08362
 20
41.3099
 11
1.16373
 21
41.2392
  0
LINE
  8
0
 10
1.16373
 20
41.2392
 11
1.23924
 21
41.1637
  0
LINE
  8
0
 10
1.23924
 20
41.1637
 11
1.30986
 21
41.0836
  0
LINE
  8
0
 10
1.30986
 20
41.0836
 11
1.37532
 21
40.9992
  0
LINE
  8
0
 10
1.37532
 20
40.9992
 11
1.43535
 21
40.9109
  0
LINE
  8
0
 10
1.43535
 20
40.9109
 11
1.48972
 21
40.819
  0
LINE
  8
0
 10
1.48972
 20
40.819
 11
1.53819
 21
40.7238
  0
LINE
  8
0
 10
1.53819
 20
40.7238
 11
1.58061
 21
40.6258
  0
LINE
  8
0
 10
1.58061
 20
40.6258
 11
1.61679
 21
40.5253
  0
LINE
  8
0
 10
1.61679
 20
40.5253
 11
1.64659
 21
40.4228
  0
LINE
  8
0
 10
1.64659
 20
40.4228
 11
1.66988
 21
40.3185
  0
LINE
  8
0
 10
1.66988
 20
40.3185
 11
1.68658
 21
40.2131
  0
LINE
  8
0
 10
1.68658
 20
40.2131
 11
1.69664
 21
40.1067
  0
LINE
  8
0
 10
1.69664
 20
40.1067
 11
1.7
 21
40
  0
LINE
  8
0
 10
1.7
 20
40
 11
1.69664
 21
39.8932
  0
LINE
  8
0
 10
1.69664
 20
39.8932
 11
1.68658
 21
39.7869
  0
LINE
  8
0
 10
1.68658
 20
39.7869
 11
1.66988
 21
39.6814
  0
LINE
  8
0
 10
1.66988
 20
39.6814
 11
1.64659
 21
39.5772
  0
LINE
  8
0
 10
1.64659
 20
39.5772
 11
1.61679
 21
39.4747
  0
LINE
  8
0
 10
1.61679
 20
39.4747
 11
1.58061
 21
39.3742
  0
LINE
  8
0
 10
1.58061
 20
39.3742
 11
1.53819
 21
39.2762
  0
LINE
  8
0
 10
1.53819
 20
39.2762
 11
1.48972
 21
39.181
  0
LINE
  8
0
 10
1.48972
 20
39.181
 11
1.43535
 21
39.0891
  0
LINE
  8
0
 10
1.43535
 20
39.0891
 11
1.37532
 21
39.0008
  0
LINE
  8
0
 10
1.37532
 20
39.0008
 11
1.30986
 21
38.9164
  0
LINE
  8
0
 10
1.30986
 20
38.9164
 11
1.23924
 21
38.8363
  0
LINE
  8
0
 10
1.23924
 20
38.8363
 11
1.16373
 21
38.7607
  0
LINE
  8
0
 10
1.16373
 20
38.7607
 11
1.08362
 21
38.6901
  0
LINE
  8
0
 10
1.08362
 20
38.6901
 11
0.999222
 21
38.6247
  0
LINE
  8
0
 10
0.999222
 20
38.6247
 11
0.910904
 21
38.5646
  0
LINE
  8
0
 10
0.910904
 20
38.5646
 11
0.81897
 21
38.5103
  0
LINE
  8
0
 10
0.81897
 20
38.5103
 11
0.723816
 21
38.4618
  0
LINE
  8
0
 10
0.723816
 20
38.4618
 11
0.625809
 21
38.4194
  0
LINE
  8
0
 10
0.625809
 20
38.4194
 11
0.525314
 21
38.3832
  0
LINE
  8
0
 10
0.525314
 20
38.3832
 11
0.42276
 21
38.3534
  0
LINE
  8
0
 10
0.42276
 20
38.3534
 11
0.318542
 21
38.3301
  0
LINE
  8
0
 10
0.318542
 20
38.3301
 11
0.213058
 21
38.3134
  0
LINE
  8
0
 10
0.213058
 20
38.3134
 11
0.106735
 21
38.3033
  0
LINE
  8
0
 10
0.106735
 20
38.3033
 11
0
 21
38.3
  0
LINE
  8
0
 10
0
 20
38.3
 11
-0.106735
 21
38.3033
  0
LINE
  8
0
 10
-0.106735
 20
8.30334
 11
-0.213058
 21
8.3134
  0
LINE
  8
0
 10
-0.213058
 20
8.3134
 11
-0.318542
 21
8.33011
  0
LINE
  8
0
 10
-0.318542
 20
8.33011
 11
-0.42276
 21
8.35339
  0
LINE
  8
0
 10
-0.42276
 20
8.35339
 11
-0.525314
 21
8.38319
  0
LINE
  8
0
 10
-0.525314
 20
8.38319
 11
-0.625809
 21
8.41937
  0
LINE
  8
0
 10
-0.625809
 20
8.41937
 11
-0.723816
 21
8.46179
  0
LINE
  8
0
 10
-0.723816
 20
8.46179
 11
-0.81897
 21
8.51027
  0
LINE
  8
0
 10
-0.81897
 20
8.51027
 11
-0.910904
 21
8.56464
  0
LINE
  8
0
 10
-0.910904
 20
8.56464
 11
-0.999222
 21
8.62466
  0
LINE
  8
0
 10
-0.999222
 20
8.62466
 11
-1.08362
 21
8.69012
  0
LINE
  8
0
 10
-1.08362
 20
8.69012
 11
-1.16373
 21
8.76074
  0
LINE
  8
0
 10
-1.16373
 20
8.76074
 11
-1.23924
 21
8.83626
  0
LINE
  8
0
 10
-1.23924
 20
8.83626
 11
-1.30986
 21
8.91637
  0
LINE
  8
0
 10
-1.30986
 20
8.91637
 11
-1.37532
 21
9.00076
  0
LINE
  8
0
 10
-1.37532
 20
9.00076
 11
-1.43535
 21
9.08908
  0
LINE
  8
0
 10
-1.43535
 20
9.08908
 11
-1.48972
 21
9.18102
  0
LINE
  8
0
 10
-1.48972
 20
9.18102
 11
-1.53819
 21
9.27617
  0
LINE
  8
0
 10
-1.53819
 20
9.27617
 11
-1.58061
 21
9.37418
  0
LINE
  8
0
 10
-1.58061
 20
9.37418
 11
-1.61679
 21
9.47467
  0
LINE
  8
0
 10
-1.61679
 20
9.47467
 11
-1.64659
 21
9.57722
  0
LINE
  8
0
 10
-1.64659
 20
9.57722
 11
-1.66988
 21
9.68144
  0
LINE
  8
0
 10
-1.66988
 20
9.68144
 11
-1.68658
 21
9.78693
  0
LINE
  8
0
 10
-1.68658
 20
9.78693
 11
-1.69664
 21
9.89325
  0
LINE
  8
0
 10
-1.69664
 20
9.89325
 11
-1.7
 21
10
  0
LINE
  8
0
 10
-1.7
 20
10
 11
-1.69664
 21
10.1067
  0
LINE
  8
0
 10
-1.69664
 20
10.1067
 11
-1.68658
 21
10.2131
  0
LINE
  8
0
 10
-1.68658
 20
10.2131
 11
-1.66988
 21
10.3185
  0
LINE
  8
0
 10
-1.66988
 20
10.3185
 11
-1.64659
 21
10.4228
  0
LINE
  8
0
 10
-1.64659
 20
10.4228
 11
-1.61679
 21
10.5253
  0
LINE
  8
0
 10
-1.61679
 20
10.5253
 11
-1.58061
 21
10.6258
  0
LINE
  8
0
 10
-1.58061
 20
10.6258
 11
-1.53819
 21
10.7238
  0
LINE
  8
0
 10
-1.53819
 20
10.7238
 11
-1.48972
 21
10.819
  0
LINE
  8
0
 10
-1.48972
 20
10.819
 11
-1.43535
 21
10.9109
  0
LINE
  8
0
 10
-1.43535
 20
10.9109
 11
-1.37532
 21
10.9992
  0
LINE
  8
0
 10
-1.37532
 20
10.9992
 11
-1.30986
 21
11.0836
  0
LINE
  8
0
 10
-1.30986
 20
11.0836
 11
-1.23924
 21
11.1637
  0
LINE
  8
0
 10
-1.23924
 20
11.1637
 11
-1.16373
 21
11.2392
  0
LINE
  8
0
 10
-1.16373
 20
11.2392
 11
-1.08362
 21
11.3099
  0
LINE
  8
0
 10
-1.08362
 20
11.3099
 11
-0.999222
 21
11.3753
  0
LINE
  8
0
 10
-0.999222
 20
11.3753
 11
-0.910904
 21
11.4353
  0
LINE
  8
0
 10
-0.910904
 20
11.4353
 11
-0.81897
 21
11.4897
  0
LINE
  8
0
 10
-0.81897
 20
11.4897
 11
-0.723816
 21
11.5382
  0
LINE
  8
0
 10
-0.723816
 20
11.5382
 11
-0.625809
 21
11.5806
  0
LINE
  8
0
 10
-0.625809
 20
11.5806
 11
-0.525314
 21
11.6168
  0
LINE
  8
0
 10
-0.525314
 20
11.6168
 11
-0.42276
 21
11.6466
  0
LINE
  8
0
 10
-0.42276
 20
11.6466
 11
-0.318542
 21
11.6699
  0
LINE
  8
0
 10
-0.318542
 20
11.6699
 11
-0.213058
 21
11.6866
  0
LINE
  8
0
 10
-0.213058
 20
11.6866
 11
-0.106735
 21
11.6966
  0
LINE
  8
0
 10
-0.106735
 20
11.6966
 11
0
 21
11.7
  0
LINE
  8
0
 10
0
 20
11.7
 11
0.106735
 21
11.6966
  0
LINE
  8
0
 10
0.106735
 20
11.6966
 11
0.213058
 21
11.6866
  0
LINE
  8
0
 10
0.213058
 20
11.6866
 11
0.318542
 21
11.6699
  0
LINE
  8
0
 10
0.318542
 20
11.6699
 11
0.42276
 21
11.6466
  0
LINE
  8
0
 10
0.42276
 20
11.6466
 11
0.525314
 21
11.6168
  0
LINE
  8
0
 10
0.525314
 20
11.6168
 11
0.625809
 21
11.5806
  0
LINE
  8
0
 10
0.625809
 20
11.5806
 11
0.723816
 21
11.5382
  0
LINE
  8
0
 10
0.723816
 20
11.5382
 11
0.81897
 21
11.4897
  0
LINE
  8
0
 10
0.81897
 20
11.4897
 11
0.910904
 21
11.4353
  0
LINE
  8
0
 10
0.910904
 20
11.4353
 11
0.999222
 21
11.3753
  0
LINE
  8
0
 10
0.999222
 20
11.3753
 11
1.08362
 21
11.3099
  0
LINE
  8
0
 10
1.08362
 20
11.3099
 11
1.16373
 21
11.2392
  0
LINE
  8
0
 10
1.16373
 20
11.2392
 11
1.23924
 21
11.1637
  0
LINE
  8
0
 10
1.23924
 20
11.1637
 11
1.30986
 21
11.0836
  0
LINE
  8
0
 10
1.30986
 20
11.0836
 11
1.37532
 21
10.9992
  0
LINE
  8
0
 10
1.37532
 20
10.9992
 11
1.43535
 21
10.9109
  0
LINE
  8
0
 10
1.43535
 20
10.9109
 11
1.48972
 21
10.819
  0
LINE
  8
0
 10
1.48972
 20
10.819
 11
1.53819
 21
10.7238
  0
LINE
  8
0
 10
1.53819
 20
10.7238
 11
1.58061
 21
10.6258
  0
LINE
  8
0
 10
1.58061
 20
10.6258
 11
1.61679
 21
10.5253
  0
LINE
  8
0
 10
1.61679
 20
10.5253
 11
1.64659
 21
10.4228
  0
LINE
  8
0
 10
1.64659
 20
10.4228
 11
1.66988
 21
10.3185
  0
LINE
  8
0
 10
1.66988
 20
10.3185
 11
1.68658
 21
10.2131
  0
LINE
  8
0
 10
1.68658
 20
10.2131
 11
1.69664
 21
10.1067
  0
LINE
  8
0
 10
1.69664
 20
10.1067
 11
1.7
 21
10
  0
LINE
  8
0
 10
1.7
 20
10
 11
1.69664
 21
9.89325
  0
LINE
  8
0
 10
1.69664
 20
9.89325
 11
1.68658
 21
9.78693
  0
LINE
  8
0
 10
1.68658
 20
9.78693
 11
1.66988
 21
9.68144
  0
LINE
  8
0
 10
1.66988
 20
9.68144
 11
1.64659
 21
9.57722
  0
LINE
  8
0
 10
1.64659
 20
9.57722
 11
1.61679
 21
9.47467
  0
LINE
  8
0
 10
1.61679
 20
9.47467
 11
1.58061
 21
9.37418
  0
LINE
  8
0
 10
1.58061
 20
9.37418
 11
1.53819
 21
9.27617
  0
LINE
  8
0
 10
1.53819
 20
9.27617
 11
1.48972
 21
9.18102
  0
LINE
  8
0
 10
1.48972
 20
9.18102
 11
1.43535
 21
9.08908
  0
LINE
  8
0
 10
1.43535
 20
9.08908
 11
1.37532
 21
9.00076
  0
LINE
  8
0
 10
1.37532
 20
9.00076
 11
1.30986
 21
8.91637
  0
LINE
  8
0
 10
1.30986
 20
8.91637
 11
1.23924
 21
8.83626
  0
LINE
  8
0
 10
1.23924
 20
8.83626
 11
1.16373
 21
8.76074
  0
LINE
  8
0
 10
1.16373
 20
8.76074
 11
1.08362
 21
8.69012
  0
LINE
  8
0
 10
1.08362
 20
8.69012
 11
0.999222
 21
8.62466
  0
LINE
  8
0
 10
0.999222
 20
8.62466
 11
0.910904
 21
8.56464
  0
LINE
  8
0
 10
0.910904
 20
8.56464
 11
0.81897
 21
8.51027
  0
LINE
  8
0
 10
0.81897
 20
8.51027
 11
0.723816
 21
8.46179
  0
LINE
  8
0
 10
0.723816
 20
8.46179
 11
0.625809
 21
8.41937
  0
LINE
  8
0
 10
0.625809
 20
8.41937
 11
0.525314
 21
8.38319
  0
LINE
  8
0
 10
0.525314
 20
8.38319
 11
0.42276
 21
8.35339
  0
LINE
  8
0
 10
0.42276
 20
8.35339
 11
0.318542
 21
8.33011
  0
LINE
  8
0
 10
0.318542
 20
8.33011
 11
0.213058
 21
8.3134
  0
LINE
  8
0
 10
0.213058
 20
8.3134
 11
0.106735
 21
8.30334
  0
LINE
  8
0
 10
0.106735
 20
8.30334
 11
0
 21
8.29999
  0
LINE
  8
0
 10
0
 20
8.29999
 11
-0.106735
 21
8.30334
  0
ENDSEC
  0
SECTION
  2
OBJECTS
  0
DICTIONARY
  0
ENDSEC
  0
EOF
