  0
SECTION
  2
BLOCKS
  0
ENDSEC
  0
SECTION
  2
ENTITIES
  0
LINE
  8
0
 10
120
 20
-20
 11
150
 21
-20
  0
LINE
  8
0
 10
150
 20
-20
 11
150
 21
50
  0
LINE
  8
0
 10
150
 20
50
 11
-150
 21
50
  0
LINE
  8
0
 10
-150
 20
50
 11
-150
 21
-20
  0
LINE
  8
0
 10
-150
 20
-20
 11
-120
 21
-20
  0
LINE
  8
0
 10
-120
 20
-20
 11
-120
 21
-50
  0
LINE
  8
0
 10
-120
 20
-50
 11
120
 21
-50
  0
LINE
  8
0
 10
120
 20
-50
 11
120
 21
-20
  0
LINE
  8
0
 10
-0.128708
 20
37.954
 11
-0.256927
 21
37.9662
  0
LINE
  8
0
 10
-0.256927
 20
37.9662
 11
-0.384125
 21
37.9863
  0
LINE
  8
0
 10
-0.384125
 20
37.9863
 11
-0.509811
 21
38.0144
  0
LINE
  8
0
 10
-0.509811
 20
38.0144
 11
-0.633484
 21
38.0503
  0
LINE
  8
0
 10
-0.633484
 20
38.0503
 11
-0.754654
 21
38.0939
  0
LINE
  8
0
 10
-0.754654
 20
38.0939
 11
-0.872833
 21
38.1451
  0
LINE
  8
0
 10
-0.872833
 20
38.1451
 11
-0.987595
 21
38.2036
  0
LINE
  8
0
 10
-0.987595
 20
38.2036
 11
-1.09843
 21
38.2691
  0
LINE
  8
0
 10
-1.09843
 20
38.2691
 11
-1.20496
 21
38.3415
  0
LINE
  8
0
 10
-1.20496
 20
38.3415
 11
-1.30672
 21
38.4204
  0
LINE
  8
0
 10
-1.30672
 20
38.4204
 11
-1.40332
 21
38.5056
  0
LINE
  8
0
 10
-1.40332
 20
38.5056
 11
-1.49438
 21
38.5967
  0
LINE
  8
0
 10
-1.49438
 20
38.5967
 11
-1.57954
 21
38.6933
  0
LINE
  8
0
 10
-1.57954
 20
38.6933
 11
-1.65848
 21
38.795
  0
LINE
  8
0
 10
-1.65848
 20
38.795
 11
-1.73087
 21
38.9016
  0
LINE
  8
0
 10
-1.73087
 20
38.9016
 11
-1.79642
 21
39.0124
  0
LINE
  8
0
 10
-1.79642
 20
39.0124
 11
-1.85489
 21
39.1272
  0
LINE
  8
0
 10
-1.85489
 20
39.1272
 11
-1.90604
 21
39.2453
  0
LINE
  8
0
 10
-1.90604
 20
39.2453
 11
-1.94966
 21
39.3665
  0
LINE
  8
0
 10
-1.94966
 20
39.3665
 11
-1.98558
 21
39.4902
  0
LINE
  8
0
 10
-1.98558
 20
39.4902
 11
-2.01369
 21
39.6159
  0
LINE
  8
0
 10
-2.01369
 20
39.6159
 11
-2.03383
 21
39.7431
  0
LINE
  8
0
 10
-2.03383
 20
39.7431
 11
-2.04594
 21
39.8713
  0
LINE
  8
0
 10
-2.04594
 20
39.8713
 11
-2.04999
 21
40
  0
LINE
  8
0
 10
-2.04999
 20
40
 11
-2.04594
 21
40.1287
  0
LINE
  8
0
 10
-2.04594
 20
40.1287
 11
-2.03383
 21
40.2569
  0
LINE
  8
0
 10
-2.03383
 20
40.2569
 11
-2.01369
 21
40.3841
  0
LINE
  8
0
 10
-2.01369
 20
40.3841
 11
-1.98558
 21
40.5098
  0
LINE
  8
0
 10
-1.98558
 20
40.5098
 11
-1.94966
 21
40.6335
  0
LINE
  8
0
 10
-1.94966
 20
40.6335
 11
-1.90604
 21
40.7547
  0
LINE
  8
0
 10
-1.90604
 20
40.7547
 11
-1.85489
 21
40.8728
  0
LINE
  8
0
 10
-1.85489
 20
40.8728
 11
-1.79642
 21
40.9876
  0
LINE
  8
0
 10
-1.79642
 20
40.9876
 11
-1.73087
 21
41.0984
  0
LINE
  8
0
 10
-1.73087
 20
41.0984
 11
-1.65848
 21
41.205
  0
LINE
  8
0
 10
-1.65848
 20
41.205
 11
-1.57954
 21
41.3067
  0
LINE
  8
0
 10
-1.57954
 20
41.3067
 11
-1.49438
 21
41.4033
  0
LINE
  8
0
 10
-1.49438
 20
41.4033
 11
-1.40332
 21
41.4944
  0
LINE
  8
0
 10
-1.40332
 20
41.4944
 11
-1.30672
 21
41.5795
  0
LINE
  8
0
 10
-1.30672
 20
41.5795
 11
-1.20496
 21
41.6585
  0
LINE
  8
0
 10
-1.20496
 20
41.6585
 11
-1.09843
 21
41.7309
  0
LINE
  8
0
 10
-1.09843
 20
41.7309
 11
-0.987595
 21
41.7964
  0
LINE
  8
0
 10
-0.987595
 20
41.7964
 11
-0.872833
 21
41.8549
  0
LINE
  8
0
 10
-0.872833
 20
41.8549
 11
-0.754654
 21
41.906
  0
LINE
  8
0
 10
-0.754654
 20
41.906
 11
-0.633484
 21
41.9497
  0
LINE
  8
0
 10
-0.633484
 20
41.9497
 11
-0.509811
 21
41.9856
  0
LINE
  8
0
 10
-0.509811
 20
41.9856
 11
-0.384125
 21
42.0137
  0
LINE
  8
0
 10
-0.384125
 20
42.0137
 11
-0.256927
 21
42.0338
  0
LINE
  8
0
 10
-0.256927
 20
42.0338
 11
-0.128708
 21
42.0459
  0
LINE
  8
0
 10
-0.128708
 20
42.0459
 11
0
 21
42.05
  0
LINE
  8
0
 10
0
 20
42.05
 11
0.128708
 21
42.0459
  0
LINE
  8
0
 10
0.128708
 20
42.0459
 11
0.256927
 21
42.0338
  0
LINE
  8
0
 10
0.256927
 20
42.0338
 11
0.384125
 21
42.0137
  0
LINE
  8
0
 10
0.384125
 20
42.0137
 11
0.509811
 21
41.9856
  0
LINE
  8
0
 10
0.509811
 20
41.9856
 11
0.633484
 21
41.9497
  0
LINE
  8
0
 10
0.633484
 20
41.9497
 11
0.754654
 21
41.906
  0
LINE
  8
0
 10
0.754654
 20
41.906
 11
0.872833
 21
41.8549
  0
LINE
  8
0
 10
0.872833
 20
41.8549
 11
0.987595
 21
41.7964
  0
LINE
  8
0
 10
0.987595
 20
41.7964
 11
1.09843
 21
41.7309
  0
LINE
  8
0
 10
1.09843
 20
41.7309
 11
1.20496
 21
41.6585
  0
LINE
  8
0
 10
1.20496
 20
41.6585
 11
1.30672
 21
41.5795
  0
LINE
  8
0
 10
1.30672
 20
41.5795
 11
1.40332
 21
41.4944
  0
LINE
  8
0
 10
1.40332
 20
41.4944
 11
1.49438
 21
41.4033
  0
LINE
  8
0
 10
1.49438
 20
41.4033
 11
1.57954
 21
41.3067
  0
LINE
  8
0
 10
1.57954
 20
41.3067
 11
1.65848
 21
41.205
  0
LINE
  8
0
 10
1.65848
 20
41.205
 11
1.73087
 21
41.0984
  0
LINE
  8
0
 10
1.73087
 20
41.0984
 11
1.79642
 21
40.9876
  0
LINE
  8
0
 10
1.79642
 20
40.9876
 11
1.85489
 21
40.8728
  0
LINE
  8
0
 10
1.85489
 20
40.8728
 11
1.90604
 21
40.7547
  0
LINE
  8
0
 10
1.90604
 20
40.7547
 11
1.94966
 21
40.6335
  0
LINE
  8
0
 10
1.94966
 20
40.6335
 11
1.98558
 21
40.5098
  0
LINE
  8
0
 10
1.98558
 20
40.5098
 11
2.01369
 21
40.3841
  0
LINE
  8
0
 10
2.01369
 20
40.3841
 11
2.03383
 21
40.2569
  0
LINE
  8
0
 10
2.03383
 20
40.2569
 11
2.04594
 21
40.1287
  0
LINE
  8
0
 10
2.04594
 20
40.1287
 11
2.04999
 21
40
  0
LINE
  8
0
 10
2.04999
 20
40
 11
2.04594
 21
39.8713
  0
LINE
  8
0
 10
2.04594
 20
39.8713
 11
2.03383
 21
39.7431
  0
LINE
  8
0
 10
2.03383
 20
39.7431
 11
2.01369
 21
39.6159
  0
LINE
  8
0
 10
2.01369
 20
39.6159
 11
1.98558
 21
39.4902
  0
LINE
  8
0
 10
1.98558
 20
39.4902
 11
1.94966
 21
39.3665
  0
LINE
  8
0
 10
1.94966
 20
39.3665
 11
1.90604
 21
39.2453
  0
LINE
  8
0
 10
1.90604
 20
39.2453
 11
1.85489
 21
39.1272
  0
LINE
  8
0
 10
1.85489
 20
39.1272
 11
1.79642
 21
39.0124
  0
LINE
  8
0
 10
1.79642
 20
39.0124
 11
1.73087
 21
38.9016
  0
LINE
  8
0
 10
1.73087
 20
38.9016
 11
1.65848
 21
38.795
  0
LINE
  8
0
 10
1.65848
 20
38.795
 11
1.57954
 21
38.6933
  0
LINE
  8
0
 10
1.57954
 20
38.6933
 11
1.49438
 21
38.5967
  0
LINE
  8
0
 10
1.49438
 20
38.5967
 11
1.40332
 21
38.5056
  0
LINE
  8
0
 10
1.40332
 20
38.5056
 11
1.30672
 21
38.4204
  0
LINE
  8
0
 10
1.30672
 20
38.4204
 11
1.20496
 21
38.3415
  0
LINE
  8
0
 10
1.20496
 20
38.3415
 11
1.09843
 21
38.2691
  0
LINE
  8
0
 10
1.09843
 20
38.2691
 11
0.987595
 21
38.2036
  0
LINE
  8
0
 10
0.987595
 20
38.2036
 11
0.872833
 21
38.1451
  0
LINE
  8
0
 10
0.872833
 20
38.1451
 11
0.754654
 21
38.0939
  0
LINE
  8
0
 10
0.754654
 20
38.0939
 11
0.633484
 21
38.0503
  0
LINE
  8
0
 10
0.633484
 20
38.0503
 11
0.509811
 21
38.0144
  0
LINE
  8
0
 10
0.509811
 20
38.0144
 11
0.384125
 21
37.9863
  0
LINE
  8
0
 10
0.384125
 20
37.9863
 11
0.256927
 21
37.9662
  0
LINE
  8
0
 10
0.256927
 20
37.9662
 11
0.128708
 21
37.954
  0
LINE
  8
0
 10
0.128708
 20
37.954
 11
0
 21
37.95
  0
LINE
  8
0
 10
0
 20
37.95
 11
-0.128708
 21
37.954
  0
LINE
  8
0
 10
-0.128708
 20
7.95404
 11
-0.256927
 21
7.96616
  0
LINE
  8
0
 10
-0.256927
 20
7.96616
 11
-0.384125
 21
7.9863
  0
LINE
  8
0
 10
-0.384125
 20
7.9863
 11
-0.509811
 21
8.0144
  0
LINE
  8
0
 10
-0.509811
 20
8.0144
 11
-0.633484
 21
8.05032
  0
LINE
  8
0
 10
-0.633484
 20
8.05032
 11
-0.754654
 21
8.09395
  0
LINE
  8
0
 10
-0.754654
 20
8.09395
 11
-0.872833
 21
8.1451
  0
LINE
  8
0
 10
-0.872833
 20
8.1451
 11
-0.987595
 21
8.20357
  0
LINE
  8
0
 10
-0.987595
 20
8.20357
 11
-1.09843
 21
8.26912
  0
LINE
  8
0
 10
-1.09843
 20
8.26912
 11
-1.20496
 21
8.34151
  0
LINE
  8
0
 10
-1.20496
 20
8.34151
 11
-1.30672
 21
8.42044
  0
LINE
  8
0
 10
-1.30672
 20
8.42044
 11
-1.40332
 21
8.5056
  0
LINE
  8
0
 10
-1.40332
 20
8.5056
 11
-1.49438
 21
8.59666
  0
LINE
  8
0
 10
-1.49438
 20
8.59666
 11
-1.57954
 21
8.69327
  0
LINE
  8
0
 10
-1.57954
 20
8.69327
 11
-1.65848
 21
8.79503
  0
LINE
  8
0
 10
-1.65848
 20
8.79503
 11
-1.73087
 21
8.90155
  0
LINE
  8
0
 10
-1.73087
 20
8.90155
 11
-1.79642
 21
9.01239
  0
LINE
  8
0
 10
-1.79642
 20
9.01239
 11
-1.85489
 21
9.12715
  0
LINE
  8
0
 10
-1.85489
 20
9.12715
 11
-1.90604
 21
9.24533
  0
LINE
  8
0
 10
-1.90604
 20
9.24533
 11
-1.94966
 21
9.3665
  0
LINE
  8
0
 10
-1.94966
 20
9.3665
 11
-1.98558
 21
9.49017
  0
LINE
  8
0
 10
-1.98558
 20
9.49017
 11
-2.01369
 21
9.61586
  0
LINE
  8
0
 10
-2.01369
 20
9.61586
 11
-2.03383
 21
9.74306
  0
LINE
  8
0
 10
-2.03383
 20
9.74306
 11
-2.04594
 21
9.87128
  0
LINE
  8
0
 10
-2.04594
 20
9.87128
 11
-2.04999
 21
10
  0
LINE
  8
0
 10
-2.04999
 20
10
 11
-2.04594
 21
10.1287
  0
LINE
  8
0
 10
-2.04594
 20
10.1287
 11
-2.03383
 21
10.2569
  0
LINE
  8
0
 10
-2.03383
 20
10.2569
 11
-2.01369
 21
10.3841
  0
LINE
  8
0
 10
-2.01369
 20
10.3841
 11
-1.98558
 21
10.5098
  0
LINE
  8
0
 10
-1.98558
 20
10.5098
 11
-1.94966
 21
10.6335
  0
LINE
  8
0
 10
-1.94966
 20
10.6335
 11
-1.90604
 21
10.7547
  0
LINE
  8
0
 10
-1.90604
 20
10.7547
 11
-1.85489
 21
10.8728
  0
LINE
  8
0
 10
-1.85489
 20
10.8728
 11
-1.79642
 21
10.9876
  0
LINE
  8
0
 10
-1.79642
 20
10.9876
 11
-1.73087
 21
11.0984
  0
LINE
  8
0
 10
-1.73087
 20
11.0984
 11
-1.65848
 21
11.205
  0
LINE
  8
0
 10
-1.65848
 20
11.205
 11
-1.57954
 21
11.3067
  0
LINE
  8
0
 10
-1.57954
 20
11.3067
 11
-1.49438
 21
11.4033
  0
LINE
  8
0
 10
-1.49438
 20
11.4033
 11
-1.40332
 21
11.4944
  0
LINE
  8
0
 10
-1.40332
 20
11.4944
 11
-1.30672
 21
11.5795
  0
LINE
  8
0
 10
-1.30672
 20
11.5795
 11
-1.20496
 21
11.6585
  0
LINE
  8
0
 10
-1.20496
 20
11.6585
 11
-1.09843
 21
11.7309
  0
LINE
  8
0
 10
-1.09843
 20
11.7309
 11
-0.987595
 21
11.7964
  0
LINE
  8
0
 10
-0.987595
 20
11.7964
 11
-0.872833
 21
11.8549
  0
LINE
  8
0
 10
-0.872833
 20
11.8549
 11
-0.754654
 21
11.906
  0
LINE
  8
0
 10
-0.754654
 20
11.906
 11
-0.633484
 21
11.9497
  0
LINE
  8
0
 10
-0.633484
 20
11.9497
 11
-0.509811
 21
11.9856
  0
LINE
  8
0
 10
-0.509811
 20
11.9856
 11
-0.384125
 21
12.0137
  0
LINE
  8
0
 10
-0.384125
 20
12.0137
 11
-0.256927
 21
12.0338
  0
LINE
  8
0
 10
-0.256927
 20
12.0338
 11
-0.128708
 21
12.0459
  0
LINE
  8
0
 10
-0.128708
 20
12.0459
 11
0
 21
12.05
  0
LINE
  8
0
 10
0
 20
12.05
 11
0.128708
 21
12.0459
  0
LINE
  8
0
 10
0.128708
 20
12.0459
 11
0.256927
 21
12.0338
  0
LINE
  8
0
 10
0.256927
 20
12.0338
 11
0.384125
 21
12.0137
  0
LINE
  8
0
 10
0.384125
 20
12.0137
 11
0.509811
 21
11.9856
  0
LINE
  8
0
 10
0.509811
 20
11.9856
 11
0.633484
 21
11.9497
  0
LINE
  8
0
 10
0.633484
 20
11.9497
 11
0.754654
 21
11.906
  0
LINE
  8
0
 10
0.754654
 20
11.906
 11
0.872833
 21
11.8549
  0
LINE
  8
0
 10
0.872833
 20
11.8549
 11
0.987595
 21
11.7964
  0
LINE
  8
0
 10
0.987595
 20
11.7964
 11
1.09843
 21
11.7309
  0
LINE
  8
0
 10
1.09843
 20
11.7309
 11
1.20496
 21
11.6585
  0
LINE
  8
0
 10
1.20496
 20
11.6585
 11
1.30672
 21
11.5795
  0
LINE
  8
0
 10
1.30672
 20
11.5795
 11
1.40332
 21
11.4944
  0
LINE
  8
0
 10
1.40332
 20
11.4944
 11
1.49438
 21
11.4033
  0
LINE
  8
0
 10
1.49438
 20
11.4033
 11
1.57954
 21
11.3067
  0
LINE
  8
0
 10
1.57954
 20
11.3067
 11
1.65848
 21
11.205
  0
LINE
  8
0
 10
1.65848
 20
11.205
 11
1.73087
 21
11.0984
  0
LINE
  8
0
 10
1.73087
 20
11.0984
 11
1.79642
 21
10.9876
  0
LINE
  8
0
 10
1.79642
 20
10.9876
 11
1.85489
 21
10.8728
  0
LINE
  8
0
 10
1.85489
 20
10.8728
 11
1.90604
 21
10.7547
  0
LINE
  8
0
 10
1.90604
 20
10.7547
 11
1.94966
 21
10.6335
  0
LINE
  8
0
 10
1.94966
 20
10.6335
 11
1.98558
 21
10.5098
  0
LINE
  8
0
 10
1.98558
 20
10.5098
 11
2.01369
 21
10.3841
  0
LINE
  8
0
 10
2.01369
 20
10.3841
 11
2.03383
 21
10.2569
  0
LINE
  8
0
 10
2.03383
 20
10.2569
 11
2.04594
 21
10.1287
  0
LINE
  8
0
 10
2.04594
 20
10.1287
 11
2.04999
 21
10
  0
LINE
  8
0
 10
2.04999
 20
10
 11
2.04594
 21
9.87128
  0
LINE
  8
0
 10
2.04594
 20
9.87128
 11
2.03383
 21
9.74306
  0
LINE
  8
0
 10
2.03383
 20
9.74306
 11
2.01369
 21
9.61586
  0
LINE
  8
0
 10
2.01369
 20
9.61586
 11
1.98558
 21
9.49017
  0
LINE
  8
0
 10
1.98558
 20
9.49017
 11
1.94966
 21
9.3665
  0
LINE
  8
0
 10
1.94966
 20
9.3665
 11
1.90604
 21
9.24533
  0
LINE
  8
0
 10
1.90604
 20
9.24533
 11
1.85489
 21
9.12715
  0
LINE
  8
0
 10
1.85489
 20
9.12715
 11
1.79642
 21
9.01239
  0
LINE
  8
0
 10
1.79642
 20
9.01239
 11
1.73087
 21
8.90155
  0
LINE
  8
0
 10
1.73087
 20
8.90155
 11
1.65848
 21
8.79503
  0
LINE
  8
0
 10
1.65848
 20
8.79503
 11
1.57954
 21
8.69327
  0
LINE
  8
0
 10
1.57954
 20
8.69327
 11
1.49438
 21
8.59666
  0
LINE
  8
0
 10
1.49438
 20
8.59666
 11
1.40332
 21
8.5056
  0
LINE
  8
0
 10
1.40332
 20
8.5056
 11
1.30672
 21
8.42044
  0
LINE
  8
0
 10
1.30672
 20
8.42044
 11
1.20496
 21
8.34151
  0
LINE
  8
0
 10
1.20496
 20
8.34151
 11
1.09843
 21
8.26912
  0
LINE
  8
0
 10
1.09843
 20
8.26912
 11
0.987595
 21
8.20357
  0
LINE
  8
0
 10
0.987595
 20
8.20357
 11
0.872833
 21
8.1451
  0
LINE
  8
0
 10
0.872833
 20
8.1451
 11
0.754654
 21
8.09395
  0
LINE
  8
0
 10
0.754654
 20
8.09395
 11
0.633484
 21
8.05032
  0
LINE
  8
0
 10
0.633484
 20
8.05032
 11
0.509811
 21
8.0144
  0
LINE
  8
0
 10
0.509811
 20
8.0144
 11
0.384125
 21
7.9863
  0
LINE
  8
0
 10
0.384125
 20
7.9863
 11
0.256927
 21
7.96616
  0
LINE
  8
0
 10
0.256927
 20
7.96616
 11
0.128708
 21
7.95404
  0
LINE
  8
0
 10
0.128708
 20
7.95404
 11
0
 21
7.95
  0
LINE
  8
0
 10
0
 20
7.95
 11
-0.128708
 21
7.95404
  0
ENDSEC
  0
SECTION
  2
OBJECTS
  0
DICTIONARY
  0
ENDSEC
  0
EOF
