  0
SECTION
  2
BLOCKS
  0
ENDSEC
  0
SECTION
  2
ENTITIES
  0
LINE
  8
0
 10
75
 20
50
 11
45
 21
50
  0
LINE
  8
0
 10
45
 20
50
 11
45
 21
-50
  0
LINE
  8
0
 10
45
 20
-50
 11
75
 21
-50
  0
LINE
  8
0
 10
75
 20
-50
 11
75
 21
50
  0
LINE
  8
0
 10
59.8713
 20
-2.04594
 11
59.7431
 21
-2.03383
  0
LINE
  8
0
 10
59.7431
 20
-2.03383
 11
59.6159
 21
-2.01369
  0
LINE
  8
0
 10
59.6159
 20
-2.01369
 11
59.4902
 21
-1.98558
  0
LINE
  8
0
 10
59.4902
 20
-1.98558
 11
59.3665
 21
-1.94966
  0
LINE
  8
0
 10
59.3665
 20
-1.94966
 11
59.2453
 21
-1.90604
  0
LINE
  8
0
 10
59.2453
 20
-1.90604
 11
59.1272
 21
-1.85489
  0
LINE
  8
0
 10
59.1272
 20
-1.85489
 11
59.0124
 21
-1.79642
  0
LINE
  8
0
 10
59.0124
 20
-1.79642
 11
58.9016
 21
-1.73087
  0
LINE
  8
0
 10
58.9016
 20
-1.73087
 11
58.795
 21
-1.65848
  0
LINE
  8
0
 10
58.795
 20
-1.65848
 11
58.6933
 21
-1.57954
  0
LINE
  8
0
 10
58.6933
 20
-1.57954
 11
58.5967
 21
-1.49438
  0
LINE
  8
0
 10
58.5967
 20
-1.49438
 11
58.5056
 21
-1.40332
  0
LINE
  8
0
 10
58.5056
 20
-1.40332
 11
58.4204
 21
-1.30672
  0
LINE
  8
0
 10
58.4204
 20
-1.30672
 11
58.3415
 21
-1.20496
  0
LINE
  8
0
 10
58.3415
 20
-1.20496
 11
58.2691
 21
-1.09843
  0
LINE
  8
0
 10
58.2691
 20
-1.09843
 11
58.2036
 21
-0.987595
  0
LINE
  8
0
 10
58.2036
 20
-0.987595
 11
58.1451
 21
-0.872833
  0
LINE
  8
0
 10
58.1451
 20
-0.872833
 11
58.0939
 21
-0.754654
  0
LINE
  8
0
 10
58.0939
 20
-0.754654
 11
58.0503
 21
-0.633484
  0
LINE
  8
0
 10
58.0503
 20
-0.633484
 11
58.0144
 21
-0.509811
  0
LINE
  8
0
 10
58.0144
 20
-0.509811
 11
57.9863
 21
-0.384125
  0
LINE
  8
0
 10
57.9863
 20
-0.384125
 11
57.9662
 21
-0.256927
  0
LINE
  8
0
 10
57.9662
 20
-0.256927
 11
57.954
 21
-0.128708
  0
LINE
  8
0
 10
57.954
 20
-0.128708
 11
57.95
 21
0
  0
LINE
  8
0
 10
57.95
 20
0
 11
57.954
 21
0.128708
  0
LINE
  8
0
 10
57.954
 20
0.128708
 11
57.9662
 21
0.256927
  0
LINE
  8
0
 10
57.9662
 20
0.256927
 11
57.9863
 21
0.384125
  0
LINE
  8
0
 10
57.9863
 20
0.384125
 11
58.0144
 21
0.509811
  0
LINE
  8
0
 10
58.0144
 20
0.509811
 11
58.0503
 21
0.633484
  0
LINE
  8
0
 10
58.0503
 20
0.633484
 11
58.0939
 21
0.754654
  0
LINE
  8
0
 10
58.0939
 20
0.754654
 11
58.1451
 21
0.872833
  0
LINE
  8
0
 10
58.1451
 20
0.872833
 11
58.2036
 21
0.987595
  0
LINE
  8
0
 10
58.2036
 20
0.987595
 11
58.2691
 21
1.09843
  0
LINE
  8
0
 10
58.2691
 20
1.09843
 11
58.3415
 21
1.20496
  0
LINE
  8
0
 10
58.3415
 20
1.20496
 11
58.4204
 21
1.30672
  0
LINE
  8
0
 10
58.4204
 20
1.30672
 11
58.5056
 21
1.40332
  0
LINE
  8
0
 10
58.5056
 20
1.40332
 11
58.5967
 21
1.49438
  0
LINE
  8
0
 10
58.5967
 20
1.49438
 11
58.6933
 21
1.57954
  0
LINE
  8
0
 10
58.6933
 20
1.57954
 11
58.795
 21
1.65848
  0
LINE
  8
0
 10
58.795
 20
1.65848
 11
58.9016
 21
1.73087
  0
LINE
  8
0
 10
58.9016
 20
1.73087
 11
59.0124
 21
1.79642
  0
LINE
  8
0
 10
59.0124
 20
1.79642
 11
59.1272
 21
1.85489
  0
LINE
  8
0
 10
59.1272
 20
1.85489
 11
59.2453
 21
1.90604
  0
LINE
  8
0
 10
59.2453
 20
1.90604
 11
59.3665
 21
1.94966
  0
LINE
  8
0
 10
59.3665
 20
1.94966
 11
59.4902
 21
1.98558
  0
LINE
  8
0
 10
59.4902
 20
1.98558
 11
59.6159
 21
2.01369
  0
LINE
  8
0
 10
59.6159
 20
2.01369
 11
59.7431
 21
2.03383
  0
LINE
  8
0
 10
59.7431
 20
2.03383
 11
59.8713
 21
2.04594
  0
LINE
  8
0
 10
59.8713
 20
2.04594
 11
60
 21
2.04999
  0
LINE
  8
0
 10
60
 20
2.04999
 11
60.1287
 21
2.04594
  0
LINE
  8
0
 10
60.1287
 20
2.04594
 11
60.2569
 21
2.03383
  0
LINE
  8
0
 10
60.2569
 20
2.03383
 11
60.3841
 21
2.01369
  0
LINE
  8
0
 10
60.3841
 20
2.01369
 11
60.5098
 21
1.98558
  0
LINE
  8
0
 10
60.5098
 20
1.98558
 11
60.6335
 21
1.94966
  0
LINE
  8
0
 10
60.6335
 20
1.94966
 11
60.7547
 21
1.90604
  0
LINE
  8
0
 10
60.7547
 20
1.90604
 11
60.8728
 21
1.85489
  0
LINE
  8
0
 10
60.8728
 20
1.85489
 11
60.9876
 21
1.79642
  0
LINE
  8
0
 10
60.9876
 20
1.79642
 11
61.0984
 21
1.73087
  0
LINE
  8
0
 10
61.0984
 20
1.73087
 11
61.205
 21
1.65848
  0
LINE
  8
0
 10
61.205
 20
1.65848
 11
61.3067
 21
1.57954
  0
LINE
  8
0
 10
61.3067
 20
1.57954
 11
61.4033
 21
1.49438
  0
LINE
  8
0
 10
61.4033
 20
1.49438
 11
61.4944
 21
1.40332
  0
LINE
  8
0
 10
61.4944
 20
1.40332
 11
61.5795
 21
1.30672
  0
LINE
  8
0
 10
61.5795
 20
1.30672
 11
61.6585
 21
1.20496
  0
LINE
  8
0
 10
61.6585
 20
1.20496
 11
61.7309
 21
1.09843
  0
LINE
  8
0
 10
61.7309
 20
1.09843
 11
61.7964
 21
0.987595
  0
LINE
  8
0
 10
61.7964
 20
0.987595
 11
61.8549
 21
0.872833
  0
LINE
  8
0
 10
61.8549
 20
0.872833
 11
61.906
 21
0.754654
  0
LINE
  8
0
 10
61.906
 20
0.754654
 11
61.9497
 21
0.633484
  0
LINE
  8
0
 10
61.9497
 20
0.633484
 11
61.9856
 21
0.509811
  0
LINE
  8
0
 10
61.9856
 20
0.509811
 11
62.0137
 21
0.384125
  0
LINE
  8
0
 10
62.0137
 20
0.384125
 11
62.0338
 21
0.256927
  0
LINE
  8
0
 10
62.0338
 20
0.256927
 11
62.0459
 21
0.128708
  0
LINE
  8
0
 10
62.0459
 20
0.128708
 11
62.05
 21
0
  0
LINE
  8
0
 10
62.05
 20
0
 11
62.0459
 21
-0.128708
  0
LINE
  8
0
 10
62.0459
 20
-0.128708
 11
62.0338
 21
-0.256927
  0
LINE
  8
0
 10
62.0338
 20
-0.256927
 11
62.0137
 21
-0.384125
  0
LINE
  8
0
 10
62.0137
 20
-0.384125
 11
61.9856
 21
-0.509811
  0
LINE
  8
0
 10
61.9856
 20
-0.509811
 11
61.9497
 21
-0.633484
  0
LINE
  8
0
 10
61.9497
 20
-0.633484
 11
61.906
 21
-0.754654
  0
LINE
  8
0
 10
61.906
 20
-0.754654
 11
61.8549
 21
-0.872833
  0
LINE
  8
0
 10
61.8549
 20
-0.872833
 11
61.7964
 21
-0.987595
  0
LINE
  8
0
 10
61.7964
 20
-0.987595
 11
61.7309
 21
-1.09843
  0
LINE
  8
0
 10
61.7309
 20
-1.09843
 11
61.6585
 21
-1.20496
  0
LINE
  8
0
 10
61.6585
 20
-1.20496
 11
61.5795
 21
-1.30672
  0
LINE
  8
0
 10
61.5795
 20
-1.30672
 11
61.4944
 21
-1.40332
  0
LINE
  8
0
 10
61.4944
 20
-1.40332
 11
61.4033
 21
-1.49438
  0
LINE
  8
0
 10
61.4033
 20
-1.49438
 11
61.3067
 21
-1.57954
  0
LINE
  8
0
 10
61.3067
 20
-1.57954
 11
61.205
 21
-1.65848
  0
LINE
  8
0
 10
61.205
 20
-1.65848
 11
61.0984
 21
-1.73087
  0
LINE
  8
0
 10
61.0984
 20
-1.73087
 11
60.9876
 21
-1.79642
  0
LINE
  8
0
 10
60.9876
 20
-1.79642
 11
60.8728
 21
-1.85489
  0
LINE
  8
0
 10
60.8728
 20
-1.85489
 11
60.7547
 21
-1.90604
  0
LINE
  8
0
 10
60.7547
 20
-1.90604
 11
60.6335
 21
-1.94966
  0
LINE
  8
0
 10
60.6335
 20
-1.94966
 11
60.5098
 21
-1.98558
  0
LINE
  8
0
 10
60.5098
 20
-1.98558
 11
60.3841
 21
-2.01369
  0
LINE
  8
0
 10
60.3841
 20
-2.01369
 11
60.2569
 21
-2.03383
  0
LINE
  8
0
 10
60.2569
 20
-2.03383
 11
60.1287
 21
-2.04594
  0
LINE
  8
0
 10
60.1287
 20
-2.04594
 11
60
 21
-2.04999
  0
LINE
  8
0
 10
60
 20
-2.04999
 11
59.8713
 21
-2.04594
  0
LINE
  8
0
 10
195
 20
50
 11
165
 21
50
  0
LINE
  8
0
 10
165
 20
50
 11
165
 21
-50
  0
LINE
  8
0
 10
165
 20
-50
 11
195
 21
-50
  0
LINE
  8
0
 10
195
 20
-50
 11
195
 21
50
  0
LINE
  8
0
 10
179.871
 20
-2.04594
 11
179.743
 21
-2.03383
  0
LINE
  8
0
 10
179.743
 20
-2.03383
 11
179.616
 21
-2.01369
  0
LINE
  8
0
 10
179.616
 20
-2.01369
 11
179.49
 21
-1.98558
  0
LINE
  8
0
 10
179.49
 20
-1.98558
 11
179.367
 21
-1.94966
  0
LINE
  8
0
 10
179.367
 20
-1.94966
 11
179.245
 21
-1.90604
  0
LINE
  8
0
 10
179.245
 20
-1.90604
 11
179.127
 21
-1.85489
  0
LINE
  8
0
 10
179.127
 20
-1.85489
 11
179.012
 21
-1.79642
  0
LINE
  8
0
 10
179.012
 20
-1.79642
 11
178.902
 21
-1.73087
  0
LINE
  8
0
 10
178.902
 20
-1.73087
 11
178.795
 21
-1.65848
  0
LINE
  8
0
 10
178.795
 20
-1.65848
 11
178.693
 21
-1.57954
  0
LINE
  8
0
 10
178.693
 20
-1.57954
 11
178.597
 21
-1.49438
  0
LINE
  8
0
 10
178.597
 20
-1.49438
 11
178.506
 21
-1.40332
  0
LINE
  8
0
 10
178.506
 20
-1.40332
 11
178.42
 21
-1.30672
  0
LINE
  8
0
 10
178.42
 20
-1.30672
 11
178.342
 21
-1.20496
  0
LINE
  8
0
 10
178.342
 20
-1.20496
 11
178.269
 21
-1.09843
  0
LINE
  8
0
 10
178.269
 20
-1.09843
 11
178.204
 21
-0.987595
  0
LINE
  8
0
 10
178.204
 20
-0.987595
 11
178.145
 21
-0.872833
  0
LINE
  8
0
 10
178.145
 20
-0.872833
 11
178.094
 21
-0.754654
  0
LINE
  8
0
 10
178.094
 20
-0.754654
 11
178.05
 21
-0.633484
  0
LINE
  8
0
 10
178.05
 20
-0.633484
 11
178.014
 21
-0.509811
  0
LINE
  8
0
 10
178.014
 20
-0.509811
 11
177.986
 21
-0.384125
  0
LINE
  8
0
 10
177.986
 20
-0.384125
 11
177.966
 21
-0.256927
  0
LINE
  8
0
 10
177.966
 20
-0.256927
 11
177.954
 21
-0.128708
  0
LINE
  8
0
 10
177.954
 20
-0.128708
 11
177.95
 21
0
  0
LINE
  8
0
 10
177.95
 20
0
 11
177.954
 21
0.128708
  0
LINE
  8
0
 10
177.954
 20
0.128708
 11
177.966
 21
0.256927
  0
LINE
  8
0
 10
177.966
 20
0.256927
 11
177.986
 21
0.384125
  0
LINE
  8
0
 10
177.986
 20
0.384125
 11
178.014
 21
0.509811
  0
LINE
  8
0
 10
178.014
 20
0.509811
 11
178.05
 21
0.633484
  0
LINE
  8
0
 10
178.05
 20
0.633484
 11
178.094
 21
0.754654
  0
LINE
  8
0
 10
178.094
 20
0.754654
 11
178.145
 21
0.872833
  0
LINE
  8
0
 10
178.145
 20
0.872833
 11
178.204
 21
0.987595
  0
LINE
  8
0
 10
178.204
 20
0.987595
 11
178.269
 21
1.09843
  0
LINE
  8
0
 10
178.269
 20
1.09843
 11
178.342
 21
1.20496
  0
LINE
  8
0
 10
178.342
 20
1.20496
 11
178.42
 21
1.30672
  0
LINE
  8
0
 10
178.42
 20
1.30672
 11
178.506
 21
1.40332
  0
LINE
  8
0
 10
178.506
 20
1.40332
 11
178.597
 21
1.49438
  0
LINE
  8
0
 10
178.597
 20
1.49438
 11
178.693
 21
1.57954
  0
LINE
  8
0
 10
178.693
 20
1.57954
 11
178.795
 21
1.65848
  0
LINE
  8
0
 10
178.795
 20
1.65848
 11
178.902
 21
1.73087
  0
LINE
  8
0
 10
178.902
 20
1.73087
 11
179.012
 21
1.79642
  0
LINE
  8
0
 10
179.012
 20
1.79642
 11
179.127
 21
1.85489
  0
LINE
  8
0
 10
179.127
 20
1.85489
 11
179.245
 21
1.90604
  0
LINE
  8
0
 10
179.245
 20
1.90604
 11
179.367
 21
1.94966
  0
LINE
  8
0
 10
179.367
 20
1.94966
 11
179.49
 21
1.98558
  0
LINE
  8
0
 10
179.49
 20
1.98558
 11
179.616
 21
2.01369
  0
LINE
  8
0
 10
179.616
 20
2.01369
 11
179.743
 21
2.03383
  0
LINE
  8
0
 10
179.743
 20
2.03383
 11
179.871
 21
2.04594
  0
LINE
  8
0
 10
179.871
 20
2.04594
 11
180
 21
2.04999
  0
LINE
  8
0
 10
180
 20
2.04999
 11
180.129
 21
2.04594
  0
LINE
  8
0
 10
180.129
 20
2.04594
 11
180.257
 21
2.03383
  0
LINE
  8
0
 10
180.257
 20
2.03383
 11
180.384
 21
2.01369
  0
LINE
  8
0
 10
180.384
 20
2.01369
 11
180.51
 21
1.98558
  0
LINE
  8
0
 10
180.51
 20
1.98558
 11
180.633
 21
1.94966
  0
LINE
  8
0
 10
180.633
 20
1.94966
 11
180.755
 21
1.90604
  0
LINE
  8
0
 10
180.755
 20
1.90604
 11
180.873
 21
1.85489
  0
LINE
  8
0
 10
180.873
 20
1.85489
 11
180.988
 21
1.79642
  0
LINE
  8
0
 10
180.988
 20
1.79642
 11
181.098
 21
1.73087
  0
LINE
  8
0
 10
181.098
 20
1.73087
 11
181.205
 21
1.65848
  0
LINE
  8
0
 10
181.205
 20
1.65848
 11
181.307
 21
1.57954
  0
LINE
  8
0
 10
181.307
 20
1.57954
 11
181.403
 21
1.49438
  0
LINE
  8
0
 10
181.403
 20
1.49438
 11
181.494
 21
1.40332
  0
LINE
  8
0
 10
181.494
 20
1.40332
 11
181.58
 21
1.30672
  0
LINE
  8
0
 10
181.58
 20
1.30672
 11
181.658
 21
1.20496
  0
LINE
  8
0
 10
181.658
 20
1.20496
 11
181.731
 21
1.09843
  0
LINE
  8
0
 10
181.731
 20
1.09843
 11
181.796
 21
0.987595
  0
LINE
  8
0
 10
181.796
 20
0.987595
 11
181.855
 21
0.872833
  0
LINE
  8
0
 10
181.855
 20
0.872833
 11
181.906
 21
0.754654
  0
LINE
  8
0
 10
181.906
 20
0.754654
 11
181.95
 21
0.633484
  0
LINE
  8
0
 10
181.95
 20
0.633484
 11
181.986
 21
0.509811
  0
LINE
  8
0
 10
181.986
 20
0.509811
 11
182.014
 21
0.384125
  0
LINE
  8
0
 10
182.014
 20
0.384125
 11
182.034
 21
0.256927
  0
LINE
  8
0
 10
182.034
 20
0.256927
 11
182.046
 21
0.128708
  0
LINE
  8
0
 10
182.046
 20
0.128708
 11
182.05
 21
0
  0
LINE
  8
0
 10
182.05
 20
0
 11
182.046
 21
-0.128708
  0
LINE
  8
0
 10
182.046
 20
-0.128708
 11
182.034
 21
-0.256927
  0
LINE
  8
0
 10
182.034
 20
-0.256927
 11
182.014
 21
-0.384125
  0
LINE
  8
0
 10
182.014
 20
-0.384125
 11
181.986
 21
-0.509811
  0
LINE
  8
0
 10
181.986
 20
-0.509811
 11
181.95
 21
-0.633484
  0
LINE
  8
0
 10
181.95
 20
-0.633484
 11
181.906
 21
-0.754654
  0
LINE
  8
0
 10
181.906
 20
-0.754654
 11
181.855
 21
-0.872833
  0
LINE
  8
0
 10
181.855
 20
-0.872833
 11
181.796
 21
-0.987595
  0
LINE
  8
0
 10
181.796
 20
-0.987595
 11
181.731
 21
-1.09843
  0
LINE
  8
0
 10
181.731
 20
-1.09843
 11
181.658
 21
-1.20496
  0
LINE
  8
0
 10
181.658
 20
-1.20496
 11
181.58
 21
-1.30672
  0
LINE
  8
0
 10
181.58
 20
-1.30672
 11
181.494
 21
-1.40332
  0
LINE
  8
0
 10
181.494
 20
-1.40332
 11
181.403
 21
-1.49438
  0
LINE
  8
0
 10
181.403
 20
-1.49438
 11
181.307
 21
-1.57954
  0
LINE
  8
0
 10
181.307
 20
-1.57954
 11
181.205
 21
-1.65848
  0
LINE
  8
0
 10
181.205
 20
-1.65848
 11
181.098
 21
-1.73087
  0
LINE
  8
0
 10
181.098
 20
-1.73087
 11
180.988
 21
-1.79642
  0
LINE
  8
0
 10
180.988
 20
-1.79642
 11
180.873
 21
-1.85489
  0
LINE
  8
0
 10
180.873
 20
-1.85489
 11
180.755
 21
-1.90604
  0
LINE
  8
0
 10
180.755
 20
-1.90604
 11
180.633
 21
-1.94966
  0
LINE
  8
0
 10
180.633
 20
-1.94966
 11
180.51
 21
-1.98558
  0
LINE
  8
0
 10
180.51
 20
-1.98558
 11
180.384
 21
-2.01369
  0
LINE
  8
0
 10
180.384
 20
-2.01369
 11
180.257
 21
-2.03383
  0
LINE
  8
0
 10
180.257
 20
-2.03383
 11
180.129
 21
-2.04594
  0
LINE
  8
0
 10
180.129
 20
-2.04594
 11
180
 21
-2.04999
  0
LINE
  8
0
 10
180
 20
-2.04999
 11
179.871
 21
-2.04594
  0
LINE
  8
0
 10
135
 20
50
 11
105
 21
50
  0
LINE
  8
0
 10
105
 20
50
 11
105
 21
-50
  0
LINE
  8
0
 10
105
 20
-50
 11
135
 21
-50
  0
LINE
  8
0
 10
135
 20
-50
 11
135
 21
50
  0
LINE
  8
0
 10
119.871
 20
-2.04594
 11
119.743
 21
-2.03383
  0
LINE
  8
0
 10
119.743
 20
-2.03383
 11
119.616
 21
-2.01369
  0
LINE
  8
0
 10
119.616
 20
-2.01369
 11
119.49
 21
-1.98558
  0
LINE
  8
0
 10
119.49
 20
-1.98558
 11
119.367
 21
-1.94966
  0
LINE
  8
0
 10
119.367
 20
-1.94966
 11
119.245
 21
-1.90604
  0
LINE
  8
0
 10
119.245
 20
-1.90604
 11
119.127
 21
-1.85489
  0
LINE
  8
0
 10
119.127
 20
-1.85489
 11
119.012
 21
-1.79642
  0
LINE
  8
0
 10
119.012
 20
-1.79642
 11
118.902
 21
-1.73087
  0
LINE
  8
0
 10
118.902
 20
-1.73087
 11
118.795
 21
-1.65848
  0
LINE
  8
0
 10
118.795
 20
-1.65848
 11
118.693
 21
-1.57954
  0
LINE
  8
0
 10
118.693
 20
-1.57954
 11
118.597
 21
-1.49438
  0
LINE
  8
0
 10
118.597
 20
-1.49438
 11
118.506
 21
-1.40332
  0
LINE
  8
0
 10
118.506
 20
-1.40332
 11
118.42
 21
-1.30672
  0
LINE
  8
0
 10
118.42
 20
-1.30672
 11
118.342
 21
-1.20496
  0
LINE
  8
0
 10
118.342
 20
-1.20496
 11
118.269
 21
-1.09843
  0
LINE
  8
0
 10
118.269
 20
-1.09843
 11
118.204
 21
-0.987595
  0
LINE
  8
0
 10
118.204
 20
-0.987595
 11
118.145
 21
-0.872833
  0
LINE
  8
0
 10
118.145
 20
-0.872833
 11
118.094
 21
-0.754654
  0
LINE
  8
0
 10
118.094
 20
-0.754654
 11
118.05
 21
-0.633484
  0
LINE
  8
0
 10
118.05
 20
-0.633484
 11
118.014
 21
-0.509811
  0
LINE
  8
0
 10
118.014
 20
-0.509811
 11
117.986
 21
-0.384125
  0
LINE
  8
0
 10
117.986
 20
-0.384125
 11
117.966
 21
-0.256927
  0
LINE
  8
0
 10
117.966
 20
-0.256927
 11
117.954
 21
-0.128708
  0
LINE
  8
0
 10
117.954
 20
-0.128708
 11
117.95
 21
0
  0
LINE
  8
0
 10
117.95
 20
0
 11
117.954
 21
0.128708
  0
LINE
  8
0
 10
117.954
 20
0.128708
 11
117.966
 21
0.256927
  0
LINE
  8
0
 10
117.966
 20
0.256927
 11
117.986
 21
0.384125
  0
LINE
  8
0
 10
117.986
 20
0.384125
 11
118.014
 21
0.509811
  0
LINE
  8
0
 10
118.014
 20
0.509811
 11
118.05
 21
0.633484
  0
LINE
  8
0
 10
118.05
 20
0.633484
 11
118.094
 21
0.754654
  0
LINE
  8
0
 10
118.094
 20
0.754654
 11
118.145
 21
0.872833
  0
LINE
  8
0
 10
118.145
 20
0.872833
 11
118.204
 21
0.987595
  0
LINE
  8
0
 10
118.204
 20
0.987595
 11
118.269
 21
1.09843
  0
LINE
  8
0
 10
118.269
 20
1.09843
 11
118.342
 21
1.20496
  0
LINE
  8
0
 10
118.342
 20
1.20496
 11
118.42
 21
1.30672
  0
LINE
  8
0
 10
118.42
 20
1.30672
 11
118.506
 21
1.40332
  0
LINE
  8
0
 10
118.506
 20
1.40332
 11
118.597
 21
1.49438
  0
LINE
  8
0
 10
118.597
 20
1.49438
 11
118.693
 21
1.57954
  0
LINE
  8
0
 10
118.693
 20
1.57954
 11
118.795
 21
1.65848
  0
LINE
  8
0
 10
118.795
 20
1.65848
 11
118.902
 21
1.73087
  0
LINE
  8
0
 10
118.902
 20
1.73087
 11
119.012
 21
1.79642
  0
LINE
  8
0
 10
119.012
 20
1.79642
 11
119.127
 21
1.85489
  0
LINE
  8
0
 10
119.127
 20
1.85489
 11
119.245
 21
1.90604
  0
LINE
  8
0
 10
119.245
 20
1.90604
 11
119.367
 21
1.94966
  0
LINE
  8
0
 10
119.367
 20
1.94966
 11
119.49
 21
1.98558
  0
LINE
  8
0
 10
119.49
 20
1.98558
 11
119.616
 21
2.01369
  0
LINE
  8
0
 10
119.616
 20
2.01369
 11
119.743
 21
2.03383
  0
LINE
  8
0
 10
119.743
 20
2.03383
 11
119.871
 21
2.04594
  0
LINE
  8
0
 10
119.871
 20
2.04594
 11
120
 21
2.04999
  0
LINE
  8
0
 10
120
 20
2.04999
 11
120.129
 21
2.04594
  0
LINE
  8
0
 10
120.129
 20
2.04594
 11
120.257
 21
2.03383
  0
LINE
  8
0
 10
120.257
 20
2.03383
 11
120.384
 21
2.01369
  0
LINE
  8
0
 10
120.384
 20
2.01369
 11
120.51
 21
1.98558
  0
LINE
  8
0
 10
120.51
 20
1.98558
 11
120.633
 21
1.94966
  0
LINE
  8
0
 10
120.633
 20
1.94966
 11
120.755
 21
1.90604
  0
LINE
  8
0
 10
120.755
 20
1.90604
 11
120.873
 21
1.85489
  0
LINE
  8
0
 10
120.873
 20
1.85489
 11
120.988
 21
1.79642
  0
LINE
  8
0
 10
120.988
 20
1.79642
 11
121.098
 21
1.73087
  0
LINE
  8
0
 10
121.098
 20
1.73087
 11
121.205
 21
1.65848
  0
LINE
  8
0
 10
121.205
 20
1.65848
 11
121.307
 21
1.57954
  0
LINE
  8
0
 10
121.307
 20
1.57954
 11
121.403
 21
1.49438
  0
LINE
  8
0
 10
121.403
 20
1.49438
 11
121.494
 21
1.40332
  0
LINE
  8
0
 10
121.494
 20
1.40332
 11
121.58
 21
1.30672
  0
LINE
  8
0
 10
121.58
 20
1.30672
 11
121.658
 21
1.20496
  0
LINE
  8
0
 10
121.658
 20
1.20496
 11
121.731
 21
1.09843
  0
LINE
  8
0
 10
121.731
 20
1.09843
 11
121.796
 21
0.987595
  0
LINE
  8
0
 10
121.796
 20
0.987595
 11
121.855
 21
0.872833
  0
LINE
  8
0
 10
121.855
 20
0.872833
 11
121.906
 21
0.754654
  0
LINE
  8
0
 10
121.906
 20
0.754654
 11
121.95
 21
0.633484
  0
LINE
  8
0
 10
121.95
 20
0.633484
 11
121.986
 21
0.509811
  0
LINE
  8
0
 10
121.986
 20
0.509811
 11
122.014
 21
0.384125
  0
LINE
  8
0
 10
122.014
 20
0.384125
 11
122.034
 21
0.256927
  0
LINE
  8
0
 10
122.034
 20
0.256927
 11
122.046
 21
0.128708
  0
LINE
  8
0
 10
122.046
 20
0.128708
 11
122.05
 21
0
  0
LINE
  8
0
 10
122.05
 20
0
 11
122.046
 21
-0.128708
  0
LINE
  8
0
 10
122.046
 20
-0.128708
 11
122.034
 21
-0.256927
  0
LINE
  8
0
 10
122.034
 20
-0.256927
 11
122.014
 21
-0.384125
  0
LINE
  8
0
 10
122.014
 20
-0.384125
 11
121.986
 21
-0.509811
  0
LINE
  8
0
 10
121.986
 20
-0.509811
 11
121.95
 21
-0.633484
  0
LINE
  8
0
 10
121.95
 20
-0.633484
 11
121.906
 21
-0.754654
  0
LINE
  8
0
 10
121.906
 20
-0.754654
 11
121.855
 21
-0.872833
  0
LINE
  8
0
 10
121.855
 20
-0.872833
 11
121.796
 21
-0.987595
  0
LINE
  8
0
 10
121.796
 20
-0.987595
 11
121.731
 21
-1.09843
  0
LINE
  8
0
 10
121.731
 20
-1.09843
 11
121.658
 21
-1.20496
  0
LINE
  8
0
 10
121.658
 20
-1.20496
 11
121.58
 21
-1.30672
  0
LINE
  8
0
 10
121.58
 20
-1.30672
 11
121.494
 21
-1.40332
  0
LINE
  8
0
 10
121.494
 20
-1.40332
 11
121.403
 21
-1.49438
  0
LINE
  8
0
 10
121.403
 20
-1.49438
 11
121.307
 21
-1.57954
  0
LINE
  8
0
 10
121.307
 20
-1.57954
 11
121.205
 21
-1.65848
  0
LINE
  8
0
 10
121.205
 20
-1.65848
 11
121.098
 21
-1.73087
  0
LINE
  8
0
 10
121.098
 20
-1.73087
 11
120.988
 21
-1.79642
  0
LINE
  8
0
 10
120.988
 20
-1.79642
 11
120.873
 21
-1.85489
  0
LINE
  8
0
 10
120.873
 20
-1.85489
 11
120.755
 21
-1.90604
  0
LINE
  8
0
 10
120.755
 20
-1.90604
 11
120.633
 21
-1.94966
  0
LINE
  8
0
 10
120.633
 20
-1.94966
 11
120.51
 21
-1.98558
  0
LINE
  8
0
 10
120.51
 20
-1.98558
 11
120.384
 21
-2.01369
  0
LINE
  8
0
 10
120.384
 20
-2.01369
 11
120.257
 21
-2.03383
  0
LINE
  8
0
 10
120.257
 20
-2.03383
 11
120.129
 21
-2.04594
  0
LINE
  8
0
 10
120.129
 20
-2.04594
 11
120
 21
-2.04999
  0
LINE
  8
0
 10
120
 20
-2.04999
 11
119.871
 21
-2.04594
  0
LINE
  8
0
 10
15
 20
50
 11
-15
 21
50
  0
LINE
  8
0
 10
-15
 20
50
 11
-15
 21
-50
  0
LINE
  8
0
 10
-15
 20
-50
 11
15
 21
-50
  0
LINE
  8
0
 10
15
 20
-50
 11
15
 21
50
  0
LINE
  8
0
 10
-0.128708
 20
-2.04594
 11
-0.256927
 21
-2.03383
  0
LINE
  8
0
 10
-0.256927
 20
-2.03383
 11
-0.384125
 21
-2.01369
  0
LINE
  8
0
 10
-0.384125
 20
-2.01369
 11
-0.509811
 21
-1.98558
  0
LINE
  8
0
 10
-0.509811
 20
-1.98558
 11
-0.633484
 21
-1.94966
  0
LINE
  8
0
 10
-0.633484
 20
-1.94966
 11
-0.754654
 21
-1.90604
  0
LINE
  8
0
 10
-0.754654
 20
-1.90604
 11
-0.872833
 21
-1.85489
  0
LINE
  8
0
 10
-0.872833
 20
-1.85489
 11
-0.987595
 21
-1.79642
  0
LINE
  8
0
 10
-0.987595
 20
-1.79642
 11
-1.09843
 21
-1.73087
  0
LINE
  8
0
 10
-1.09843
 20
-1.73087
 11
-1.20496
 21
-1.65848
  0
LINE
  8
0
 10
-1.20496
 20
-1.65848
 11
-1.30672
 21
-1.57954
  0
LINE
  8
0
 10
-1.30672
 20
-1.57954
 11
-1.40332
 21
-1.49438
  0
LINE
  8
0
 10
-1.40332
 20
-1.49438
 11
-1.49438
 21
-1.40332
  0
LINE
  8
0
 10
-1.49438
 20
-1.40332
 11
-1.57954
 21
-1.30672
  0
LINE
  8
0
 10
-1.57954
 20
-1.30672
 11
-1.65848
 21
-1.20496
  0
LINE
  8
0
 10
-1.65848
 20
-1.20496
 11
-1.73087
 21
-1.09843
  0
LINE
  8
0
 10
-1.73087
 20
-1.09843
 11
-1.79642
 21
-0.987595
  0
LINE
  8
0
 10
-1.79642
 20
-0.987595
 11
-1.85489
 21
-0.872833
  0
LINE
  8
0
 10
-1.85489
 20
-0.872833
 11
-1.90604
 21
-0.754654
  0
LINE
  8
0
 10
-1.90604
 20
-0.754654
 11
-1.94966
 21
-0.633484
  0
LINE
  8
0
 10
-1.94966
 20
-0.633484
 11
-1.98558
 21
-0.509811
  0
LINE
  8
0
 10
-1.98558
 20
-0.509811
 11
-2.01369
 21
-0.384125
  0
LINE
  8
0
 10
-2.01369
 20
-0.384125
 11
-2.03383
 21
-0.256927
  0
LINE
  8
0
 10
-2.03383
 20
-0.256927
 11
-2.04594
 21
-0.128708
  0
LINE
  8
0
 10
-2.04594
 20
-0.128708
 11
-2.04999
 21
0
  0
LINE
  8
0
 10
-2.04999
 20
0
 11
-2.04594
 21
0.128708
  0
LINE
  8
0
 10
-2.04594
 20
0.128708
 11
-2.03383
 21
0.256927
  0
LINE
  8
0
 10
-2.03383
 20
0.256927
 11
-2.01369
 21
0.384125
  0
LINE
  8
0
 10
-2.01369
 20
0.384125
 11
-1.98558
 21
0.509811
  0
LINE
  8
0
 10
-1.98558
 20
0.509811
 11
-1.94966
 21
0.633484
  0
LINE
  8
0
 10
-1.94966
 20
0.633484
 11
-1.90604
 21
0.754654
  0
LINE
  8
0
 10
-1.90604
 20
0.754654
 11
-1.85489
 21
0.872833
  0
LINE
  8
0
 10
-1.85489
 20
0.872833
 11
-1.79642
 21
0.987595
  0
LINE
  8
0
 10
-1.79642
 20
0.987595
 11
-1.73087
 21
1.09843
  0
LINE
  8
0
 10
-1.73087
 20
1.09843
 11
-1.65848
 21
1.20496
  0
LINE
  8
0
 10
-1.65848
 20
1.20496
 11
-1.57954
 21
1.30672
  0
LINE
  8
0
 10
-1.57954
 20
1.30672
 11
-1.49438
 21
1.40332
  0
LINE
  8
0
 10
-1.49438
 20
1.40332
 11
-1.40332
 21
1.49438
  0
LINE
  8
0
 10
-1.40332
 20
1.49438
 11
-1.30672
 21
1.57954
  0
LINE
  8
0
 10
-1.30672
 20
1.57954
 11
-1.20496
 21
1.65848
  0
LINE
  8
0
 10
-1.20496
 20
1.65848
 11
-1.09843
 21
1.73087
  0
LINE
  8
0
 10
-1.09843
 20
1.73087
 11
-0.987595
 21
1.79642
  0
LINE
  8
0
 10
-0.987595
 20
1.79642
 11
-0.872833
 21
1.85489
  0
LINE
  8
0
 10
-0.872833
 20
1.85489
 11
-0.754654
 21
1.90604
  0
LINE
  8
0
 10
-0.754654
 20
1.90604
 11
-0.633484
 21
1.94966
  0
LINE
  8
0
 10
-0.633484
 20
1.94966
 11
-0.509811
 21
1.98558
  0
LINE
  8
0
 10
-0.509811
 20
1.98558
 11
-0.384125
 21
2.01369
  0
LINE
  8
0
 10
-0.384125
 20
2.01369
 11
-0.256927
 21
2.03383
  0
LINE
  8
0
 10
-0.256927
 20
2.03383
 11
-0.128708
 21
2.04594
  0
LINE
  8
0
 10
-0.128708
 20
2.04594
 11
0
 21
2.04999
  0
LINE
  8
0
 10
0
 20
2.04999
 11
0.128708
 21
2.04594
  0
LINE
  8
0
 10
0.128708
 20
2.04594
 11
0.256927
 21
2.03383
  0
LINE
  8
0
 10
0.256927
 20
2.03383
 11
0.384125
 21
2.01369
  0
LINE
  8
0
 10
0.384125
 20
2.01369
 11
0.509811
 21
1.98558
  0
LINE
  8
0
 10
0.509811
 20
1.98558
 11
0.633484
 21
1.94966
  0
LINE
  8
0
 10
0.633484
 20
1.94966
 11
0.754654
 21
1.90604
  0
LINE
  8
0
 10
0.754654
 20
1.90604
 11
0.872833
 21
1.85489
  0
LINE
  8
0
 10
0.872833
 20
1.85489
 11
0.987595
 21
1.79642
  0
LINE
  8
0
 10
0.987595
 20
1.79642
 11
1.09843
 21
1.73087
  0
LINE
  8
0
 10
1.09843
 20
1.73087
 11
1.20496
 21
1.65848
  0
LINE
  8
0
 10
1.20496
 20
1.65848
 11
1.30672
 21
1.57954
  0
LINE
  8
0
 10
1.30672
 20
1.57954
 11
1.40332
 21
1.49438
  0
LINE
  8
0
 10
1.40332
 20
1.49438
 11
1.49438
 21
1.40332
  0
LINE
  8
0
 10
1.49438
 20
1.40332
 11
1.57954
 21
1.30672
  0
LINE
  8
0
 10
1.57954
 20
1.30672
 11
1.65848
 21
1.20496
  0
LINE
  8
0
 10
1.65848
 20
1.20496
 11
1.73087
 21
1.09843
  0
LINE
  8
0
 10
1.73087
 20
1.09843
 11
1.79642
 21
0.987595
  0
LINE
  8
0
 10
1.79642
 20
0.987595
 11
1.85489
 21
0.872833
  0
LINE
  8
0
 10
1.85489
 20
0.872833
 11
1.90604
 21
0.754654
  0
LINE
  8
0
 10
1.90604
 20
0.754654
 11
1.94966
 21
0.633484
  0
LINE
  8
0
 10
1.94966
 20
0.633484
 11
1.98558
 21
0.509811
  0
LINE
  8
0
 10
1.98558
 20
0.509811
 11
2.01369
 21
0.384125
  0
LINE
  8
0
 10
2.01369
 20
0.384125
 11
2.03383
 21
0.256927
  0
LINE
  8
0
 10
2.03383
 20
0.256927
 11
2.04594
 21
0.128708
  0
LINE
  8
0
 10
2.04594
 20
0.128708
 11
2.04999
 21
0
  0
LINE
  8
0
 10
2.04999
 20
0
 11
2.04594
 21
-0.128708
  0
LINE
  8
0
 10
2.04594
 20
-0.128708
 11
2.03383
 21
-0.256927
  0
LINE
  8
0
 10
2.03383
 20
-0.256927
 11
2.01369
 21
-0.384125
  0
LINE
  8
0
 10
2.01369
 20
-0.384125
 11
1.98558
 21
-0.509811
  0
LINE
  8
0
 10
1.98558
 20
-0.509811
 11
1.94966
 21
-0.633484
  0
LINE
  8
0
 10
1.94966
 20
-0.633484
 11
1.90604
 21
-0.754654
  0
LINE
  8
0
 10
1.90604
 20
-0.754654
 11
1.85489
 21
-0.872833
  0
LINE
  8
0
 10
1.85489
 20
-0.872833
 11
1.79642
 21
-0.987595
  0
LINE
  8
0
 10
1.79642
 20
-0.987595
 11
1.73087
 21
-1.09843
  0
LINE
  8
0
 10
1.73087
 20
-1.09843
 11
1.65848
 21
-1.20496
  0
LINE
  8
0
 10
1.65848
 20
-1.20496
 11
1.57954
 21
-1.30672
  0
LINE
  8
0
 10
1.57954
 20
-1.30672
 11
1.49438
 21
-1.40332
  0
LINE
  8
0
 10
1.49438
 20
-1.40332
 11
1.40332
 21
-1.49438
  0
LINE
  8
0
 10
1.40332
 20
-1.49438
 11
1.30672
 21
-1.57954
  0
LINE
  8
0
 10
1.30672
 20
-1.57954
 11
1.20496
 21
-1.65848
  0
LINE
  8
0
 10
1.20496
 20
-1.65848
 11
1.09843
 21
-1.73087
  0
LINE
  8
0
 10
1.09843
 20
-1.73087
 11
0.987595
 21
-1.79642
  0
LINE
  8
0
 10
0.987595
 20
-1.79642
 11
0.872833
 21
-1.85489
  0
LINE
  8
0
 10
0.872833
 20
-1.85489
 11
0.754654
 21
-1.90604
  0
LINE
  8
0
 10
0.754654
 20
-1.90604
 11
0.633484
 21
-1.94966
  0
LINE
  8
0
 10
0.633484
 20
-1.94966
 11
0.509811
 21
-1.98558
  0
LINE
  8
0
 10
0.509811
 20
-1.98558
 11
0.384125
 21
-2.01369
  0
LINE
  8
0
 10
0.384125
 20
-2.01369
 11
0.256927
 21
-2.03383
  0
LINE
  8
0
 10
0.256927
 20
-2.03383
 11
0.128708
 21
-2.04594
  0
LINE
  8
0
 10
0.128708
 20
-2.04594
 11
0
 21
-2.04999
  0
LINE
  8
0
 10
0
 20
-2.04999
 11
-0.128708
 21
-2.04594
  0
ENDSEC
  0
SECTION
  2
OBJECTS
  0
DICTIONARY
  0
ENDSEC
  0
EOF
