  0
SECTION
  2
BLOCKS
  0
ENDSEC
  0
SECTION
  2
ENTITIES
  0
LINE
  8
0
 10
75
 20
50
 11
45
 21
50
  0
LINE
  8
0
 10
45
 20
50
 11
45
 21
-50
  0
LINE
  8
0
 10
45
 20
-50
 11
75
 21
-50
  0
LINE
  8
0
 10
75
 20
-50
 11
75
 21
50
  0
LINE
  8
0
 10
59.8932
 20
-1.69664
 11
59.7869
 21
-1.68658
  0
LINE
  8
0
 10
59.7869
 20
-1.68658
 11
59.6814
 21
-1.66988
  0
LINE
  8
0
 10
59.6814
 20
-1.66988
 11
59.5772
 21
-1.64659
  0
LINE
  8
0
 10
59.5772
 20
-1.64659
 11
59.4747
 21
-1.61679
  0
LINE
  8
0
 10
59.4747
 20
-1.61679
 11
59.3742
 21
-1.58061
  0
LINE
  8
0
 10
59.3742
 20
-1.58061
 11
59.2762
 21
-1.53819
  0
LINE
  8
0
 10
59.2762
 20
-1.53819
 11
59.181
 21
-1.48972
  0
LINE
  8
0
 10
59.181
 20
-1.48972
 11
59.0891
 21
-1.43535
  0
LINE
  8
0
 10
59.0891
 20
-1.43535
 11
59.0008
 21
-1.37532
  0
LINE
  8
0
 10
59.0008
 20
-1.37532
 11
58.9164
 21
-1.30986
  0
LINE
  8
0
 10
58.9164
 20
-1.30986
 11
58.8363
 21
-1.23924
  0
LINE
  8
0
 10
58.8363
 20
-1.23924
 11
58.7607
 21
-1.16373
  0
LINE
  8
0
 10
58.7607
 20
-1.16373
 11
58.6901
 21
-1.08362
  0
LINE
  8
0
 10
58.6901
 20
-1.08362
 11
58.6247
 21
-0.999222
  0
LINE
  8
0
 10
58.6247
 20
-0.999222
 11
58.5646
 21
-0.910904
  0
LINE
  8
0
 10
58.5646
 20
-0.910904
 11
58.5103
 21
-0.81897
  0
LINE
  8
0
 10
58.5103
 20
-0.81897
 11
58.4618
 21
-0.723816
  0
LINE
  8
0
 10
58.4618
 20
-0.723816
 11
58.4194
 21
-0.625809
  0
LINE
  8
0
 10
58.4194
 20
-0.625809
 11
58.3832
 21
-0.525314
  0
LINE
  8
0
 10
58.3832
 20
-0.525314
 11
58.3534
 21
-0.42276
  0
LINE
  8
0
 10
58.3534
 20
-0.42276
 11
58.3301
 21
-0.318542
  0
LINE
  8
0
 10
58.3301
 20
-0.318542
 11
58.3134
 21
-0.213058
  0
LINE
  8
0
 10
58.3134
 20
-0.213058
 11
58.3033
 21
-0.106735
  0
LINE
  8
0
 10
58.3033
 20
-0.106735
 11
58.3
 21
0
  0
LINE
  8
0
 10
58.3
 20
0
 11
58.3033
 21
0.106735
  0
LINE
  8
0
 10
58.3033
 20
0.106735
 11
58.3134
 21
0.213058
  0
LINE
  8
0
 10
58.3134
 20
0.213058
 11
58.3301
 21
0.318542
  0
LINE
  8
0
 10
58.3301
 20
0.318542
 11
58.3534
 21
0.42276
  0
LINE
  8
0
 10
58.3534
 20
0.42276
 11
58.3832
 21
0.525314
  0
LINE
  8
0
 10
58.3832
 20
0.525314
 11
58.4194
 21
0.625809
  0
LINE
  8
0
 10
58.4194
 20
0.625809
 11
58.4618
 21
0.723816
  0
LINE
  8
0
 10
58.4618
 20
0.723816
 11
58.5103
 21
0.81897
  0
LINE
  8
0
 10
58.5103
 20
0.81897
 11
58.5646
 21
0.910904
  0
LINE
  8
0
 10
58.5646
 20
0.910904
 11
58.6247
 21
0.999222
  0
LINE
  8
0
 10
58.6247
 20
0.999222
 11
58.6901
 21
1.08362
  0
LINE
  8
0
 10
58.6901
 20
1.08362
 11
58.7607
 21
1.16373
  0
LINE
  8
0
 10
58.7607
 20
1.16373
 11
58.8363
 21
1.23924
  0
LINE
  8
0
 10
58.8363
 20
1.23924
 11
58.9164
 21
1.30986
  0
LINE
  8
0
 10
58.9164
 20
1.30986
 11
59.0008
 21
1.37532
  0
LINE
  8
0
 10
59.0008
 20
1.37532
 11
59.0891
 21
1.43535
  0
LINE
  8
0
 10
59.0891
 20
1.43535
 11
59.181
 21
1.48972
  0
LINE
  8
0
 10
59.181
 20
1.48972
 11
59.2762
 21
1.53819
  0
LINE
  8
0
 10
59.2762
 20
1.53819
 11
59.3742
 21
1.58061
  0
LINE
  8
0
 10
59.3742
 20
1.58061
 11
59.4747
 21
1.61679
  0
LINE
  8
0
 10
59.4747
 20
1.61679
 11
59.5772
 21
1.64659
  0
LINE
  8
0
 10
59.5772
 20
1.64659
 11
59.6814
 21
1.66988
  0
LINE
  8
0
 10
59.6814
 20
1.66988
 11
59.7869
 21
1.68658
  0
LINE
  8
0
 10
59.7869
 20
1.68658
 11
59.8932
 21
1.69664
  0
LINE
  8
0
 10
59.8932
 20
1.69664
 11
60
 21
1.7
  0
LINE
  8
0
 10
60
 20
1.7
 11
60.1067
 21
1.69664
  0
LINE
  8
0
 10
60.1067
 20
1.69664
 11
60.2131
 21
1.68658
  0
LINE
  8
0
 10
60.2131
 20
1.68658
 11
60.3185
 21
1.66988
  0
LINE
  8
0
 10
60.3185
 20
1.66988
 11
60.4228
 21
1.64659
  0
LINE
  8
0
 10
60.4228
 20
1.64659
 11
60.5253
 21
1.61679
  0
LINE
  8
0
 10
60.5253
 20
1.61679
 11
60.6258
 21
1.58061
  0
LINE
  8
0
 10
60.6258
 20
1.58061
 11
60.7238
 21
1.53819
  0
LINE
  8
0
 10
60.7238
 20
1.53819
 11
60.819
 21
1.48972
  0
LINE
  8
0
 10
60.819
 20
1.48972
 11
60.9109
 21
1.43535
  0
LINE
  8
0
 10
60.9109
 20
1.43535
 11
60.9992
 21
1.37532
  0
LINE
  8
0
 10
60.9992
 20
1.37532
 11
61.0836
 21
1.30986
  0
LINE
  8
0
 10
61.0836
 20
1.30986
 11
61.1637
 21
1.23924
  0
LINE
  8
0
 10
61.1637
 20
1.23924
 11
61.2392
 21
1.16373
  0
LINE
  8
0
 10
61.2392
 20
1.16373
 11
61.3099
 21
1.08362
  0
LINE
  8
0
 10
61.3099
 20
1.08362
 11
61.3753
 21
0.999222
  0
LINE
  8
0
 10
61.3753
 20
0.999222
 11
61.4353
 21
0.910904
  0
LINE
  8
0
 10
61.4353
 20
0.910904
 11
61.4897
 21
0.81897
  0
LINE
  8
0
 10
61.4897
 20
0.81897
 11
61.5382
 21
0.723816
  0
LINE
  8
0
 10
61.5382
 20
0.723816
 11
61.5806
 21
0.625809
  0
LINE
  8
0
 10
61.5806
 20
0.625809
 11
61.6168
 21
0.525314
  0
LINE
  8
0
 10
61.6168
 20
0.525314
 11
61.6466
 21
0.42276
  0
LINE
  8
0
 10
61.6466
 20
0.42276
 11
61.6699
 21
0.318542
  0
LINE
  8
0
 10
61.6699
 20
0.318542
 11
61.6866
 21
0.213058
  0
LINE
  8
0
 10
61.6866
 20
0.213058
 11
61.6966
 21
0.106735
  0
LINE
  8
0
 10
61.6966
 20
0.106735
 11
61.7
 21
0
  0
LINE
  8
0
 10
61.7
 20
0
 11
61.6966
 21
-0.106735
  0
LINE
  8
0
 10
61.6966
 20
-0.106735
 11
61.6866
 21
-0.213058
  0
LINE
  8
0
 10
61.6866
 20
-0.213058
 11
61.6699
 21
-0.318542
  0
LINE
  8
0
 10
61.6699
 20
-0.318542
 11
61.6466
 21
-0.42276
  0
LINE
  8
0
 10
61.6466
 20
-0.42276
 11
61.6168
 21
-0.525314
  0
LINE
  8
0
 10
61.6168
 20
-0.525314
 11
61.5806
 21
-0.625809
  0
LINE
  8
0
 10
61.5806
 20
-0.625809
 11
61.5382
 21
-0.723816
  0
LINE
  8
0
 10
61.5382
 20
-0.723816
 11
61.4897
 21
-0.81897
  0
LINE
  8
0
 10
61.4897
 20
-0.81897
 11
61.4353
 21
-0.910904
  0
LINE
  8
0
 10
61.4353
 20
-0.910904
 11
61.3753
 21
-0.999222
  0
LINE
  8
0
 10
61.3753
 20
-0.999222
 11
61.3099
 21
-1.08362
  0
LINE
  8
0
 10
61.3099
 20
-1.08362
 11
61.2392
 21
-1.16373
  0
LINE
  8
0
 10
61.2392
 20
-1.16373
 11
61.1637
 21
-1.23924
  0
LINE
  8
0
 10
61.1637
 20
-1.23924
 11
61.0836
 21
-1.30986
  0
LINE
  8
0
 10
61.0836
 20
-1.30986
 11
60.9992
 21
-1.37532
  0
LINE
  8
0
 10
60.9992
 20
-1.37532
 11
60.9109
 21
-1.43535
  0
LINE
  8
0
 10
60.9109
 20
-1.43535
 11
60.819
 21
-1.48972
  0
LINE
  8
0
 10
60.819
 20
-1.48972
 11
60.7238
 21
-1.53819
  0
LINE
  8
0
 10
60.7238
 20
-1.53819
 11
60.6258
 21
-1.58061
  0
LINE
  8
0
 10
60.6258
 20
-1.58061
 11
60.5253
 21
-1.61679
  0
LINE
  8
0
 10
60.5253
 20
-1.61679
 11
60.4228
 21
-1.64659
  0
LINE
  8
0
 10
60.4228
 20
-1.64659
 11
60.3185
 21
-1.66988
  0
LINE
  8
0
 10
60.3185
 20
-1.66988
 11
60.2131
 21
-1.68658
  0
LINE
  8
0
 10
60.2131
 20
-1.68658
 11
60.1067
 21
-1.69664
  0
LINE
  8
0
 10
60.1067
 20
-1.69664
 11
60
 21
-1.7
  0
LINE
  8
0
 10
60
 20
-1.7
 11
59.8932
 21
-1.69664
  0
LINE
  8
0
 10
195
 20
50
 11
165
 21
50
  0
LINE
  8
0
 10
165
 20
50
 11
165
 21
-50
  0
LINE
  8
0
 10
165
 20
-50
 11
195
 21
-50
  0
LINE
  8
0
 10
195
 20
-50
 11
195
 21
50
  0
LINE
  8
0
 10
179.893
 20
-1.69664
 11
179.787
 21
-1.68658
  0
LINE
  8
0
 10
179.787
 20
-1.68658
 11
179.681
 21
-1.66988
  0
LINE
  8
0
 10
179.681
 20
-1.66988
 11
179.577
 21
-1.64659
  0
LINE
  8
0
 10
179.577
 20
-1.64659
 11
179.475
 21
-1.61679
  0
LINE
  8
0
 10
179.475
 20
-1.61679
 11
179.374
 21
-1.58061
  0
LINE
  8
0
 10
179.374
 20
-1.58061
 11
179.276
 21
-1.53819
  0
LINE
  8
0
 10
179.276
 20
-1.53819
 11
179.181
 21
-1.48972
  0
LINE
  8
0
 10
179.181
 20
-1.48972
 11
179.089
 21
-1.43535
  0
LINE
  8
0
 10
179.089
 20
-1.43535
 11
179.001
 21
-1.37532
  0
LINE
  8
0
 10
179.001
 20
-1.37532
 11
178.916
 21
-1.30986
  0
LINE
  8
0
 10
178.916
 20
-1.30986
 11
178.836
 21
-1.23924
  0
LINE
  8
0
 10
178.836
 20
-1.23924
 11
178.761
 21
-1.16373
  0
LINE
  8
0
 10
178.761
 20
-1.16373
 11
178.69
 21
-1.08362
  0
LINE
  8
0
 10
178.69
 20
-1.08362
 11
178.625
 21
-0.999222
  0
LINE
  8
0
 10
178.625
 20
-0.999222
 11
178.565
 21
-0.910904
  0
LINE
  8
0
 10
178.565
 20
-0.910904
 11
178.51
 21
-0.81897
  0
LINE
  8
0
 10
178.51
 20
-0.81897
 11
178.462
 21
-0.723816
  0
LINE
  8
0
 10
178.462
 20
-0.723816
 11
178.419
 21
-0.625809
  0
LINE
  8
0
 10
178.419
 20
-0.625809
 11
178.383
 21
-0.525314
  0
LINE
  8
0
 10
178.383
 20
-0.525314
 11
178.353
 21
-0.42276
  0
LINE
  8
0
 10
178.353
 20
-0.42276
 11
178.33
 21
-0.318542
  0
LINE
  8
0
 10
178.33
 20
-0.318542
 11
178.313
 21
-0.213058
  0
LINE
  8
0
 10
178.313
 20
-0.213058
 11
178.303
 21
-0.106735
  0
LINE
  8
0
 10
178.303
 20
-0.106735
 11
178.3
 21
0
  0
LINE
  8
0
 10
178.3
 20
0
 11
178.303
 21
0.106735
  0
LINE
  8
0
 10
178.303
 20
0.106735
 11
178.313
 21
0.213058
  0
LINE
  8
0
 10
178.313
 20
0.213058
 11
178.33
 21
0.318542
  0
LINE
  8
0
 10
178.33
 20
0.318542
 11
178.353
 21
0.42276
  0
LINE
  8
0
 10
178.353
 20
0.42276
 11
178.383
 21
0.525314
  0
LINE
  8
0
 10
178.383
 20
0.525314
 11
178.419
 21
0.625809
  0
LINE
  8
0
 10
178.419
 20
0.625809
 11
178.462
 21
0.723816
  0
LINE
  8
0
 10
178.462
 20
0.723816
 11
178.51
 21
0.81897
  0
LINE
  8
0
 10
178.51
 20
0.81897
 11
178.565
 21
0.910904
  0
LINE
  8
0
 10
178.565
 20
0.910904
 11
178.625
 21
0.999222
  0
LINE
  8
0
 10
178.625
 20
0.999222
 11
178.69
 21
1.08362
  0
LINE
  8
0
 10
178.69
 20
1.08362
 11
178.761
 21
1.16373
  0
LINE
  8
0
 10
178.761
 20
1.16373
 11
178.836
 21
1.23924
  0
LINE
  8
0
 10
178.836
 20
1.23924
 11
178.916
 21
1.30986
  0
LINE
  8
0
 10
178.916
 20
1.30986
 11
179.001
 21
1.37532
  0
LINE
  8
0
 10
179.001
 20
1.37532
 11
179.089
 21
1.43535
  0
LINE
  8
0
 10
179.089
 20
1.43535
 11
179.181
 21
1.48972
  0
LINE
  8
0
 10
179.181
 20
1.48972
 11
179.276
 21
1.53819
  0
LINE
  8
0
 10
179.276
 20
1.53819
 11
179.374
 21
1.58061
  0
LINE
  8
0
 10
179.374
 20
1.58061
 11
179.475
 21
1.61679
  0
LINE
  8
0
 10
179.475
 20
1.61679
 11
179.577
 21
1.64659
  0
LINE
  8
0
 10
179.577
 20
1.64659
 11
179.681
 21
1.66988
  0
LINE
  8
0
 10
179.681
 20
1.66988
 11
179.787
 21
1.68658
  0
LINE
  8
0
 10
179.787
 20
1.68658
 11
179.893
 21
1.69664
  0
LINE
  8
0
 10
179.893
 20
1.69664
 11
180
 21
1.7
  0
LINE
  8
0
 10
180
 20
1.7
 11
180.107
 21
1.69664
  0
LINE
  8
0
 10
180.107
 20
1.69664
 11
180.213
 21
1.68658
  0
LINE
  8
0
 10
180.213
 20
1.68658
 11
180.319
 21
1.66988
  0
LINE
  8
0
 10
180.319
 20
1.66988
 11
180.423
 21
1.64659
  0
LINE
  8
0
 10
180.423
 20
1.64659
 11
180.525
 21
1.61679
  0
LINE
  8
0
 10
180.525
 20
1.61679
 11
180.626
 21
1.58061
  0
LINE
  8
0
 10
180.626
 20
1.58061
 11
180.724
 21
1.53819
  0
LINE
  8
0
 10
180.724
 20
1.53819
 11
180.819
 21
1.48972
  0
LINE
  8
0
 10
180.819
 20
1.48972
 11
180.911
 21
1.43535
  0
LINE
  8
0
 10
180.911
 20
1.43535
 11
180.999
 21
1.37532
  0
LINE
  8
0
 10
180.999
 20
1.37532
 11
181.084
 21
1.30986
  0
LINE
  8
0
 10
181.084
 20
1.30986
 11
181.164
 21
1.23924
  0
LINE
  8
0
 10
181.164
 20
1.23924
 11
181.239
 21
1.16373
  0
LINE
  8
0
 10
181.239
 20
1.16373
 11
181.31
 21
1.08362
  0
LINE
  8
0
 10
181.31
 20
1.08362
 11
181.375
 21
0.999222
  0
LINE
  8
0
 10
181.375
 20
0.999222
 11
181.435
 21
0.910904
  0
LINE
  8
0
 10
181.435
 20
0.910904
 11
181.49
 21
0.81897
  0
LINE
  8
0
 10
181.49
 20
0.81897
 11
181.538
 21
0.723816
  0
LINE
  8
0
 10
181.538
 20
0.723816
 11
181.581
 21
0.625809
  0
LINE
  8
0
 10
181.581
 20
0.625809
 11
181.617
 21
0.525314
  0
LINE
  8
0
 10
181.617
 20
0.525314
 11
181.647
 21
0.42276
  0
LINE
  8
0
 10
181.647
 20
0.42276
 11
181.67
 21
0.318542
  0
LINE
  8
0
 10
181.67
 20
0.318542
 11
181.687
 21
0.213058
  0
LINE
  8
0
 10
181.687
 20
0.213058
 11
181.697
 21
0.106735
  0
LINE
  8
0
 10
181.697
 20
0.106735
 11
181.7
 21
0
  0
LINE
  8
0
 10
181.7
 20
0
 11
181.697
 21
-0.106735
  0
LINE
  8
0
 10
181.697
 20
-0.106735
 11
181.687
 21
-0.213058
  0
LINE
  8
0
 10
181.687
 20
-0.213058
 11
181.67
 21
-0.318542
  0
LINE
  8
0
 10
181.67
 20
-0.318542
 11
181.647
 21
-0.42276
  0
LINE
  8
0
 10
181.647
 20
-0.42276
 11
181.617
 21
-0.525314
  0
LINE
  8
0
 10
181.617
 20
-0.525314
 11
181.581
 21
-0.625809
  0
LINE
  8
0
 10
181.581
 20
-0.625809
 11
181.538
 21
-0.723816
  0
LINE
  8
0
 10
181.538
 20
-0.723816
 11
181.49
 21
-0.81897
  0
LINE
  8
0
 10
181.49
 20
-0.81897
 11
181.435
 21
-0.910904
  0
LINE
  8
0
 10
181.435
 20
-0.910904
 11
181.375
 21
-0.999222
  0
LINE
  8
0
 10
181.375
 20
-0.999222
 11
181.31
 21
-1.08362
  0
LINE
  8
0
 10
181.31
 20
-1.08362
 11
181.239
 21
-1.16373
  0
LINE
  8
0
 10
181.239
 20
-1.16373
 11
181.164
 21
-1.23924
  0
LINE
  8
0
 10
181.164
 20
-1.23924
 11
181.084
 21
-1.30986
  0
LINE
  8
0
 10
181.084
 20
-1.30986
 11
180.999
 21
-1.37532
  0
LINE
  8
0
 10
180.999
 20
-1.37532
 11
180.911
 21
-1.43535
  0
LINE
  8
0
 10
180.911
 20
-1.43535
 11
180.819
 21
-1.48972
  0
LINE
  8
0
 10
180.819
 20
-1.48972
 11
180.724
 21
-1.53819
  0
LINE
  8
0
 10
180.724
 20
-1.53819
 11
180.626
 21
-1.58061
  0
LINE
  8
0
 10
180.626
 20
-1.58061
 11
180.525
 21
-1.61679
  0
LINE
  8
0
 10
180.525
 20
-1.61679
 11
180.423
 21
-1.64659
  0
LINE
  8
0
 10
180.423
 20
-1.64659
 11
180.319
 21
-1.66988
  0
LINE
  8
0
 10
180.319
 20
-1.66988
 11
180.213
 21
-1.68658
  0
LINE
  8
0
 10
180.213
 20
-1.68658
 11
180.107
 21
-1.69664
  0
LINE
  8
0
 10
180.107
 20
-1.69664
 11
180
 21
-1.7
  0
LINE
  8
0
 10
180
 20
-1.7
 11
179.893
 21
-1.69664
  0
LINE
  8
0
 10
135
 20
50
 11
105
 21
50
  0
LINE
  8
0
 10
105
 20
50
 11
105
 21
-50
  0
LINE
  8
0
 10
105
 20
-50
 11
135
 21
-50
  0
LINE
  8
0
 10
135
 20
-50
 11
135
 21
50
  0
LINE
  8
0
 10
119.893
 20
-1.69664
 11
119.787
 21
-1.68658
  0
LINE
  8
0
 10
119.787
 20
-1.68658
 11
119.681
 21
-1.66988
  0
LINE
  8
0
 10
119.681
 20
-1.66988
 11
119.577
 21
-1.64659
  0
LINE
  8
0
 10
119.577
 20
-1.64659
 11
119.475
 21
-1.61679
  0
LINE
  8
0
 10
119.475
 20
-1.61679
 11
119.374
 21
-1.58061
  0
LINE
  8
0
 10
119.374
 20
-1.58061
 11
119.276
 21
-1.53819
  0
LINE
  8
0
 10
119.276
 20
-1.53819
 11
119.181
 21
-1.48972
  0
LINE
  8
0
 10
119.181
 20
-1.48972
 11
119.089
 21
-1.43535
  0
LINE
  8
0
 10
119.089
 20
-1.43535
 11
119.001
 21
-1.37532
  0
LINE
  8
0
 10
119.001
 20
-1.37532
 11
118.916
 21
-1.30986
  0
LINE
  8
0
 10
118.916
 20
-1.30986
 11
118.836
 21
-1.23924
  0
LINE
  8
0
 10
118.836
 20
-1.23924
 11
118.761
 21
-1.16373
  0
LINE
  8
0
 10
118.761
 20
-1.16373
 11
118.69
 21
-1.08362
  0
LINE
  8
0
 10
118.69
 20
-1.08362
 11
118.625
 21
-0.999222
  0
LINE
  8
0
 10
118.625
 20
-0.999222
 11
118.565
 21
-0.910904
  0
LINE
  8
0
 10
118.565
 20
-0.910904
 11
118.51
 21
-0.81897
  0
LINE
  8
0
 10
118.51
 20
-0.81897
 11
118.462
 21
-0.723816
  0
LINE
  8
0
 10
118.462
 20
-0.723816
 11
118.419
 21
-0.625809
  0
LINE
  8
0
 10
118.419
 20
-0.625809
 11
118.383
 21
-0.525314
  0
LINE
  8
0
 10
118.383
 20
-0.525314
 11
118.353
 21
-0.42276
  0
LINE
  8
0
 10
118.353
 20
-0.42276
 11
118.33
 21
-0.318542
  0
LINE
  8
0
 10
118.33
 20
-0.318542
 11
118.313
 21
-0.213058
  0
LINE
  8
0
 10
118.313
 20
-0.213058
 11
118.303
 21
-0.106735
  0
LINE
  8
0
 10
118.303
 20
-0.106735
 11
118.3
 21
0
  0
LINE
  8
0
 10
118.3
 20
0
 11
118.303
 21
0.106735
  0
LINE
  8
0
 10
118.303
 20
0.106735
 11
118.313
 21
0.213058
  0
LINE
  8
0
 10
118.313
 20
0.213058
 11
118.33
 21
0.318542
  0
LINE
  8
0
 10
118.33
 20
0.318542
 11
118.353
 21
0.42276
  0
LINE
  8
0
 10
118.353
 20
0.42276
 11
118.383
 21
0.525314
  0
LINE
  8
0
 10
118.383
 20
0.525314
 11
118.419
 21
0.625809
  0
LINE
  8
0
 10
118.419
 20
0.625809
 11
118.462
 21
0.723816
  0
LINE
  8
0
 10
118.462
 20
0.723816
 11
118.51
 21
0.81897
  0
LINE
  8
0
 10
118.51
 20
0.81897
 11
118.565
 21
0.910904
  0
LINE
  8
0
 10
118.565
 20
0.910904
 11
118.625
 21
0.999222
  0
LINE
  8
0
 10
118.625
 20
0.999222
 11
118.69
 21
1.08362
  0
LINE
  8
0
 10
118.69
 20
1.08362
 11
118.761
 21
1.16373
  0
LINE
  8
0
 10
118.761
 20
1.16373
 11
118.836
 21
1.23924
  0
LINE
  8
0
 10
118.836
 20
1.23924
 11
118.916
 21
1.30986
  0
LINE
  8
0
 10
118.916
 20
1.30986
 11
119.001
 21
1.37532
  0
LINE
  8
0
 10
119.001
 20
1.37532
 11
119.089
 21
1.43535
  0
LINE
  8
0
 10
119.089
 20
1.43535
 11
119.181
 21
1.48972
  0
LINE
  8
0
 10
119.181
 20
1.48972
 11
119.276
 21
1.53819
  0
LINE
  8
0
 10
119.276
 20
1.53819
 11
119.374
 21
1.58061
  0
LINE
  8
0
 10
119.374
 20
1.58061
 11
119.475
 21
1.61679
  0
LINE
  8
0
 10
119.475
 20
1.61679
 11
119.577
 21
1.64659
  0
LINE
  8
0
 10
119.577
 20
1.64659
 11
119.681
 21
1.66988
  0
LINE
  8
0
 10
119.681
 20
1.66988
 11
119.787
 21
1.68658
  0
LINE
  8
0
 10
119.787
 20
1.68658
 11
119.893
 21
1.69664
  0
LINE
  8
0
 10
119.893
 20
1.69664
 11
120
 21
1.7
  0
LINE
  8
0
 10
120
 20
1.7
 11
120.107
 21
1.69664
  0
LINE
  8
0
 10
120.107
 20
1.69664
 11
120.213
 21
1.68658
  0
LINE
  8
0
 10
120.213
 20
1.68658
 11
120.319
 21
1.66988
  0
LINE
  8
0
 10
120.319
 20
1.66988
 11
120.423
 21
1.64659
  0
LINE
  8
0
 10
120.423
 20
1.64659
 11
120.525
 21
1.61679
  0
LINE
  8
0
 10
120.525
 20
1.61679
 11
120.626
 21
1.58061
  0
LINE
  8
0
 10
120.626
 20
1.58061
 11
120.724
 21
1.53819
  0
LINE
  8
0
 10
120.724
 20
1.53819
 11
120.819
 21
1.48972
  0
LINE
  8
0
 10
120.819
 20
1.48972
 11
120.911
 21
1.43535
  0
LINE
  8
0
 10
120.911
 20
1.43535
 11
120.999
 21
1.37532
  0
LINE
  8
0
 10
120.999
 20
1.37532
 11
121.084
 21
1.30986
  0
LINE
  8
0
 10
121.084
 20
1.30986
 11
121.164
 21
1.23924
  0
LINE
  8
0
 10
121.164
 20
1.23924
 11
121.239
 21
1.16373
  0
LINE
  8
0
 10
121.239
 20
1.16373
 11
121.31
 21
1.08362
  0
LINE
  8
0
 10
121.31
 20
1.08362
 11
121.375
 21
0.999222
  0
LINE
  8
0
 10
121.375
 20
0.999222
 11
121.435
 21
0.910904
  0
LINE
  8
0
 10
121.435
 20
0.910904
 11
121.49
 21
0.81897
  0
LINE
  8
0
 10
121.49
 20
0.81897
 11
121.538
 21
0.723816
  0
LINE
  8
0
 10
121.538
 20
0.723816
 11
121.581
 21
0.625809
  0
LINE
  8
0
 10
121.581
 20
0.625809
 11
121.617
 21
0.525314
  0
LINE
  8
0
 10
121.617
 20
0.525314
 11
121.647
 21
0.42276
  0
LINE
  8
0
 10
121.647
 20
0.42276
 11
121.67
 21
0.318542
  0
LINE
  8
0
 10
121.67
 20
0.318542
 11
121.687
 21
0.213058
  0
LINE
  8
0
 10
121.687
 20
0.213058
 11
121.697
 21
0.106735
  0
LINE
  8
0
 10
121.697
 20
0.106735
 11
121.7
 21
0
  0
LINE
  8
0
 10
121.7
 20
0
 11
121.697
 21
-0.106735
  0
LINE
  8
0
 10
121.697
 20
-0.106735
 11
121.687
 21
-0.213058
  0
LINE
  8
0
 10
121.687
 20
-0.213058
 11
121.67
 21
-0.318542
  0
LINE
  8
0
 10
121.67
 20
-0.318542
 11
121.647
 21
-0.42276
  0
LINE
  8
0
 10
121.647
 20
-0.42276
 11
121.617
 21
-0.525314
  0
LINE
  8
0
 10
121.617
 20
-0.525314
 11
121.581
 21
-0.625809
  0
LINE
  8
0
 10
121.581
 20
-0.625809
 11
121.538
 21
-0.723816
  0
LINE
  8
0
 10
121.538
 20
-0.723816
 11
121.49
 21
-0.81897
  0
LINE
  8
0
 10
121.49
 20
-0.81897
 11
121.435
 21
-0.910904
  0
LINE
  8
0
 10
121.435
 20
-0.910904
 11
121.375
 21
-0.999222
  0
LINE
  8
0
 10
121.375
 20
-0.999222
 11
121.31
 21
-1.08362
  0
LINE
  8
0
 10
121.31
 20
-1.08362
 11
121.239
 21
-1.16373
  0
LINE
  8
0
 10
121.239
 20
-1.16373
 11
121.164
 21
-1.23924
  0
LINE
  8
0
 10
121.164
 20
-1.23924
 11
121.084
 21
-1.30986
  0
LINE
  8
0
 10
121.084
 20
-1.30986
 11
120.999
 21
-1.37532
  0
LINE
  8
0
 10
120.999
 20
-1.37532
 11
120.911
 21
-1.43535
  0
LINE
  8
0
 10
120.911
 20
-1.43535
 11
120.819
 21
-1.48972
  0
LINE
  8
0
 10
120.819
 20
-1.48972
 11
120.724
 21
-1.53819
  0
LINE
  8
0
 10
120.724
 20
-1.53819
 11
120.626
 21
-1.58061
  0
LINE
  8
0
 10
120.626
 20
-1.58061
 11
120.525
 21
-1.61679
  0
LINE
  8
0
 10
120.525
 20
-1.61679
 11
120.423
 21
-1.64659
  0
LINE
  8
0
 10
120.423
 20
-1.64659
 11
120.319
 21
-1.66988
  0
LINE
  8
0
 10
120.319
 20
-1.66988
 11
120.213
 21
-1.68658
  0
LINE
  8
0
 10
120.213
 20
-1.68658
 11
120.107
 21
-1.69664
  0
LINE
  8
0
 10
120.107
 20
-1.69664
 11
120
 21
-1.7
  0
LINE
  8
0
 10
120
 20
-1.7
 11
119.893
 21
-1.69664
  0
LINE
  8
0
 10
15
 20
50
 11
-15
 21
50
  0
LINE
  8
0
 10
-15
 20
50
 11
-15
 21
-50
  0
LINE
  8
0
 10
-15
 20
-50
 11
15
 21
-50
  0
LINE
  8
0
 10
15
 20
-50
 11
15
 21
50
  0
LINE
  8
0
 10
-0.106735
 20
-1.69664
 11
-0.213058
 21
-1.68658
  0
LINE
  8
0
 10
-0.213058
 20
-1.68658
 11
-0.318542
 21
-1.66988
  0
LINE
  8
0
 10
-0.318542
 20
-1.66988
 11
-0.42276
 21
-1.64659
  0
LINE
  8
0
 10
-0.42276
 20
-1.64659
 11
-0.525314
 21
-1.61679
  0
LINE
  8
0
 10
-0.525314
 20
-1.61679
 11
-0.625809
 21
-1.58061
  0
LINE
  8
0
 10
-0.625809
 20
-1.58061
 11
-0.723816
 21
-1.53819
  0
LINE
  8
0
 10
-0.723816
 20
-1.53819
 11
-0.81897
 21
-1.48972
  0
LINE
  8
0
 10
-0.81897
 20
-1.48972
 11
-0.910904
 21
-1.43535
  0
LINE
  8
0
 10
-0.910904
 20
-1.43535
 11
-0.999222
 21
-1.37532
  0
LINE
  8
0
 10
-0.999222
 20
-1.37532
 11
-1.08362
 21
-1.30986
  0
LINE
  8
0
 10
-1.08362
 20
-1.30986
 11
-1.16373
 21
-1.23924
  0
LINE
  8
0
 10
-1.16373
 20
-1.23924
 11
-1.23924
 21
-1.16373
  0
LINE
  8
0
 10
-1.23924
 20
-1.16373
 11
-1.30986
 21
-1.08362
  0
LINE
  8
0
 10
-1.30986
 20
-1.08362
 11
-1.37532
 21
-0.999222
  0
LINE
  8
0
 10
-1.37532
 20
-0.999222
 11
-1.43535
 21
-0.910904
  0
LINE
  8
0
 10
-1.43535
 20
-0.910904
 11
-1.48972
 21
-0.81897
  0
LINE
  8
0
 10
-1.48972
 20
-0.81897
 11
-1.53819
 21
-0.723816
  0
LINE
  8
0
 10
-1.53819
 20
-0.723816
 11
-1.58061
 21
-0.625809
  0
LINE
  8
0
 10
-1.58061
 20
-0.625809
 11
-1.61679
 21
-0.525314
  0
LINE
  8
0
 10
-1.61679
 20
-0.525314
 11
-1.64659
 21
-0.42276
  0
LINE
  8
0
 10
-1.64659
 20
-0.42276
 11
-1.66988
 21
-0.318542
  0
LINE
  8
0
 10
-1.66988
 20
-0.318542
 11
-1.68658
 21
-0.213058
  0
LINE
  8
0
 10
-1.68658
 20
-0.213058
 11
-1.69664
 21
-0.106735
  0
LINE
  8
0
 10
-1.69664
 20
-0.106735
 11
-1.7
 21
0
  0
LINE
  8
0
 10
-1.7
 20
0
 11
-1.69664
 21
0.106735
  0
LINE
  8
0
 10
-1.69664
 20
0.106735
 11
-1.68658
 21
0.213058
  0
LINE
  8
0
 10
-1.68658
 20
0.213058
 11
-1.66988
 21
0.318542
  0
LINE
  8
0
 10
-1.66988
 20
0.318542
 11
-1.64659
 21
0.42276
  0
LINE
  8
0
 10
-1.64659
 20
0.42276
 11
-1.61679
 21
0.525314
  0
LINE
  8
0
 10
-1.61679
 20
0.525314
 11
-1.58061
 21
0.625809
  0
LINE
  8
0
 10
-1.58061
 20
0.625809
 11
-1.53819
 21
0.723816
  0
LINE
  8
0
 10
-1.53819
 20
0.723816
 11
-1.48972
 21
0.81897
  0
LINE
  8
0
 10
-1.48972
 20
0.81897
 11
-1.43535
 21
0.910904
  0
LINE
  8
0
 10
-1.43535
 20
0.910904
 11
-1.37532
 21
0.999222
  0
LINE
  8
0
 10
-1.37532
 20
0.999222
 11
-1.30986
 21
1.08362
  0
LINE
  8
0
 10
-1.30986
 20
1.08362
 11
-1.23924
 21
1.16373
  0
LINE
  8
0
 10
-1.23924
 20
1.16373
 11
-1.16373
 21
1.23924
  0
LINE
  8
0
 10
-1.16373
 20
1.23924
 11
-1.08362
 21
1.30986
  0
LINE
  8
0
 10
-1.08362
 20
1.30986
 11
-0.999222
 21
1.37532
  0
LINE
  8
0
 10
-0.999222
 20
1.37532
 11
-0.910904
 21
1.43535
  0
LINE
  8
0
 10
-0.910904
 20
1.43535
 11
-0.81897
 21
1.48972
  0
LINE
  8
0
 10
-0.81897
 20
1.48972
 11
-0.723816
 21
1.53819
  0
LINE
  8
0
 10
-0.723816
 20
1.53819
 11
-0.625809
 21
1.58061
  0
LINE
  8
0
 10
-0.625809
 20
1.58061
 11
-0.525314
 21
1.61679
  0
LINE
  8
0
 10
-0.525314
 20
1.61679
 11
-0.42276
 21
1.64659
  0
LINE
  8
0
 10
-0.42276
 20
1.64659
 11
-0.318542
 21
1.66988
  0
LINE
  8
0
 10
-0.318542
 20
1.66988
 11
-0.213058
 21
1.68658
  0
LINE
  8
0
 10
-0.213058
 20
1.68658
 11
-0.106735
 21
1.69664
  0
LINE
  8
0
 10
-0.106735
 20
1.69664
 11
0
 21
1.7
  0
LINE
  8
0
 10
0
 20
1.7
 11
0.106735
 21
1.69664
  0
LINE
  8
0
 10
0.106735
 20
1.69664
 11
0.213058
 21
1.68658
  0
LINE
  8
0
 10
0.213058
 20
1.68658
 11
0.318542
 21
1.66988
  0
LINE
  8
0
 10
0.318542
 20
1.66988
 11
0.42276
 21
1.64659
  0
LINE
  8
0
 10
0.42276
 20
1.64659
 11
0.525314
 21
1.61679
  0
LINE
  8
0
 10
0.525314
 20
1.61679
 11
0.625809
 21
1.58061
  0
LINE
  8
0
 10
0.625809
 20
1.58061
 11
0.723816
 21
1.53819
  0
LINE
  8
0
 10
0.723816
 20
1.53819
 11
0.81897
 21
1.48972
  0
LINE
  8
0
 10
0.81897
 20
1.48972
 11
0.910904
 21
1.43535
  0
LINE
  8
0
 10
0.910904
 20
1.43535
 11
0.999222
 21
1.37532
  0
LINE
  8
0
 10
0.999222
 20
1.37532
 11
1.08362
 21
1.30986
  0
LINE
  8
0
 10
1.08362
 20
1.30986
 11
1.16373
 21
1.23924
  0
LINE
  8
0
 10
1.16373
 20
1.23924
 11
1.23924
 21
1.16373
  0
LINE
  8
0
 10
1.23924
 20
1.16373
 11
1.30986
 21
1.08362
  0
LINE
  8
0
 10
1.30986
 20
1.08362
 11
1.37532
 21
0.999222
  0
LINE
  8
0
 10
1.37532
 20
0.999222
 11
1.43535
 21
0.910904
  0
LINE
  8
0
 10
1.43535
 20
0.910904
 11
1.48972
 21
0.81897
  0
LINE
  8
0
 10
1.48972
 20
0.81897
 11
1.53819
 21
0.723816
  0
LINE
  8
0
 10
1.53819
 20
0.723816
 11
1.58061
 21
0.625809
  0
LINE
  8
0
 10
1.58061
 20
0.625809
 11
1.61679
 21
0.525314
  0
LINE
  8
0
 10
1.61679
 20
0.525314
 11
1.64659
 21
0.42276
  0
LINE
  8
0
 10
1.64659
 20
0.42276
 11
1.66988
 21
0.318542
  0
LINE
  8
0
 10
1.66988
 20
0.318542
 11
1.68658
 21
0.213058
  0
LINE
  8
0
 10
1.68658
 20
0.213058
 11
1.69664
 21
0.106735
  0
LINE
  8
0
 10
1.69664
 20
0.106735
 11
1.7
 21
0
  0
LINE
  8
0
 10
1.7
 20
0
 11
1.69664
 21
-0.106735
  0
LINE
  8
0
 10
1.69664
 20
-0.106735
 11
1.68658
 21
-0.213058
  0
LINE
  8
0
 10
1.68658
 20
-0.213058
 11
1.66988
 21
-0.318542
  0
LINE
  8
0
 10
1.66988
 20
-0.318542
 11
1.64659
 21
-0.42276
  0
LINE
  8
0
 10
1.64659
 20
-0.42276
 11
1.61679
 21
-0.525314
  0
LINE
  8
0
 10
1.61679
 20
-0.525314
 11
1.58061
 21
-0.625809
  0
LINE
  8
0
 10
1.58061
 20
-0.625809
 11
1.53819
 21
-0.723816
  0
LINE
  8
0
 10
1.53819
 20
-0.723816
 11
1.48972
 21
-0.81897
  0
LINE
  8
0
 10
1.48972
 20
-0.81897
 11
1.43535
 21
-0.910904
  0
LINE
  8
0
 10
1.43535
 20
-0.910904
 11
1.37532
 21
-0.999222
  0
LINE
  8
0
 10
1.37532
 20
-0.999222
 11
1.30986
 21
-1.08362
  0
LINE
  8
0
 10
1.30986
 20
-1.08362
 11
1.23924
 21
-1.16373
  0
LINE
  8
0
 10
1.23924
 20
-1.16373
 11
1.16373
 21
-1.23924
  0
LINE
  8
0
 10
1.16373
 20
-1.23924
 11
1.08362
 21
-1.30986
  0
LINE
  8
0
 10
1.08362
 20
-1.30986
 11
0.999222
 21
-1.37532
  0
LINE
  8
0
 10
0.999222
 20
-1.37532
 11
0.910904
 21
-1.43535
  0
LINE
  8
0
 10
0.910904
 20
-1.43535
 11
0.81897
 21
-1.48972
  0
LINE
  8
0
 10
0.81897
 20
-1.48972
 11
0.723816
 21
-1.53819
  0
LINE
  8
0
 10
0.723816
 20
-1.53819
 11
0.625809
 21
-1.58061
  0
LINE
  8
0
 10
0.625809
 20
-1.58061
 11
0.525314
 21
-1.61679
  0
LINE
  8
0
 10
0.525314
 20
-1.61679
 11
0.42276
 21
-1.64659
  0
LINE
  8
0
 10
0.42276
 20
-1.64659
 11
0.318542
 21
-1.66988
  0
LINE
  8
0
 10
0.318542
 20
-1.66988
 11
0.213058
 21
-1.68658
  0
LINE
  8
0
 10
0.213058
 20
-1.68658
 11
0.106735
 21
-1.69664
  0
LINE
  8
0
 10
0.106735
 20
-1.69664
 11
0
 21
-1.7
  0
LINE
  8
0
 10
0
 20
-1.7
 11
-0.106735
 21
-1.69664
  0
ENDSEC
  0
SECTION
  2
OBJECTS
  0
DICTIONARY
  0
ENDSEC
  0
EOF
